<svg width="400" height="280" xmlns="http://www.w3.org/2000/svg"><rect width="400" height="280" fill="#1a1b26" rx="10" ry="10"></rect><text x="200" y="30" fill="#7aa2f7" text-anchor="middle" style="font-family: sans-serif; font-size: 18px; font-weight: 600;">Total Bytes</text><g transform="translate(20, 80)"><g transform="translate(0, 0)"><rect width="15" height="15" fill="#3178c6" stroke="#1e4d7a" stroke-width="1" rx="1" ry="1"></rect><text x="25" y="13" fill="#00B4AB" style="font-family: sans-serif; font-size: 14px;">TypeScript</text></g><g transform="translate(0, 30)"><rect width="15" height="15" fill="#00B4AB" stroke="#006b66" stroke-width="1" rx="1" ry="1"></rect><text x="25" y="13" fill="#00B4AB" style="font-family: sans-serif; font-size: 14px;">Dart</text></g><g transform="translate(0, 60)"><rect width="15" height="15" fill="#FFD43B" stroke="#b39429" stroke-width="1" rx="1" ry="1"></rect><text x="25" y="13" fill="#00B4AB" style="font-family: sans-serif; font-size: 14px;">Python</text></g><g transform="translate(0, 90)"><rect width="15" height="15" fill="#f74c00" stroke="#8f2d00" stroke-width="1" rx="1" ry="1"></rect><text x="25" y="13" fill="#00B4AB" style="font-family: sans-serif; font-size: 14px;">Rust</text></g><g transform="translate(0, 120)"><rect width="15" height="15" fill="#9B4F96" stroke="#5a2e5a" stroke-width="1" rx="1" ry="1"></rect><text x="25" y="13" fill="#00B4AB" style="font-family: sans-serif; font-size: 14px;">C#</text></g></g><g transform="translate(280, 155)"><path d="M1.487,-83.963A1,1,0,0,1,2.516,-84.963A85,85,0,1,1,-57.013,63.044A1,1,0,0,1,-57.064,61.609L-34.891,38.505A1,1,0,0,1,-33.513,38.444A51,51,0,1,0,2.439,-50.942A1,1,0,0,1,1.487,-51.941Z" fill="#3178c6" stroke="#1e4d7a" stroke-width="1"></path><path d="M-59.209,59.55A1,1,0,0,1,-60.644,59.559A85,85,0,0,1,-77.372,-35.193A1,1,0,0,1,-76.021,-35.676L-47.277,-21.561A1,1,0,0,1,-46.801,-20.266A51,51,0,0,0,-37.032,35.066A1,1,0,0,1,-37.037,36.446Z" fill="#00B4AB" stroke="#006b66" stroke-width="1"></path><path d="M-74.71,-38.346A1,1,0,0,1,-75.154,-39.71A85,85,0,0,1,-41.77,-74.029A1,1,0,0,1,-40.393,-73.623L-25.49,-45.28A1,1,0,0,1,-25.868,-43.953A51,51,0,0,0,-44.65,-24.644A1,1,0,0,1,-45.967,-24.23Z" fill="#FFD43B" stroke="#b39429" stroke-width="1"></path><path d="M-37.761,-75.007A1,1,0,0,1,-37.315,-76.371A85,85,0,0,1,-15.793,-83.52A1,1,0,0,1,-14.62,-82.694L-9.604,-51.067A1,1,0,0,1,-10.388,-49.931A51,51,0,0,0,-21.55,-46.223A1,1,0,0,1,-22.858,-46.664Z" fill="#f74c00" stroke="#8f2d00" stroke-width="1"></path><path d="M-11.683,-83.16A1,1,0,0,1,-10.822,-84.308A85,85,0,0,1,-2.516,-84.963A1,1,0,0,1,-1.487,-83.963L-1.487,-51.941A1,1,0,0,1,-2.439,-50.942A51,51,0,0,0,-5.57,-50.695A1,1,0,0,1,-6.667,-51.532Z" fill="#9B4F96" stroke="#5a2e5a" stroke-width="1"></path></g></svg>