<svg width="400" height="280" xmlns="http://www.w3.org/2000/svg"><rect width="400" height="280" fill="#1a1b26" rx="10" ry="10"></rect><text x="200" y="30" fill="#7aa2f7" text-anchor="middle" style="font-family: sans-serif; font-size: 18px; font-weight: 600;">Commits by Hour</text><g transform="translate(50, 60)"><rect x="2.7272727272727195" y="139.9230769230769" width="10.90909090909091" height="30.076923076923094" fill="#BF91F3" stroke="#8b6bb0" stroke-width="1" rx="1" ry="1"></rect><rect x="16.363636363636356" y="109.84615384615384" width="10.90909090909091" height="60.15384615384616" fill="#BF91F3" stroke="#8b6bb0" stroke-width="1" rx="1" ry="1"></rect><rect x="29.999999999999993" y="118.99999999999999" width="10.90909090909091" height="51.000000000000014" fill="#BF91F3" stroke="#8b6bb0" stroke-width="1" rx="1" ry="1"></rect><rect x="43.636363636363626" y="111.15384615384616" width="10.90909090909091" height="58.84615384615384" fill="#BF91F3" stroke="#8b6bb0" stroke-width="1" rx="1" ry="1"></rect><rect x="57.272727272727266" y="99.38461538461537" width="10.90909090909091" height="70.61538461538463" fill="#BF91F3" stroke="#8b6bb0" stroke-width="1" rx="1" ry="1"></rect><rect x="70.9090909090909" y="103.30769230769232" width="10.90909090909091" height="66.69230769230768" fill="#BF91F3" stroke="#8b6bb0" stroke-width="1" rx="1" ry="1"></rect><rect x="84.54545454545453" y="95.46153846153847" width="10.90909090909091" height="74.53846153846153" fill="#BF91F3" stroke="#8b6bb0" stroke-width="1" rx="1" ry="1"></rect><rect x="98.18181818181817" y="87.61538461538461" width="10.90909090909091" height="82.38461538461539" fill="#BF91F3" stroke="#8b6bb0" stroke-width="1" rx="1" ry="1"></rect><rect x="111.81818181818181" y="90.23076923076923" width="10.90909090909091" height="79.76923076923077" fill="#BF91F3" stroke="#8b6bb0" stroke-width="1" rx="1" ry="1"></rect><rect x="125.45454545454545" y="111.15384615384616" width="10.90909090909091" height="58.84615384615384" fill="#BF91F3" stroke="#8b6bb0" stroke-width="1" rx="1" ry="1"></rect><rect x="139.0909090909091" y="79.76923076923077" width="10.90909090909091" height="90.23076923076923" fill="#BF91F3" stroke="#8b6bb0" stroke-width="1" rx="1" ry="1"></rect><rect x="152.72727272727272" y="39.230769230769226" width="10.90909090909091" height="130.76923076923077" fill="#BF91F3" stroke="#8b6bb0" stroke-width="1" rx="1" ry="1"></rect><rect x="166.36363636363635" y="0" width="10.90909090909091" height="170" fill="#BF91F3" stroke="#8b6bb0" stroke-width="1" rx="1" ry="1"></rect><rect x="180" y="81.07692307692307" width="10.90909090909091" height="88.92307692307693" fill="#BF91F3" stroke="#8b6bb0" stroke-width="1" rx="1" ry="1"></rect><rect x="193.63636363636363" y="87.61538461538461" width="10.90909090909091" height="82.38461538461539" fill="#BF91F3" stroke="#8b6bb0" stroke-width="1" rx="1" ry="1"></rect><rect x="207.27272727272728" y="126.84615384615385" width="10.90909090909091" height="43.153846153846146" fill="#BF91F3" stroke="#8b6bb0" stroke-width="1" rx="1" ry="1"></rect><rect x="220.9090909090909" y="121.61538461538461" width="10.90909090909091" height="48.38461538461539" fill="#BF91F3" stroke="#8b6bb0" stroke-width="1" rx="1" ry="1"></rect><rect x="234.54545454545453" y="143.84615384615384" width="10.90909090909091" height="26.15384615384616" fill="#BF91F3" stroke="#8b6bb0" stroke-width="1" rx="1" ry="1"></rect><rect x="248.1818181818182" y="133.3846153846154" width="10.90909090909091" height="36.61538461538461" fill="#BF91F3" stroke="#8b6bb0" stroke-width="1" rx="1" ry="1"></rect><rect x="261.81818181818187" y="130.76923076923075" width="10.90909090909091" height="39.230769230769255" fill="#BF91F3" stroke="#8b6bb0" stroke-width="1" rx="1" ry="1"></rect><rect x="275.4545454545455" y="154.30769230769232" width="10.90909090909091" height="15.69230769230768" fill="#BF91F3" stroke="#8b6bb0" stroke-width="1" rx="1" ry="1"></rect><rect x="289.0909090909091" y="158.23076923076923" width="10.90909090909091" height="11.769230769230774" fill="#BF91F3" stroke="#8b6bb0" stroke-width="1" rx="1" ry="1"></rect><rect x="302.72727272727275" y="143.84615384615384" width="10.90909090909091" height="26.15384615384616" fill="#BF91F3" stroke="#8b6bb0" stroke-width="1" rx="1" ry="1"></rect><rect x="316.3636363636364" y="145.15384615384616" width="10.90909090909091" height="24.84615384615384" fill="#BF91F3" stroke="#8b6bb0" stroke-width="1" rx="1" ry="1"></rect><g transform="translate(0, 170)" fill="none" font-size="10" font-family="sans-serif" text-anchor="middle"><path class="domain" stroke="#00B4AB" d="M0.5,6V0.5H330.5V6"></path><g class="tick" opacity="1" transform="translate(8.181818181818175,0)"><line stroke="#00B4AB" y2="6"></line><text fill="#00B4AB" y="9" dy="0.71em" style="font-family: sans-serif; font-size: 11px;">0</text></g><g class="tick" opacity="1" transform="translate(49.09090909090908,0)"><line stroke="#00B4AB" y2="6"></line><text fill="#00B4AB" y="9" dy="0.71em" style="font-family: sans-serif; font-size: 11px;">3</text></g><g class="tick" opacity="1" transform="translate(89.99999999999999,0)"><line stroke="#00B4AB" y2="6"></line><text fill="#00B4AB" y="9" dy="0.71em" style="font-family: sans-serif; font-size: 11px;">6</text></g><g class="tick" opacity="1" transform="translate(130.9090909090909,0)"><line stroke="#00B4AB" y2="6"></line><text fill="#00B4AB" y="9" dy="0.71em" style="font-family: sans-serif; font-size: 11px;">9</text></g><g class="tick" opacity="1" transform="translate(171.8181818181818,0)"><line stroke="#00B4AB" y2="6"></line><text fill="#00B4AB" y="9" dy="0.71em" style="font-family: sans-serif; font-size: 11px;">12</text></g><g class="tick" opacity="1" transform="translate(212.72727272727275,0)"><line stroke="#00B4AB" y2="6"></line><text fill="#00B4AB" y="9" dy="0.71em" style="font-family: sans-serif; font-size: 11px;">15</text></g><g class="tick" opacity="1" transform="translate(253.63636363636365,0)"><line stroke="#00B4AB" y2="6"></line><text fill="#00B4AB" y="9" dy="0.71em" style="font-family: sans-serif; font-size: 11px;">18</text></g><g class="tick" opacity="1" transform="translate(294.54545454545456,0)"><line stroke="#00B4AB" y2="6"></line><text fill="#00B4AB" y="9" dy="0.71em" style="font-family: sans-serif; font-size: 11px;">21</text></g></g><g fill="none" font-size="10" font-family="sans-serif" text-anchor="end"><path class="domain" stroke="#00B4AB" d="M-6,170.5H0.5V0.5H-6"></path><g class="tick" opacity="1" transform="translate(0,170.5)"><line stroke="#00B4AB" x2="-6"></line><text fill="#00B4AB" x="-9" dy="0.32em" style="font-family: sans-serif; font-size: 11px;">0</text></g><g class="tick" opacity="1" transform="translate(0,144.34615384615384)"><line stroke="#00B4AB" x2="-6"></line><text fill="#00B4AB" x="-9" dy="0.32em" style="font-family: sans-serif; font-size: 11px;">20</text></g><g class="tick" opacity="1" transform="translate(0,118.1923076923077)"><line stroke="#00B4AB" x2="-6"></line><text fill="#00B4AB" x="-9" dy="0.32em" style="font-family: sans-serif; font-size: 11px;">40</text></g><g class="tick" opacity="1" transform="translate(0,92.03846153846153)"><line stroke="#00B4AB" x2="-6"></line><text fill="#00B4AB" x="-9" dy="0.32em" style="font-family: sans-serif; font-size: 11px;">60</text></g><g class="tick" opacity="1" transform="translate(0,65.88461538461537)"><line stroke="#00B4AB" x2="-6"></line><text fill="#00B4AB" x="-9" dy="0.32em" style="font-family: sans-serif; font-size: 11px;">80</text></g><g class="tick" opacity="1" transform="translate(0,39.730769230769226)"><line stroke="#00B4AB" x2="-6"></line><text fill="#00B4AB" x="-9" dy="0.32em" style="font-family: sans-serif; font-size: 11px;">100</text></g><g class="tick" opacity="1" transform="translate(0,13.576923076923068)"><line stroke="#00B4AB" x2="-6"></line><text fill="#00B4AB" x="-9" dy="0.32em" style="font-family: sans-serif; font-size: 11px;">120</text></g></g></g><text x="200" y="270" fill="#00B4AB" text-anchor="middle" style="font-family: sans-serif; font-size: 12px;">JST Hour</text></svg>