<svg width="400" height="280" xmlns="http://www.w3.org/2000/svg"><rect width="400" height="280" fill="#1a1b26" rx="10" ry="10"></rect><text x="200" y="30" fill="#7aa2f7" text-anchor="middle" style="font-family: sans-serif; font-size: 18px; font-weight: 600;">Repository Count</text><g transform="translate(20, 80)"><g transform="translate(0, 0)"><rect width="15" height="15" fill="#3178c6" stroke="#1e4d7a" stroke-width="1" rx="1" ry="1"></rect><text x="25" y="13" fill="#00B4AB" style="font-family: sans-serif; font-size: 14px;">TypeScript</text></g><g transform="translate(0, 30)"><rect width="15" height="15" fill="#FFD43B" stroke="#b39429" stroke-width="1" rx="1" ry="1"></rect><text x="25" y="13" fill="#00B4AB" style="font-family: sans-serif; font-size: 14px;">Python</text></g><g transform="translate(0, 60)"><rect width="15" height="15" fill="#f74c00" stroke="#8f2d00" stroke-width="1" rx="1" ry="1"></rect><text x="25" y="13" fill="#00B4AB" style="font-family: sans-serif; font-size: 14px;">Rust</text></g><g transform="translate(0, 90)"><rect width="15" height="15" fill="#9B4F96" stroke="#5a2e5a" stroke-width="1" rx="1" ry="1"></rect><text x="25" y="13" fill="#00B4AB" style="font-family: sans-serif; font-size: 14px;">C#</text></g><g transform="translate(0, 120)"><rect width="15" height="15" fill="#00B4AB" stroke="#006b66" stroke-width="1" rx="1" ry="1"></rect><text x="25" y="13" fill="#00B4AB" style="font-family: sans-serif; font-size: 14px;">Dart</text></g></g><g transform="translate(280, 155)"><path d="M1.487,-83.963A1,1,0,0,1,2.516,-84.963A85,85,0,0,1,36.405,76.809A1,1,0,0,1,35.061,76.307L22.208,46.977A1,1,0,0,1,22.679,45.68A51,51,0,0,0,2.439,-50.942A1,1,0,0,1,1.487,-51.941Z" fill="#3178c6" stroke="#1e4d7a" stroke-width="1"></path><path d="M32.337,77.501A1,1,0,0,1,31.795,78.829A85,85,0,0,1,-84.982,1.766A1,1,0,0,1,-83.973,0.745L-51.952,1.028A1,1,0,0,1,-50.961,1.989A51,51,0,0,0,18.212,47.638A1,1,0,0,1,19.485,48.17Z" fill="#FFD43B" stroke="#b39429" stroke-width="1"></path><path d="M-83.947,-2.228A1,1,0,0,1,-84.937,-3.267A85,85,0,0,1,-62.471,-57.64A1,1,0,0,1,-61.036,-57.677L-38.154,-35.274A1,1,0,0,1,-38.107,-33.895A51,51,0,0,0,-50.918,-2.889A1,1,0,0,1,-51.925,-1.946Z" fill="#f74c00" stroke="#8f2d00" stroke-width="1"></path><path d="M-58.956,-59.802A1,1,0,0,1,-58.95,-61.237A85,85,0,0,1,-25.52,-81.079A1,1,0,0,1,-24.257,-80.397L-15.551,-49.58A1,1,0,0,1,-16.196,-48.36A51,51,0,0,0,-34.694,-37.381A1,1,0,0,1,-36.074,-37.399Z" fill="#9B4F96" stroke="#5a2e5a" stroke-width="1"></path><path d="M-21.396,-81.205A1,1,0,0,1,-20.676,-82.447A85,85,0,0,1,-2.516,-84.963A1,1,0,0,1,-1.487,-83.963L-1.487,-51.941A1,1,0,0,1,-2.439,-50.942A51,51,0,0,0,-11.502,-49.686A1,1,0,0,1,-12.69,-50.388Z" fill="#00B4AB" stroke="#006b66" stroke-width="1"></path></g></svg>