<svg width="400" height="280" xmlns="http://www.w3.org/2000/svg"><rect width="400" height="280" fill="#1a1b26" rx="10" ry="10"></rect><text x="200" y="30" fill="#7aa2f7" text-anchor="middle" style="font-family: sans-serif; font-size: 18px; font-weight: 600;">Total Bytes</text><g transform="translate(20, 80)"><g transform="translate(0, 0)"><rect width="15" height="15" fill="#3178c6" stroke="#1e4d7a" stroke-width="1" rx="1" ry="1"></rect><text x="25" y="13" fill="#00B4AB" style="font-family: sans-serif; font-size: 14px;">TypeScript</text></g><g transform="translate(0, 30)"><rect width="15" height="15" fill="#00B4AB" stroke="#006b66" stroke-width="1" rx="1" ry="1"></rect><text x="25" y="13" fill="#00B4AB" style="font-family: sans-serif; font-size: 14px;">Dart</text></g><g transform="translate(0, 60)"><rect width="15" height="15" fill="#FFD43B" stroke="#b39429" stroke-width="1" rx="1" ry="1"></rect><text x="25" y="13" fill="#00B4AB" style="font-family: sans-serif; font-size: 14px;">Python</text></g><g transform="translate(0, 90)"><rect width="15" height="15" fill="#f74c00" stroke="#8f2d00" stroke-width="1" rx="1" ry="1"></rect><text x="25" y="13" fill="#00B4AB" style="font-family: sans-serif; font-size: 14px;">Rust</text></g><g transform="translate(0, 120)"><rect width="15" height="15" fill="#9B4F96" stroke="#5a2e5a" stroke-width="1" rx="1" ry="1"></rect><text x="25" y="13" fill="#00B4AB" style="font-family: sans-serif; font-size: 14px;">C#</text></g></g><g transform="translate(280, 155)"><path d="M1.487,-83.963A1,1,0,0,1,2.516,-84.963A85,85,0,1,1,-73.16,43.273A1,1,0,0,1,-72.783,41.889L-44.75,26.409A1,1,0,0,1,-43.416,26.76A51,51,0,1,0,2.439,-50.942A1,1,0,0,1,1.487,-51.941Z" fill="#3178c6" stroke="#1e4d7a" stroke-width="1"></path><path d="M-74.22,39.285A1,1,0,0,1,-75.593,38.867A85,85,0,0,1,-74.426,-41.059A1,1,0,0,1,-73.041,-41.437L-45.473,-25.145A1,1,0,0,1,-45.097,-23.817A51,51,0,0,0,-45.774,22.49A1,1,0,0,1,-46.188,23.806Z" fill="#00B4AB" stroke="#006b66" stroke-width="1"></path><path d="M-71.528,-43.997A1,1,0,0,1,-71.865,-45.392A85,85,0,0,1,-43.76,-72.87A1,1,0,0,1,-42.373,-72.502L-26.707,-44.573A1,1,0,0,1,-27.049,-43.236A51,51,0,0,0,-42.615,-28.017A1,1,0,0,1,-43.96,-27.705Z" fill="#FFD43B" stroke="#b39429" stroke-width="1"></path><path d="M-39.779,-73.957A1,1,0,0,1,-39.37,-75.332A85,85,0,0,1,-13.855,-83.863A1,1,0,0,1,-12.701,-83.01L-8.419,-51.275A1,1,0,0,1,-9.229,-50.158A51,51,0,0,0,-22.794,-45.623A1,1,0,0,1,-24.113,-46.028Z" fill="#f74c00" stroke="#8f2d00" stroke-width="1"></path><path d="M-9.754,-83.408A1,1,0,0,1,-8.867,-84.536A85,85,0,0,1,-2.516,-84.963A1,1,0,0,1,-1.487,-83.963L-1.487,-51.941A1,1,0,0,1,-2.439,-50.942A51,51,0,0,0,-4.395,-50.81A1,1,0,0,1,-5.472,-51.673Z" fill="#9B4F96" stroke="#5a2e5a" stroke-width="1"></path></g></svg>