<svg width="400" height="280" xmlns="http://www.w3.org/2000/svg"><rect width="400" height="280" fill="#1a1b26" rx="10" ry="10"></rect><text x="200" y="30" fill="#7aa2f7" text-anchor="middle" style="font-family: sans-serif; font-size: 18px; font-weight: 600;">Total Bytes</text><g transform="translate(20, 80)"><g transform="translate(0, 0)"><rect width="15" height="15" fill="#3178c6" stroke="#1e4d7a" stroke-width="1" rx="1" ry="1"></rect><text x="25" y="13" fill="#00B4AB" style="font-family: sans-serif; font-size: 14px;">TypeScript</text></g><g transform="translate(0, 30)"><rect width="15" height="15" fill="#00B4AB" stroke="#006b66" stroke-width="1" rx="1" ry="1"></rect><text x="25" y="13" fill="#00B4AB" style="font-family: sans-serif; font-size: 14px;">Dart</text></g><g transform="translate(0, 60)"><rect width="15" height="15" fill="#FFD43B" stroke="#b39429" stroke-width="1" rx="1" ry="1"></rect><text x="25" y="13" fill="#00B4AB" style="font-family: sans-serif; font-size: 14px;">Python</text></g><g transform="translate(0, 90)"><rect width="15" height="15" fill="#9B4F96" stroke="#5a2e5a" stroke-width="1" rx="1" ry="1"></rect><text x="25" y="13" fill="#00B4AB" style="font-family: sans-serif; font-size: 14px;">C#</text></g><g transform="translate(0, 120)"><rect width="15" height="15" fill="#f74c00" stroke="#8f2d00" stroke-width="1" rx="1" ry="1"></rect><text x="25" y="13" fill="#00B4AB" style="font-family: sans-serif; font-size: 14px;">Rust</text></g></g><g transform="translate(280, 155)"><path d="M1.487,-83.963A1,1,0,0,1,2.516,-84.963A85,85,0,1,1,-25.292,81.15A1,1,0,0,1,-25.939,79.87L-15.51,49.593A1,1,0,0,1,-14.285,48.959A51,51,0,1,0,2.439,-50.942A1,1,0,0,1,1.487,-51.941Z" fill="#3178c6" stroke="#1e4d7a" stroke-width="1"></path><path d="M-28.751,78.901A1,1,0,0,1,-30.05,79.511A85,85,0,0,1,-78.859,-31.723A1,1,0,0,1,-77.53,-32.266L-48.188,-19.44A1,1,0,0,1,-47.654,-18.168A51,51,0,0,0,-18.897,47.37A1,1,0,0,1,-18.322,48.624Z" fill="#00B4AB" stroke="#006b66" stroke-width="1"></path><path d="M-76.339,-34.99A1,1,0,0,1,-76.843,-36.334A85,85,0,0,1,-31.41,-78.984A1,1,0,0,1,-30.101,-78.396L-19.153,-48.303A1,1,0,0,1,-19.707,-47.039A51,51,0,0,0,-45.701,-22.637A1,1,0,0,1,-46.997,-22.165Z" fill="#FFD43B" stroke="#b39429" stroke-width="1"></path><path d="M-27.306,-79.413A1,1,0,0,1,-26.68,-80.704A85,85,0,0,1,-15.308,-83.61A1,1,0,0,1,-14.14,-82.777L-9.308,-51.121A1,1,0,0,1,-10.098,-49.99A51,51,0,0,0,-15.123,-48.706A1,1,0,0,1,-16.359,-49.32Z" fill="#9B4F96" stroke="#5a2e5a" stroke-width="1"></path><path d="M-11.2,-83.226A1,1,0,0,1,-10.333,-84.37A85,85,0,0,1,-2.516,-84.963A1,1,0,0,1,-1.487,-83.963L-1.487,-51.941A1,1,0,0,1,-2.439,-50.942A51,51,0,0,0,-5.276,-50.726A1,1,0,0,1,-6.368,-51.57Z" fill="#f74c00" stroke="#8f2d00" stroke-width="1"></path></g></svg>