<svg width="400" height="280" xmlns="http://www.w3.org/2000/svg"><rect width="400" height="280" fill="#1a1b26" rx="10" ry="10"></rect><text x="200" y="30" fill="#7aa2f7" text-anchor="middle" style="font-family: sans-serif; font-size: 18px; font-weight: 600;">Total Bytes</text><g transform="translate(20, 80)"><g transform="translate(0, 0)"><rect width="15" height="15" fill="#3178c6" stroke="#1e4d7a" stroke-width="1" rx="1" ry="1"></rect><text x="25" y="13" fill="#00B4AB" style="font-family: sans-serif; font-size: 14px;">TypeScript</text></g><g transform="translate(0, 30)"><rect width="15" height="15" fill="#00B4AB" stroke="#006b66" stroke-width="1" rx="1" ry="1"></rect><text x="25" y="13" fill="#00B4AB" style="font-family: sans-serif; font-size: 14px;">Dart</text></g><g transform="translate(0, 60)"><rect width="15" height="15" fill="#FFD43B" stroke="#b39429" stroke-width="1" rx="1" ry="1"></rect><text x="25" y="13" fill="#00B4AB" style="font-family: sans-serif; font-size: 14px;">Python</text></g><g transform="translate(0, 90)"><rect width="15" height="15" fill="#9B4F96" stroke="#5a2e5a" stroke-width="1" rx="1" ry="1"></rect><text x="25" y="13" fill="#00B4AB" style="font-family: sans-serif; font-size: 14px;">C#</text></g><g transform="translate(0, 120)"><rect width="15" height="15" fill="#f74c00" stroke="#8f2d00" stroke-width="1" rx="1" ry="1"></rect><text x="25" y="13" fill="#00B4AB" style="font-family: sans-serif; font-size: 14px;">Rust</text></g></g><g transform="translate(280, 155)"><path d="M1.487,-83.963A1,1,0,0,1,2.516,-84.963A85,85,0,1,1,-10.91,84.297A1,1,0,0,1,-11.769,83.147L-6.721,51.525A1,1,0,0,1,-5.623,50.689A51,51,0,1,0,2.439,-50.942A1,1,0,0,1,1.487,-51.941Z" fill="#3178c6" stroke="#1e4d7a" stroke-width="1"></path><path d="M-14.706,82.679A1,1,0,0,1,-15.88,83.503A85,85,0,0,1,-80.783,-26.441A1,1,0,0,1,-79.494,-27.07L-49.368,-16.212A1,1,0,0,1,-48.751,-14.978A51,51,0,0,0,-10.44,49.92A1,1,0,0,1,-9.657,51.056Z" fill="#00B4AB" stroke="#006b66" stroke-width="1"></path><path d="M-78.485,-29.868A1,1,0,0,1,-79.077,-31.175A85,85,0,0,1,-32.914,-78.369A1,1,0,0,1,-31.593,-77.807L-20.073,-47.928A1,1,0,0,1,-20.602,-46.654A51,51,0,0,0,-47.097,-19.567A1,1,0,0,1,-48.36,-19.01Z" fill="#FFD43B" stroke="#b39429" stroke-width="1"></path><path d="M-28.819,-78.876A1,1,0,0,1,-28.218,-80.18A85,85,0,0,1,-15.98,-83.484A1,1,0,0,1,-14.805,-82.661L-9.718,-51.045A1,1,0,0,1,-10.5,-49.908A51,51,0,0,0,-16.051,-48.408A1,1,0,0,1,-17.299,-48.998Z" fill="#9B4F96" stroke="#5a2e5a" stroke-width="1"></path><path d="M-11.869,-83.133A1,1,0,0,1,-11.011,-84.284A85,85,0,0,1,-2.516,-84.963A1,1,0,0,1,-1.487,-83.963L-1.487,-51.941A1,1,0,0,1,-2.439,-50.942A51,51,0,0,0,-5.683,-50.682A1,1,0,0,1,-6.782,-51.517Z" fill="#f74c00" stroke="#8f2d00" stroke-width="1"></path></g></svg>