<svg width="400" height="280" xmlns="http://www.w3.org/2000/svg"><rect width="400" height="280" fill="#1a1b26" rx="10" ry="10"></rect><text x="200" y="30" fill="#7aa2f7" text-anchor="middle" style="font-family: sans-serif; font-size: 18px; font-weight: 600;">Total Bytes</text><g transform="translate(20, 80)"><g transform="translate(0, 0)"><rect width="15" height="15" fill="#3178c6" stroke="#1e4d7a" stroke-width="1" rx="1" ry="1"></rect><text x="25" y="13" fill="#00B4AB" style="font-family: sans-serif; font-size: 14px;">TypeScript</text></g><g transform="translate(0, 30)"><rect width="15" height="15" fill="#00B4AB" stroke="#006b66" stroke-width="1" rx="1" ry="1"></rect><text x="25" y="13" fill="#00B4AB" style="font-family: sans-serif; font-size: 14px;">Dart</text></g><g transform="translate(0, 60)"><rect width="15" height="15" fill="#FFD43B" stroke="#b39429" stroke-width="1" rx="1" ry="1"></rect><text x="25" y="13" fill="#00B4AB" style="font-family: sans-serif; font-size: 14px;">Python</text></g><g transform="translate(0, 90)"><rect width="15" height="15" fill="#f74c00" stroke="#8f2d00" stroke-width="1" rx="1" ry="1"></rect><text x="25" y="13" fill="#00B4AB" style="font-family: sans-serif; font-size: 14px;">Rust</text></g><g transform="translate(0, 120)"><rect width="15" height="15" fill="#9B4F96" stroke="#5a2e5a" stroke-width="1" rx="1" ry="1"></rect><text x="25" y="13" fill="#00B4AB" style="font-family: sans-serif; font-size: 14px;">C#</text></g></g><g transform="translate(280, 155)"><path d="M1.487,-83.963A1,1,0,0,1,2.516,-84.963A85,85,0,1,1,-60.578,59.626A1,1,0,0,1,-60.546,58.191L-37.069,36.414A1,1,0,0,1,-35.689,36.432A51,51,0,1,0,2.439,-50.942A1,1,0,0,1,1.487,-51.941Z" fill="#3178c6" stroke="#1e4d7a" stroke-width="1"></path><path d="M-62.568,56.011A1,1,0,0,1,-64.001,55.936A85,85,0,0,1,-74.453,-41.009A1,1,0,0,1,-73.069,-41.388L-45.489,-25.115A1,1,0,0,1,-45.113,-23.787A51,51,0,0,0,-39.006,32.856A1,1,0,0,1,-39.091,34.233Z" fill="#00B4AB" stroke="#006b66" stroke-width="1"></path><path d="M-71.558,-43.949A1,1,0,0,1,-71.895,-45.344A85,85,0,0,1,-35.289,-77.328A1,1,0,0,1,-33.952,-76.807L-21.526,-47.293A1,1,0,0,1,-22.016,-46.003A51,51,0,0,0,-42.634,-27.988A1,1,0,0,1,-43.978,-27.676Z" fill="#FFD43B" stroke="#b39429" stroke-width="1"></path><path d="M-31.212,-77.961A1,1,0,0,1,-30.651,-79.281A85,85,0,0,1,-15.952,-83.49A1,1,0,0,1,-14.777,-82.666L-9.701,-51.048A1,1,0,0,1,-10.483,-49.911A51,51,0,0,0,-17.52,-47.896A1,1,0,0,1,-18.785,-48.447Z" fill="#f74c00" stroke="#8f2d00" stroke-width="1"></path><path d="M-11.841,-83.137A1,1,0,0,1,-10.983,-84.287A85,85,0,0,1,-2.516,-84.963A1,1,0,0,1,-1.487,-83.963L-1.487,-51.941A1,1,0,0,1,-2.439,-50.942A51,51,0,0,0,-5.667,-50.684A1,1,0,0,1,-6.765,-51.519Z" fill="#9B4F96" stroke="#5a2e5a" stroke-width="1"></path></g></svg>