<svg width="400" height="280" xmlns="http://www.w3.org/2000/svg"><rect width="400" height="280" fill="#1a1b26" rx="10" ry="10"></rect><text x="200" y="30" fill="#7aa2f7" text-anchor="middle" style="font-family: sans-serif; font-size: 18px; font-weight: 600;">Total Bytes</text><g transform="translate(20, 80)"><g transform="translate(0, 0)"><rect width="15" height="15" fill="#3178c6" stroke="#1e4d7a" stroke-width="1" rx="1" ry="1"></rect><text x="25" y="13" fill="#00B4AB" style="font-family: sans-serif; font-size: 14px;">TypeScript</text></g><g transform="translate(0, 30)"><rect width="15" height="15" fill="#00B4AB" stroke="#006b66" stroke-width="1" rx="1" ry="1"></rect><text x="25" y="13" fill="#00B4AB" style="font-family: sans-serif; font-size: 14px;">Dart</text></g><g transform="translate(0, 60)"><rect width="15" height="15" fill="#FFD43B" stroke="#b39429" stroke-width="1" rx="1" ry="1"></rect><text x="25" y="13" fill="#00B4AB" style="font-family: sans-serif; font-size: 14px;">Python</text></g><g transform="translate(0, 90)"><rect width="15" height="15" fill="#f74c00" stroke="#8f2d00" stroke-width="1" rx="1" ry="1"></rect><text x="25" y="13" fill="#00B4AB" style="font-family: sans-serif; font-size: 14px;">Rust</text></g><g transform="translate(0, 120)"><rect width="15" height="15" fill="#9B4F96" stroke="#5a2e5a" stroke-width="1" rx="1" ry="1"></rect><text x="25" y="13" fill="#00B4AB" style="font-family: sans-serif; font-size: 14px;">C#</text></g></g><g transform="translate(280, 155)"><path d="M1.487,-83.963A1,1,0,0,1,2.516,-84.963A85,85,0,1,1,-53.236,66.264A1,1,0,0,1,-53.37,64.836L-32.584,40.476A1,1,0,0,1,-31.211,40.334A51,51,0,1,0,2.439,-50.942A1,1,0,0,1,1.487,-51.941Z" fill="#3178c6" stroke="#1e4d7a" stroke-width="1"></path><path d="M-55.632,62.906A1,1,0,0,1,-57.064,62.998A85,85,0,0,1,-80.143,-28.322A1,1,0,0,1,-78.839,-28.921L-48.975,-17.362A1,1,0,0,1,-48.387,-16.114A51,51,0,0,0,-34.922,37.168A1,1,0,0,1,-34.846,38.546Z" fill="#00B4AB" stroke="#006b66" stroke-width="1"></path><path d="M-77.766,-31.695A1,1,0,0,1,-78.326,-33.016A85,85,0,0,1,-48.633,-69.713A1,1,0,0,1,-47.224,-69.44L-29.688,-42.646A1,1,0,0,1,-29.937,-41.289A51,51,0,0,0,-46.627,-20.663A1,1,0,0,1,-47.902,-20.135Z" fill="#FFD43B" stroke="#b39429" stroke-width="1"></path><path d="M-44.735,-71.069A1,1,0,0,1,-44.421,-72.469A85,85,0,0,1,-15.545,-83.567A1,1,0,0,1,-14.374,-82.737L-9.452,-51.095A1,1,0,0,1,-10.239,-49.962A51,51,0,0,0,-25.856,-43.96A1,1,0,0,1,-27.199,-44.274Z" fill="#f74c00" stroke="#8f2d00" stroke-width="1"></path><path d="M-11.435,-83.194A1,1,0,0,1,-10.572,-84.34A85,85,0,0,1,-2.516,-84.963A1,1,0,0,1,-1.487,-83.963L-1.487,-51.941A1,1,0,0,1,-2.439,-50.942A51,51,0,0,0,-5.419,-50.711A1,1,0,0,1,-6.514,-51.552Z" fill="#9B4F96" stroke="#5a2e5a" stroke-width="1"></path></g></svg>