<svg width="400" height="280" xmlns="http://www.w3.org/2000/svg"><rect width="400" height="280" fill="#1a1b26" rx="10" ry="10"></rect><text x="200" y="30" fill="#7aa2f7" text-anchor="middle" style="font-family: sans-serif; font-size: 18px; font-weight: 600;">Total Bytes</text><g transform="translate(20, 80)"><g transform="translate(0, 0)"><rect width="15" height="15" fill="#3178c6" stroke="#1e4d7a" stroke-width="1" rx="1" ry="1"></rect><text x="25" y="13" fill="#00B4AB" style="font-family: sans-serif; font-size: 14px;">TypeScript</text></g><g transform="translate(0, 30)"><rect width="15" height="15" fill="#00B4AB" stroke="#006b66" stroke-width="1" rx="1" ry="1"></rect><text x="25" y="13" fill="#00B4AB" style="font-family: sans-serif; font-size: 14px;">Dart</text></g><g transform="translate(0, 60)"><rect width="15" height="15" fill="#FFD43B" stroke="#b39429" stroke-width="1" rx="1" ry="1"></rect><text x="25" y="13" fill="#00B4AB" style="font-family: sans-serif; font-size: 14px;">Python</text></g><g transform="translate(0, 90)"><rect width="15" height="15" fill="#9B4F96" stroke="#5a2e5a" stroke-width="1" rx="1" ry="1"></rect><text x="25" y="13" fill="#00B4AB" style="font-family: sans-serif; font-size: 14px;">C#</text></g><g transform="translate(0, 120)"><rect width="15" height="15" fill="#f74c00" stroke="#8f2d00" stroke-width="1" rx="1" ry="1"></rect><text x="25" y="13" fill="#00B4AB" style="font-family: sans-serif; font-size: 14px;">Rust</text></g></g><g transform="translate(280, 155)"><path d="M1.487,-83.963A1,1,0,0,1,2.516,-84.963A85,85,0,1,1,-64.413,55.462A1,1,0,0,1,-64.285,54.033L-39.41,33.866A1,1,0,0,1,-38.034,33.976A51,51,0,1,0,2.439,-50.942A1,1,0,0,1,1.487,-51.941Z" fill="#3178c6" stroke="#1e4d7a" stroke-width="1"></path><path d="M-66.157,51.723A1,1,0,0,1,-67.582,51.552A85,85,0,0,1,-70.571,-47.379A1,1,0,0,1,-69.159,-47.635L-43.112,-29.006A1,1,0,0,1,-42.854,-27.651A51,51,0,0,0,-41.106,30.187A1,1,0,0,1,-41.283,31.556Z" fill="#00B4AB" stroke="#006b66" stroke-width="1"></path><path d="M-67.429,-50.054A1,1,0,0,1,-67.643,-51.472A85,85,0,0,1,-27.546,-80.413A1,1,0,0,1,-26.267,-79.763L-16.79,-49.174A1,1,0,0,1,-17.404,-47.938A51,51,0,0,0,-40.016,-31.618A1,1,0,0,1,-41.382,-31.425Z" fill="#FFD43B" stroke="#b39429" stroke-width="1"></path><path d="M-23.426,-80.643A1,1,0,0,1,-22.738,-81.902A85,85,0,0,1,-14.268,-83.794A1,1,0,0,1,-13.11,-82.947L-8.671,-51.233A1,1,0,0,1,-9.476,-50.112A51,51,0,0,0,-12.745,-49.382A1,1,0,0,1,-13.95,-50.054Z" fill="#9B4F96" stroke="#5a2e5a" stroke-width="1"></path><path d="M-10.165,-83.359A1,1,0,0,1,-9.284,-84.491A85,85,0,0,1,-2.516,-84.963A1,1,0,0,1,-1.487,-83.963L-1.487,-51.941A1,1,0,0,1,-2.439,-50.942A51,51,0,0,0,-4.645,-50.788A1,1,0,0,1,-5.726,-51.645Z" fill="#f74c00" stroke="#8f2d00" stroke-width="1"></path></g></svg>