<svg width="400" height="280" xmlns="http://www.w3.org/2000/svg"><rect width="400" height="280" fill="#1a1b26" rx="10" ry="10"></rect><text x="200" y="30" fill="#7aa2f7" text-anchor="middle" style="font-family: sans-serif; font-size: 18px; font-weight: 600;">Total Bytes</text><g transform="translate(20, 80)"><g transform="translate(0, 0)"><rect width="15" height="15" fill="#3178c6" stroke="#1e4d7a" stroke-width="1" rx="1" ry="1"></rect><text x="25" y="13" fill="#00B4AB" style="font-family: sans-serif; font-size: 14px;">TypeScript</text></g><g transform="translate(0, 30)"><rect width="15" height="15" fill="#00B4AB" stroke="#006b66" stroke-width="1" rx="1" ry="1"></rect><text x="25" y="13" fill="#00B4AB" style="font-family: sans-serif; font-size: 14px;">Dart</text></g><g transform="translate(0, 60)"><rect width="15" height="15" fill="#FFD43B" stroke="#b39429" stroke-width="1" rx="1" ry="1"></rect><text x="25" y="13" fill="#00B4AB" style="font-family: sans-serif; font-size: 14px;">Python</text></g><g transform="translate(0, 90)"><rect width="15" height="15" fill="#9B4F96" stroke="#5a2e5a" stroke-width="1" rx="1" ry="1"></rect><text x="25" y="13" fill="#00B4AB" style="font-family: sans-serif; font-size: 14px;">C#</text></g><g transform="translate(0, 120)"><rect width="15" height="15" fill="#f74c00" stroke="#8f2d00" stroke-width="1" rx="1" ry="1"></rect><text x="25" y="13" fill="#00B4AB" style="font-family: sans-serif; font-size: 14px;">Rust</text></g></g><g transform="translate(280, 155)"><path d="M1.487,-83.963A1,1,0,0,1,2.516,-84.963A85,85,0,0,1,2.283,84.969A1,1,0,0,1,1.256,83.967L1.344,51.944A1,1,0,0,1,2.299,50.948A51,51,0,0,0,2.439,-50.942A1,1,0,0,1,1.487,-51.941Z" fill="#3178c6" stroke="#1e4d7a" stroke-width="1"></path><path d="M-1.718,83.959A1,1,0,0,1,-2.75,84.955A85,85,0,0,1,-82.259,-21.412A1,1,0,0,1,-81.011,-22.12L-50.273,-13.139A1,1,0,0,1,-49.581,-11.945A51,51,0,0,0,-2.579,50.935A1,1,0,0,1,-1.63,51.936Z" fill="#00B4AB" stroke="#006b66" stroke-width="1"></path><path d="M-80.177,-24.975A1,1,0,0,1,-80.847,-26.243A85,85,0,0,1,-34.22,-77.807A1,1,0,0,1,-32.891,-77.267L-20.872,-47.585A1,1,0,0,1,-21.38,-46.302A51,51,0,0,0,-48.213,-16.628A1,1,0,0,1,-49.439,-15.994Z" fill="#FFD43B" stroke="#b39429" stroke-width="1"></path><path d="M-30.135,-78.383A1,1,0,0,1,-29.556,-79.696A85,85,0,0,1,-16.567,-83.37A1,1,0,0,1,-15.386,-82.555L-10.077,-50.975A1,1,0,0,1,-10.85,-49.832A51,51,0,0,0,-16.859,-48.133A1,1,0,0,1,-18.116,-48.701Z" fill="#9B4F96" stroke="#5a2e5a" stroke-width="1"></path><path d="M-12.453,-83.048A1,1,0,0,1,-11.604,-84.204A85,85,0,0,1,-2.516,-84.963A1,1,0,0,1,-1.487,-83.963L-1.487,-51.941A1,1,0,0,1,-2.439,-50.942A51,51,0,0,0,-6.04,-50.641A1,1,0,0,1,-7.145,-51.468Z" fill="#f74c00" stroke="#8f2d00" stroke-width="1"></path></g></svg>