<svg width="400" height="280" xmlns="http://www.w3.org/2000/svg"><rect width="400" height="280" fill="#1a1b26" rx="10" ry="10"></rect><text x="200" y="30" fill="#7aa2f7" text-anchor="middle" style="font-family: sans-serif; font-size: 18px; font-weight: 600;">Commits by Hour</text><g transform="translate(50, 60)"><rect x="2.7272727272727195" y="118.99999999999999" width="10.90909090909091" height="51.000000000000014" fill="#BF91F3" stroke="#8b6bb0" stroke-width="1" rx="1" ry="1"></rect><rect x="16.363636363636356" y="121.42857142857143" width="10.90909090909091" height="48.57142857142857" fill="#BF91F3" stroke="#8b6bb0" stroke-width="1" rx="1" ry="1"></rect><rect x="29.999999999999993" y="144.5" width="10.90909090909091" height="25.5" fill="#BF91F3" stroke="#8b6bb0" stroke-width="1" rx="1" ry="1"></rect><rect x="43.636363636363626" y="131.14285714285714" width="10.90909090909091" height="38.85714285714286" fill="#BF91F3" stroke="#8b6bb0" stroke-width="1" rx="1" ry="1"></rect><rect x="57.272727272727266" y="131.14285714285714" width="10.90909090909091" height="38.85714285714286" fill="#BF91F3" stroke="#8b6bb0" stroke-width="1" rx="1" ry="1"></rect><rect x="70.9090909090909" y="155.42857142857142" width="10.90909090909091" height="14.571428571428584" fill="#BF91F3" stroke="#8b6bb0" stroke-width="1" rx="1" ry="1"></rect><rect x="84.54545454545453" y="159.07142857142858" width="10.90909090909091" height="10.928571428571416" fill="#BF91F3" stroke="#8b6bb0" stroke-width="1" rx="1" ry="1"></rect><rect x="98.18181818181817" y="145.71428571428572" width="10.90909090909091" height="24.285714285714278" fill="#BF91F3" stroke="#8b6bb0" stroke-width="1" rx="1" ry="1"></rect><rect x="111.81818181818181" y="142.07142857142858" width="10.90909090909091" height="27.928571428571416" fill="#BF91F3" stroke="#8b6bb0" stroke-width="1" rx="1" ry="1"></rect><rect x="125.45454545454545" y="140.85714285714286" width="10.90909090909091" height="29.14285714285714" fill="#BF91F3" stroke="#8b6bb0" stroke-width="1" rx="1" ry="1"></rect><rect x="139.0909090909091" y="112.92857142857144" width="10.90909090909091" height="57.071428571428555" fill="#BF91F3" stroke="#8b6bb0" stroke-width="1" rx="1" ry="1"></rect><rect x="152.72727272727272" y="120.21428571428571" width="10.90909090909091" height="49.78571428571429" fill="#BF91F3" stroke="#8b6bb0" stroke-width="1" rx="1" ry="1"></rect><rect x="166.36363636363635" y="105.64285714285714" width="10.90909090909091" height="64.35714285714286" fill="#BF91F3" stroke="#8b6bb0" stroke-width="1" rx="1" ry="1"></rect><rect x="180" y="110.5" width="10.90909090909091" height="59.5" fill="#BF91F3" stroke="#8b6bb0" stroke-width="1" rx="1" ry="1"></rect><rect x="193.63636363636363" y="110.5" width="10.90909090909091" height="59.5" fill="#BF91F3" stroke="#8b6bb0" stroke-width="1" rx="1" ry="1"></rect><rect x="207.27272727272728" y="97.14285714285714" width="10.90909090909091" height="72.85714285714286" fill="#BF91F3" stroke="#8b6bb0" stroke-width="1" rx="1" ry="1"></rect><rect x="220.9090909090909" y="102" width="10.90909090909091" height="68" fill="#BF91F3" stroke="#8b6bb0" stroke-width="1" rx="1" ry="1"></rect><rect x="234.54545454545453" y="105.64285714285714" width="10.90909090909091" height="64.35714285714286" fill="#BF91F3" stroke="#8b6bb0" stroke-width="1" rx="1" ry="1"></rect><rect x="248.1818181818182" y="100.78571428571429" width="10.90909090909091" height="69.21428571428571" fill="#BF91F3" stroke="#8b6bb0" stroke-width="1" rx="1" ry="1"></rect><rect x="261.81818181818187" y="77.71428571428572" width="10.90909090909091" height="92.28571428571428" fill="#BF91F3" stroke="#8b6bb0" stroke-width="1" rx="1" ry="1"></rect><rect x="275.4545454545455" y="36.42857142857143" width="10.90909090909091" height="133.57142857142856" fill="#BF91F3" stroke="#8b6bb0" stroke-width="1" rx="1" ry="1"></rect><rect x="289.0909090909091" y="2.42857142857142" width="10.90909090909091" height="167.57142857142858" fill="#BF91F3" stroke="#8b6bb0" stroke-width="1" rx="1" ry="1"></rect><rect x="302.72727272727275" y="83.78571428571429" width="10.90909090909091" height="86.21428571428571" fill="#BF91F3" stroke="#8b6bb0" stroke-width="1" rx="1" ry="1"></rect><rect x="316.3636363636364" y="81.35714285714285" width="10.90909090909091" height="88.64285714285715" fill="#BF91F3" stroke="#8b6bb0" stroke-width="1" rx="1" ry="1"></rect><g transform="translate(0, 170)" fill="none" font-size="10" font-family="sans-serif" text-anchor="middle"><path class="domain" stroke="#00B4AB" d="M0.5,6V0.5H330.5V6"></path><g class="tick" opacity="1" transform="translate(8.181818181818175,0)"><line stroke="#00B4AB" y2="6"></line><text fill="#00B4AB" y="9" dy="0.71em" style="font-family: sans-serif; font-size: 11px;">0</text></g><g class="tick" opacity="1" transform="translate(49.09090909090908,0)"><line stroke="#00B4AB" y2="6"></line><text fill="#00B4AB" y="9" dy="0.71em" style="font-family: sans-serif; font-size: 11px;">3</text></g><g class="tick" opacity="1" transform="translate(89.99999999999999,0)"><line stroke="#00B4AB" y2="6"></line><text fill="#00B4AB" y="9" dy="0.71em" style="font-family: sans-serif; font-size: 11px;">6</text></g><g class="tick" opacity="1" transform="translate(130.9090909090909,0)"><line stroke="#00B4AB" y2="6"></line><text fill="#00B4AB" y="9" dy="0.71em" style="font-family: sans-serif; font-size: 11px;">9</text></g><g class="tick" opacity="1" transform="translate(171.8181818181818,0)"><line stroke="#00B4AB" y2="6"></line><text fill="#00B4AB" y="9" dy="0.71em" style="font-family: sans-serif; font-size: 11px;">12</text></g><g class="tick" opacity="1" transform="translate(212.72727272727275,0)"><line stroke="#00B4AB" y2="6"></line><text fill="#00B4AB" y="9" dy="0.71em" style="font-family: sans-serif; font-size: 11px;">15</text></g><g class="tick" opacity="1" transform="translate(253.63636363636365,0)"><line stroke="#00B4AB" y2="6"></line><text fill="#00B4AB" y="9" dy="0.71em" style="font-family: sans-serif; font-size: 11px;">18</text></g><g class="tick" opacity="1" transform="translate(294.54545454545456,0)"><line stroke="#00B4AB" y2="6"></line><text fill="#00B4AB" y="9" dy="0.71em" style="font-family: sans-serif; font-size: 11px;">21</text></g></g><g fill="none" font-size="10" font-family="sans-serif" text-anchor="end"><path class="domain" stroke="#00B4AB" d="M-6,170.5H0.5V0.5H-6"></path><g class="tick" opacity="1" transform="translate(0,170.5)"><line stroke="#00B4AB" x2="-6"></line><text fill="#00B4AB" x="-9" dy="0.32em" style="font-family: sans-serif; font-size: 11px;">0</text></g><g class="tick" opacity="1" transform="translate(0,146.21428571428572)"><line stroke="#00B4AB" x2="-6"></line><text fill="#00B4AB" x="-9" dy="0.32em" style="font-family: sans-serif; font-size: 11px;">20</text></g><g class="tick" opacity="1" transform="translate(0,121.92857142857143)"><line stroke="#00B4AB" x2="-6"></line><text fill="#00B4AB" x="-9" dy="0.32em" style="font-family: sans-serif; font-size: 11px;">40</text></g><g class="tick" opacity="1" transform="translate(0,97.64285714285714)"><line stroke="#00B4AB" x2="-6"></line><text fill="#00B4AB" x="-9" dy="0.32em" style="font-family: sans-serif; font-size: 11px;">60</text></g><g class="tick" opacity="1" transform="translate(0,73.35714285714286)"><line stroke="#00B4AB" x2="-6"></line><text fill="#00B4AB" x="-9" dy="0.32em" style="font-family: sans-serif; font-size: 11px;">80</text></g><g class="tick" opacity="1" transform="translate(0,49.07142857142857)"><line stroke="#00B4AB" x2="-6"></line><text fill="#00B4AB" x="-9" dy="0.32em" style="font-family: sans-serif; font-size: 11px;">100</text></g><g class="tick" opacity="1" transform="translate(0,24.785714285714295)"><line stroke="#00B4AB" x2="-6"></line><text fill="#00B4AB" x="-9" dy="0.32em" style="font-family: sans-serif; font-size: 11px;">120</text></g><g class="tick" opacity="1" transform="translate(0,0.5)"><line stroke="#00B4AB" x2="-6"></line><text fill="#00B4AB" x="-9" dy="0.32em" style="font-family: sans-serif; font-size: 11px;">140</text></g></g></g><text x="200" y="270" fill="#00B4AB" text-anchor="middle" style="font-family: sans-serif; font-size: 12px;">JST</text></svg>