<svg width="400" height="280" xmlns="http://www.w3.org/2000/svg"><rect width="400" height="280" fill="#1a1b26" rx="10" ry="10"></rect><text x="200" y="30" fill="#7aa2f7" text-anchor="middle" style="font-family: sans-serif; font-size: 18px; font-weight: 600;">Total Bytes</text><g transform="translate(20, 80)"><g transform="translate(0, 0)"><rect width="15" height="15" fill="#3178c6" stroke="#1e4d7a" stroke-width="1" rx="1" ry="1"></rect><text x="25" y="13" fill="#00B4AB" style="font-family: sans-serif; font-size: 14px;">TypeScript</text></g><g transform="translate(0, 30)"><rect width="15" height="15" fill="#00B4AB" stroke="#006b66" stroke-width="1" rx="1" ry="1"></rect><text x="25" y="13" fill="#00B4AB" style="font-family: sans-serif; font-size: 14px;">Dart</text></g><g transform="translate(0, 60)"><rect width="15" height="15" fill="#FFD43B" stroke="#b39429" stroke-width="1" rx="1" ry="1"></rect><text x="25" y="13" fill="#00B4AB" style="font-family: sans-serif; font-size: 14px;">Python</text></g><g transform="translate(0, 90)"><rect width="15" height="15" fill="#9B4F96" stroke="#5a2e5a" stroke-width="1" rx="1" ry="1"></rect><text x="25" y="13" fill="#00B4AB" style="font-family: sans-serif; font-size: 14px;">C#</text></g><g transform="translate(0, 120)"><rect width="15" height="15" fill="#f74c00" stroke="#8f2d00" stroke-width="1" rx="1" ry="1"></rect><text x="25" y="13" fill="#00B4AB" style="font-family: sans-serif; font-size: 14px;">Rust</text></g></g><g transform="translate(280, 155)"><path d="M1.487,-83.963A1,1,0,0,1,2.516,-84.963A85,85,0,0,1,18.509,82.96A1,1,0,0,1,17.309,82.173L11.265,50.726A1,1,0,0,1,12.011,49.565A51,51,0,0,0,2.439,-50.942A1,1,0,0,1,1.487,-51.941Z" fill="#3178c6" stroke="#1e4d7a" stroke-width="1"></path><path d="M14.389,82.734A1,1,0,0,1,13.567,83.91A85,85,0,0,1,-82.972,-18.458A1,1,0,0,1,-81.75,-19.21L-50.711,-11.334A1,1,0,0,1,-49.977,-10.165A51,51,0,0,0,7.221,50.486A1,1,0,0,1,8.344,51.287Z" fill="#00B4AB" stroke="#006b66" stroke-width="1"></path><path d="M-81.018,-22.092A1,1,0,0,1,-81.734,-23.336A85,85,0,0,1,-36.382,-76.82A1,1,0,0,1,-35.038,-76.317L-22.194,-46.983A1,1,0,0,1,-22.666,-45.686A51,51,0,0,0,-48.777,-14.893A1,1,0,0,1,-49.979,-14.216Z" fill="#FFD43B" stroke="#b39429" stroke-width="1"></path><path d="M-32.314,-77.51A1,1,0,0,1,-31.772,-78.839A85,85,0,0,1,-17.546,-83.169A1,1,0,0,1,-16.355,-82.368L-10.676,-50.853A1,1,0,0,1,-11.436,-49.701A51,51,0,0,0,-18.198,-47.643A1,1,0,0,1,-19.47,-48.176Z" fill="#9B4F96" stroke="#5a2e5a" stroke-width="1"></path><path d="M-13.429,-82.896A1,1,0,0,1,-12.593,-84.062A85,85,0,0,1,-2.516,-84.963A1,1,0,0,1,-1.487,-83.963L-1.487,-51.941A1,1,0,0,1,-2.439,-50.942A51,51,0,0,0,-6.635,-50.567A1,1,0,0,1,-7.749,-51.381Z" fill="#f74c00" stroke="#8f2d00" stroke-width="1"></path></g></svg>