<svg width="400" height="280" xmlns="http://www.w3.org/2000/svg"><rect width="400" height="280" fill="#1a1b26" rx="10" ry="10"></rect><text x="200" y="30" fill="#7aa2f7" text-anchor="middle" style="font-family: sans-serif; font-size: 18px; font-weight: 600;">Total Bytes</text><g transform="translate(20, 80)"><g transform="translate(0, 0)"><rect width="15" height="15" fill="#3178c6" stroke="#1e4d7a" stroke-width="1" rx="1" ry="1"></rect><text x="25" y="13" fill="#00B4AB" style="font-family: sans-serif; font-size: 14px;">TypeScript</text></g><g transform="translate(0, 30)"><rect width="15" height="15" fill="#00B4AB" stroke="#006b66" stroke-width="1" rx="1" ry="1"></rect><text x="25" y="13" fill="#00B4AB" style="font-family: sans-serif; font-size: 14px;">Dart</text></g><g transform="translate(0, 60)"><rect width="15" height="15" fill="#FFD43B" stroke="#b39429" stroke-width="1" rx="1" ry="1"></rect><text x="25" y="13" fill="#00B4AB" style="font-family: sans-serif; font-size: 14px;">Python</text></g><g transform="translate(0, 90)"><rect width="15" height="15" fill="#f74c00" stroke="#8f2d00" stroke-width="1" rx="1" ry="1"></rect><text x="25" y="13" fill="#00B4AB" style="font-family: sans-serif; font-size: 14px;">Rust</text></g><g transform="translate(0, 120)"><rect width="15" height="15" fill="#9B4F96" stroke="#5a2e5a" stroke-width="1" rx="1" ry="1"></rect><text x="25" y="13" fill="#00B4AB" style="font-family: sans-serif; font-size: 14px;">C#</text></g></g><g transform="translate(280, 155)"><path d="M1.487,-83.963A1,1,0,0,1,2.516,-84.963A85,85,0,1,1,-54.819,64.961A1,1,0,0,1,-54.919,63.529L-33.551,39.678A1,1,0,0,1,-32.175,39.57A51,51,0,1,0,2.439,-50.942A1,1,0,0,1,1.487,-51.941Z" fill="#3178c6" stroke="#1e4d7a" stroke-width="1"></path><path d="M-57.133,61.545A1,1,0,0,1,-58.567,61.603A85,85,0,0,1,-79.064,-31.206A1,1,0,0,1,-77.74,-31.758L-48.314,-19.125A1,1,0,0,1,-47.772,-17.856A51,51,0,0,0,-35.808,36.315A1,1,0,0,1,-35.766,37.694Z" fill="#00B4AB" stroke="#006b66" stroke-width="1"></path><path d="M-76.567,-34.49A1,1,0,0,1,-77.079,-35.831A85,85,0,0,1,-45.65,-71.701A1,1,0,0,1,-44.254,-71.369L-27.863,-43.86A1,1,0,0,1,-28.17,-42.514A51,51,0,0,0,-45.848,-22.338A1,1,0,0,1,-47.141,-21.857Z" fill="#FFD43B" stroke="#b39429" stroke-width="1"></path><path d="M-41.7,-72.892A1,1,0,0,1,-41.327,-74.277A85,85,0,0,1,-15.649,-83.547A1,1,0,0,1,-14.477,-82.719L-9.516,-51.083A1,1,0,0,1,-10.302,-49.949A51,51,0,0,0,-23.979,-45.011A1,1,0,0,1,-25.309,-45.382Z" fill="#f74c00" stroke="#8f2d00" stroke-width="1"></path><path d="M-11.539,-83.18A1,1,0,0,1,-10.677,-84.327A85,85,0,0,1,-2.516,-84.963A1,1,0,0,1,-1.487,-83.963L-1.487,-51.941A1,1,0,0,1,-2.439,-50.942A51,51,0,0,0,-5.483,-50.704A1,1,0,0,1,-6.578,-51.544Z" fill="#9B4F96" stroke="#5a2e5a" stroke-width="1"></path></g></svg>