<svg width="400" height="300" xmlns="http://www.w3.org/2000/svg"><rect width="400" height="300" fill="#0d1117" rx="10" ry="10"></rect><g transform="translate(240,150)"><path d="M0,-110A110,110,0,0,1,33.992,104.616L20.395,62.77A66,66,0,0,0,0,-66Z" fill="#3178c6"></path><path d="M33.992,104.616A110,110,0,0,1,-104.616,33.992L-62.77,20.395A66,66,0,0,0,20.395,62.77Z" fill="#3776ab"></path><path d="M-104.616,33.992A110,110,0,0,1,-64.656,-88.992L-38.794,-53.395A66,66,0,0,0,-62.77,20.395Z" fill="#ce422b"></path><path d="M-64.656,-88.992A110,110,0,0,1,-20.612,-108.052L-12.367,-64.831A66,66,0,0,0,-38.794,-53.395Z" fill="#239120"></path><path d="M-20.612,-108.052A110,110,0,0,1,0,-110L0,-66A66,66,0,0,0,-12.367,-64.831Z" fill="#384d54"></path></g><g transform="translate(20, 60)"><g transform="translate(0, 0)"><rect width="15" height="15" fill="#3178c6"></rect><text x="20" y="12" fill="#c9d1d9" style="font-family: sans-serif; font-size: 14px;">TypeScript</text></g><g transform="translate(0, 25)"><rect width="15" height="15" fill="#3776ab"></rect><text x="20" y="12" fill="#c9d1d9" style="font-family: sans-serif; font-size: 14px;">Python</text></g><g transform="translate(0, 50)"><rect width="15" height="15" fill="#ce422b"></rect><text x="20" y="12" fill="#c9d1d9" style="font-family: sans-serif; font-size: 14px;">Rust</text></g><g transform="translate(0, 75)"><rect width="15" height="15" fill="#239120"></rect><text x="20" y="12" fill="#c9d1d9" style="font-family: sans-serif; font-size: 14px;">C#</text></g><g transform="translate(0, 100)"><rect width="15" height="15" fill="#384d54"></rect><text x="20" y="12" fill="#c9d1d9" style="font-family: sans-serif; font-size: 14px;">Dockerfile</text></g></g><text x="20" y="30" fill="#58a6ff" style="font-family: sans-serif; font-size: 18px;">Top Languages by Repo</text></svg>