<svg width="400" height="280" xmlns="http://www.w3.org/2000/svg"><rect width="400" height="280" fill="#1a1b26" rx="10" ry="10"></rect><text x="200" y="30" fill="#7aa2f7" text-anchor="middle" style="font-family: sans-serif; font-size: 18px; font-weight: 600;">Total Bytes</text><g transform="translate(20, 80)"><g transform="translate(0, 0)"><rect width="15" height="15" fill="#3178c6" stroke="#1e4d7a" stroke-width="1" rx="1" ry="1"></rect><text x="25" y="13" fill="#00B4AB" style="font-family: sans-serif; font-size: 14px;">TypeScript</text></g><g transform="translate(0, 30)"><rect width="15" height="15" fill="#00B4AB" stroke="#006b66" stroke-width="1" rx="1" ry="1"></rect><text x="25" y="13" fill="#00B4AB" style="font-family: sans-serif; font-size: 14px;">Dart</text></g><g transform="translate(0, 60)"><rect width="15" height="15" fill="#FFD43B" stroke="#b39429" stroke-width="1" rx="1" ry="1"></rect><text x="25" y="13" fill="#00B4AB" style="font-family: sans-serif; font-size: 14px;">Python</text></g><g transform="translate(0, 90)"><rect width="15" height="15" fill="#9B4F96" stroke="#5a2e5a" stroke-width="1" rx="1" ry="1"></rect><text x="25" y="13" fill="#00B4AB" style="font-family: sans-serif; font-size: 14px;">C#</text></g><g transform="translate(0, 120)"><rect width="15" height="15" fill="#f74c00" stroke="#8f2d00" stroke-width="1" rx="1" ry="1"></rect><text x="25" y="13" fill="#00B4AB" style="font-family: sans-serif; font-size: 14px;">Rust</text></g></g><g transform="translate(280, 155)"><path d="M1.487,-83.963A1,1,0,0,1,2.516,-84.963A85,85,0,0,1,9.078,84.514A1,1,0,0,1,7.974,83.597L5.498,51.67A1,1,0,0,1,6.37,50.601A51,51,0,0,0,2.439,-50.942A1,1,0,0,1,1.487,-51.941Z" fill="#3178c6" stroke="#1e4d7a" stroke-width="1"></path><path d="M5.009,83.827A1,1,0,0,1,4.06,84.903A85,85,0,0,1,-82.274,-21.352A1,1,0,0,1,-81.027,-22.061L-50.283,-13.103A1,1,0,0,1,-49.59,-11.909A51,51,0,0,0,1.507,50.978A1,1,0,0,1,2.534,51.9Z" fill="#00B4AB" stroke="#006b66" stroke-width="1"></path><path d="M-80.195,-24.916A1,1,0,0,1,-80.866,-26.184A85,85,0,0,1,-35.318,-77.315A1,1,0,0,1,-33.981,-76.794L-21.544,-47.285A1,1,0,0,1,-22.033,-45.995A51,51,0,0,0,-48.225,-16.593A1,1,0,0,1,-49.451,-15.958Z" fill="#FFD43B" stroke="#b39429" stroke-width="1"></path><path d="M-31.241,-77.949A1,1,0,0,1,-30.68,-79.27A85,85,0,0,1,-17.063,-83.27A1,1,0,0,1,-15.877,-82.462L-10.38,-50.914A1,1,0,0,1,-11.147,-49.767A51,51,0,0,0,-17.538,-47.89A1,1,0,0,1,-18.803,-48.44Z" fill="#9B4F96" stroke="#5a2e5a" stroke-width="1"></path><path d="M-12.947,-82.972A1,1,0,0,1,-12.105,-84.134A85,85,0,0,1,-2.516,-84.963A1,1,0,0,1,-1.487,-83.963L-1.487,-51.941A1,1,0,0,1,-2.439,-50.942A51,51,0,0,0,-6.341,-50.604A1,1,0,0,1,-7.451,-51.425Z" fill="#f74c00" stroke="#8f2d00" stroke-width="1"></path></g></svg>