<svg width="400" height="280" xmlns="http://www.w3.org/2000/svg"><rect width="400" height="280" fill="#1a1b26" rx="10" ry="10"></rect><text x="200" y="30" fill="#7aa2f7" text-anchor="middle" style="font-family: sans-serif; font-size: 18px; font-weight: 600;">Total Bytes</text><g transform="translate(20, 80)"><g transform="translate(0, 0)"><rect width="15" height="15" fill="#3178c6" stroke="#1e4d7a" stroke-width="1" rx="1" ry="1"></rect><text x="25" y="13" fill="#00B4AB" style="font-family: sans-serif; font-size: 14px;">TypeScript</text></g><g transform="translate(0, 30)"><rect width="15" height="15" fill="#00B4AB" stroke="#006b66" stroke-width="1" rx="1" ry="1"></rect><text x="25" y="13" fill="#00B4AB" style="font-family: sans-serif; font-size: 14px;">Dart</text></g><g transform="translate(0, 60)"><rect width="15" height="15" fill="#FFD43B" stroke="#b39429" stroke-width="1" rx="1" ry="1"></rect><text x="25" y="13" fill="#00B4AB" style="font-family: sans-serif; font-size: 14px;">Python</text></g><g transform="translate(0, 90)"><rect width="15" height="15" fill="#9B4F96" stroke="#5a2e5a" stroke-width="1" rx="1" ry="1"></rect><text x="25" y="13" fill="#00B4AB" style="font-family: sans-serif; font-size: 14px;">C#</text></g><g transform="translate(0, 120)"><rect width="15" height="15" fill="#f74c00" stroke="#8f2d00" stroke-width="1" rx="1" ry="1"></rect><text x="25" y="13" fill="#00B4AB" style="font-family: sans-serif; font-size: 14px;">Rust</text></g></g><g transform="translate(280, 155)"><path d="M1.487,-83.963A1,1,0,0,1,2.516,-84.963A85,85,0,0,1,12.664,84.051A1,1,0,0,1,11.522,83.182L7.69,51.39A1,1,0,0,1,8.516,50.284A51,51,0,0,0,2.439,-50.942A1,1,0,0,1,1.487,-51.941Z" fill="#3178c6" stroke="#1e4d7a" stroke-width="1"></path><path d="M8.569,83.538A1,1,0,0,1,7.667,84.654A85,85,0,0,1,-82.446,-20.679A1,1,0,0,1,-81.204,-21.398L-50.388,-12.691A1,1,0,0,1,-49.686,-11.503A51,51,0,0,0,3.673,50.868A1,1,0,0,1,4.738,51.745Z" fill="#00B4AB" stroke="#006b66" stroke-width="1"></path><path d="M-80.396,-24.26A1,1,0,0,1,-81.078,-25.522A85,85,0,0,1,-35.791,-77.097A1,1,0,0,1,-34.451,-76.584L-21.833,-47.152A1,1,0,0,1,-22.314,-45.859A51,51,0,0,0,-48.359,-16.198A1,1,0,0,1,-49.58,-15.553Z" fill="#FFD43B" stroke="#b39429" stroke-width="1"></path><path d="M-31.718,-77.756A1,1,0,0,1,-31.165,-79.081A85,85,0,0,1,-17.277,-83.226A1,1,0,0,1,-16.089,-82.421L-10.511,-50.888A1,1,0,0,1,-11.275,-49.738A51,51,0,0,0,-17.831,-47.781A1,1,0,0,1,-19.1,-48.324Z" fill="#9B4F96" stroke="#5a2e5a" stroke-width="1"></path><path d="M-13.161,-82.939A1,1,0,0,1,-12.321,-84.102A85,85,0,0,1,-2.516,-84.963A1,1,0,0,1,-1.487,-83.963L-1.487,-51.941A1,1,0,0,1,-2.439,-50.942A51,51,0,0,0,-6.471,-50.588A1,1,0,0,1,-7.583,-51.405Z" fill="#f74c00" stroke="#8f2d00" stroke-width="1"></path></g></svg>