<svg width="400" height="280" xmlns="http://www.w3.org/2000/svg"><rect width="400" height="280" fill="#1a1b26" rx="10" ry="10"></rect><text x="200" y="30" fill="#7aa2f7" text-anchor="middle" style="font-family: sans-serif; font-size: 18px; font-weight: 600;">Repository Count</text><g transform="translate(20, 80)"><g transform="translate(0, 0)"><rect width="15" height="15" fill="#3178c6" stroke="#1e4d7a" stroke-width="1" rx="1" ry="1"></rect><text x="25" y="13" fill="#00B4AB" style="font-family: sans-serif; font-size: 14px;">TypeScript</text></g><g transform="translate(0, 30)"><rect width="15" height="15" fill="#FFD43B" stroke="#b39429" stroke-width="1" rx="1" ry="1"></rect><text x="25" y="13" fill="#00B4AB" style="font-family: sans-serif; font-size: 14px;">Python</text></g><g transform="translate(0, 60)"><rect width="15" height="15" fill="#f74c00" stroke="#8f2d00" stroke-width="1" rx="1" ry="1"></rect><text x="25" y="13" fill="#00B4AB" style="font-family: sans-serif; font-size: 14px;">Rust</text></g><g transform="translate(0, 90)"><rect width="15" height="15" fill="#9B4F96" stroke="#5a2e5a" stroke-width="1" rx="1" ry="1"></rect><text x="25" y="13" fill="#00B4AB" style="font-family: sans-serif; font-size: 14px;">C#</text></g><g transform="translate(0, 120)"><rect width="15" height="15" fill="#00B4AB" stroke="#006b66" stroke-width="1" rx="1" ry="1"></rect><text x="25" y="13" fill="#00B4AB" style="font-family: sans-serif; font-size: 14px;">Dart</text></g></g><g transform="translate(280, 155)"><path d="M1.487,-83.963A1,1,0,0,1,2.516,-84.963A85,85,0,1,1,-2.646,84.959A1,1,0,0,1,-3.613,83.899L-1.669,51.935A1,1,0,0,1,-0.658,50.996A51,51,0,0,0,2.439,-50.942A1,1,0,0,1,1.487,-51.941Z" fill="#3178c6" stroke="#1e4d7a" stroke-width="1"></path><path d="M-6.581,83.718A1,1,0,0,1,-7.67,84.653A85,85,0,0,1,-83.592,-15.406A1,1,0,0,1,-82.399,-16.202L-51.092,-9.468A1,1,0,0,1,-50.316,-8.328A51,51,0,0,0,-5.527,50.7A1,1,0,0,1,-4.637,51.754Z" fill="#FFD43B" stroke="#b39429" stroke-width="1"></path><path d="M-81.773,-19.109A1,1,0,0,1,-82.534,-20.326A85,85,0,0,1,-56.308,-63.674A1,1,0,0,1,-54.877,-63.565L-34.383,-38.959A1,1,0,0,1,-34.476,-37.582A51,51,0,0,0,-49.29,-13.096A1,1,0,0,1,-50.467,-12.376Z" fill="#f74c00" stroke="#8f2d00" stroke-width="1"></path><path d="M-52.592,-65.468A1,1,0,0,1,-52.441,-66.895A85,85,0,0,1,-22.762,-81.896A1,1,0,0,1,-21.523,-81.171L-13.865,-50.078A1,1,0,0,1,-14.551,-48.88A51,51,0,0,0,-30.727,-40.704A1,1,0,0,1,-32.098,-40.862Z" fill="#9B4F96" stroke="#5a2e5a" stroke-width="1"></path><path d="M-18.636,-81.882A1,1,0,0,1,-17.875,-83.099A85,85,0,0,1,-2.516,-84.963A1,1,0,0,1,-1.487,-83.963L-1.487,-51.941A1,1,0,0,1,-2.439,-50.942A51,51,0,0,0,-9.814,-50.047A1,1,0,0,1,-10.978,-50.789Z" fill="#00B4AB" stroke="#006b66" stroke-width="1"></path></g></svg>