<svg width="400" height="280" xmlns="http://www.w3.org/2000/svg"><rect width="400" height="280" fill="#1a1b26" rx="10" ry="10"></rect><text x="200" y="30" fill="#7aa2f7" text-anchor="middle" style="font-family: sans-serif; font-size: 18px; font-weight: 600;">Total Bytes</text><g transform="translate(20, 80)"><g transform="translate(0, 0)"><rect width="15" height="15" fill="#3178c6" stroke="#1e4d7a" stroke-width="1" rx="1" ry="1"></rect><text x="25" y="13" fill="#00B4AB" style="font-family: sans-serif; font-size: 14px;">TypeScript</text></g><g transform="translate(0, 30)"><rect width="15" height="15" fill="#00B4AB" stroke="#006b66" stroke-width="1" rx="1" ry="1"></rect><text x="25" y="13" fill="#00B4AB" style="font-family: sans-serif; font-size: 14px;">Dart</text></g><g transform="translate(0, 60)"><rect width="15" height="15" fill="#FFD43B" stroke="#b39429" stroke-width="1" rx="1" ry="1"></rect><text x="25" y="13" fill="#00B4AB" style="font-family: sans-serif; font-size: 14px;">Python</text></g><g transform="translate(0, 90)"><rect width="15" height="15" fill="#9B4F96" stroke="#5a2e5a" stroke-width="1" rx="1" ry="1"></rect><text x="25" y="13" fill="#00B4AB" style="font-family: sans-serif; font-size: 14px;">C#</text></g><g transform="translate(0, 120)"><rect width="15" height="15" fill="#f74c00" stroke="#8f2d00" stroke-width="1" rx="1" ry="1"></rect><text x="25" y="13" fill="#00B4AB" style="font-family: sans-serif; font-size: 14px;">Rust</text></g></g><g transform="translate(280, 155)"><path d="M1.487,-83.963A1,1,0,0,1,2.516,-84.963A85,85,0,1,1,-16.666,83.35A1,1,0,0,1,-17.444,82.145L-10.239,50.943A1,1,0,0,1,-9.086,50.184A51,51,0,1,0,2.439,-50.942A1,1,0,0,1,1.487,-51.941Z" fill="#3178c6" stroke="#1e4d7a" stroke-width="1"></path><path d="M-20.342,81.475A1,1,0,0,1,-21.57,82.218A85,85,0,0,1,-80.034,-28.628A1,1,0,0,1,-78.728,-29.223L-48.909,-17.549A1,1,0,0,1,-48.326,-16.299A51,51,0,0,0,-13.839,49.086A1,1,0,0,1,-13.136,50.274Z" fill="#00B4AB" stroke="#006b66" stroke-width="1"></path><path d="M-77.644,-31.992A1,1,0,0,1,-78.199,-33.315A85,85,0,0,1,-32.334,-78.61A1,1,0,0,1,-31.018,-78.038L-19.719,-48.075A1,1,0,0,1,-20.257,-46.804A51,51,0,0,0,-46.547,-20.841A1,1,0,0,1,-47.825,-20.318Z" fill="#FFD43B" stroke="#b39429" stroke-width="1"></path><path d="M-28.236,-79.087A1,1,0,0,1,-27.625,-80.386A85,85,0,0,1,-15.721,-83.534A1,1,0,0,1,-14.548,-82.707L-9.56,-51.075A1,1,0,0,1,-10.345,-49.94A51,51,0,0,0,-15.693,-48.526A1,1,0,0,1,-16.936,-49.124Z" fill="#9B4F96" stroke="#5a2e5a" stroke-width="1"></path><path d="M-11.61,-83.17A1,1,0,0,1,-10.749,-84.318A85,85,0,0,1,-2.516,-84.963A1,1,0,0,1,-1.487,-83.963L-1.487,-51.941A1,1,0,0,1,-2.439,-50.942A51,51,0,0,0,-5.526,-50.7A1,1,0,0,1,-6.622,-51.538Z" fill="#f74c00" stroke="#8f2d00" stroke-width="1"></path></g></svg>