<svg width="400" height="280" xmlns="http://www.w3.org/2000/svg"><rect width="400" height="280" fill="#1a1b26" rx="10" ry="10"></rect><text x="200" y="30" fill="#7aa2f7" text-anchor="middle" style="font-family: sans-serif; font-size: 18px; font-weight: 600;">Repository Count</text><g transform="translate(20, 80)"><g transform="translate(0, 0)"><rect width="15" height="15" fill="#3178c6" stroke="#1e4d7a" stroke-width="1" rx="1" ry="1"></rect><text x="25" y="13" fill="#00B4AB" style="font-family: sans-serif; font-size: 14px;">TypeScript</text></g><g transform="translate(0, 30)"><rect width="15" height="15" fill="#FFD43B" stroke="#b39429" stroke-width="1" rx="1" ry="1"></rect><text x="25" y="13" fill="#00B4AB" style="font-family: sans-serif; font-size: 14px;">Python</text></g><g transform="translate(0, 60)"><rect width="15" height="15" fill="#f74c00" stroke="#8f2d00" stroke-width="1" rx="1" ry="1"></rect><text x="25" y="13" fill="#00B4AB" style="font-family: sans-serif; font-size: 14px;">Rust</text></g><g transform="translate(0, 90)"><rect width="15" height="15" fill="#9B4F96" stroke="#5a2e5a" stroke-width="1" rx="1" ry="1"></rect><text x="25" y="13" fill="#00B4AB" style="font-family: sans-serif; font-size: 14px;">C#</text></g><g transform="translate(0, 120)"><rect width="15" height="15" fill="#00B4AB" stroke="#006b66" stroke-width="1" rx="1" ry="1"></rect><text x="25" y="13" fill="#00B4AB" style="font-family: sans-serif; font-size: 14px;">Dart</text></g></g><g transform="translate(280, 155)"><path d="M1.487,-83.963A1,1,0,0,1,2.516,-84.963A85,85,0,1,1,-11.005,84.285A1,1,0,0,1,-11.862,83.134L-6.778,51.518A1,1,0,0,1,-5.68,50.683A51,51,0,1,0,2.439,-50.942A1,1,0,0,1,1.487,-51.941Z" fill="#3178c6" stroke="#1e4d7a" stroke-width="1"></path><path d="M-14.798,82.662A1,1,0,0,1,-15.974,83.486A85,85,0,0,1,-82.866,-18.927A1,1,0,0,1,-81.64,-19.672L-50.646,-11.62A1,1,0,0,1,-49.918,-10.448A51,51,0,0,0,-10.496,49.908A1,1,0,0,1,-9.714,51.046Z" fill="#FFD43B" stroke="#b39429" stroke-width="1"></path><path d="M-80.892,-22.55A1,1,0,0,1,-81.601,-23.798A85,85,0,0,1,-54.949,-64.851A1,1,0,0,1,-53.52,-64.712L-33.552,-39.678A1,1,0,0,1,-33.673,-38.303A51,51,0,0,0,-48.692,-15.169A1,1,0,0,1,-49.898,-14.499Z" fill="#f74c00" stroke="#8f2d00" stroke-width="1"></path><path d="M-51.196,-66.566A1,1,0,0,1,-51.014,-67.989A85,85,0,0,1,-22.184,-82.054A1,1,0,0,1,-20.951,-81.321L-13.512,-50.174A1,1,0,0,1,-14.206,-48.982A51,51,0,0,0,-29.86,-41.345A1,1,0,0,1,-31.227,-41.532Z" fill="#9B4F96" stroke="#5a2e5a" stroke-width="1"></path><path d="M-18.058,-82.012A1,1,0,0,1,-17.289,-83.223A85,85,0,0,1,-2.516,-84.963A1,1,0,0,1,-1.487,-83.963L-1.487,-51.941A1,1,0,0,1,-2.439,-50.942A51,51,0,0,0,-9.461,-50.115A1,1,0,0,1,-10.62,-50.865Z" fill="#00B4AB" stroke="#006b66" stroke-width="1"></path></g></svg>