<svg width="400" height="280" xmlns="http://www.w3.org/2000/svg"><rect width="400" height="280" fill="#1a1b26" rx="10" ry="10"></rect><text x="200" y="30" fill="#7aa2f7" text-anchor="middle" style="font-family: sans-serif; font-size: 18px; font-weight: 600;">Total Bytes</text><g transform="translate(20, 80)"><g transform="translate(0, 0)"><rect width="15" height="15" fill="#3178c6" stroke="#1e4d7a" stroke-width="1" rx="1" ry="1"></rect><text x="25" y="13" fill="#00B4AB" style="font-family: sans-serif; font-size: 14px;">TypeScript</text></g><g transform="translate(0, 30)"><rect width="15" height="15" fill="#00B4AB" stroke="#006b66" stroke-width="1" rx="1" ry="1"></rect><text x="25" y="13" fill="#00B4AB" style="font-family: sans-serif; font-size: 14px;">Dart</text></g><g transform="translate(0, 60)"><rect width="15" height="15" fill="#FFD43B" stroke="#b39429" stroke-width="1" rx="1" ry="1"></rect><text x="25" y="13" fill="#00B4AB" style="font-family: sans-serif; font-size: 14px;">Python</text></g><g transform="translate(0, 90)"><rect width="15" height="15" fill="#9B4F96" stroke="#5a2e5a" stroke-width="1" rx="1" ry="1"></rect><text x="25" y="13" fill="#00B4AB" style="font-family: sans-serif; font-size: 14px;">C#</text></g><g transform="translate(0, 120)"><rect width="15" height="15" fill="#f74c00" stroke="#8f2d00" stroke-width="1" rx="1" ry="1"></rect><text x="25" y="13" fill="#00B4AB" style="font-family: sans-serif; font-size: 14px;">Rust</text></g></g><g transform="translate(280, 155)"><path d="M1.487,-83.963A1,1,0,0,1,2.516,-84.963A85,85,0,1,1,-22.26,82.033A1,1,0,0,1,-22.955,80.778L-13.658,50.135A1,1,0,0,1,-12.457,49.455A51,51,0,1,0,2.439,-50.942A1,1,0,0,1,1.487,-51.941Z" fill="#3178c6" stroke="#1e4d7a" stroke-width="1"></path><path d="M-25.801,79.915A1,1,0,0,1,-27.076,80.572A85,85,0,0,1,-79.238,-30.763A1,1,0,0,1,-77.916,-31.322L-48.421,-18.854A1,1,0,0,1,-47.871,-17.588A51,51,0,0,0,-17.125,48.039A1,1,0,0,1,-16.503,49.271Z" fill="#00B4AB" stroke="#006b66" stroke-width="1"></path><path d="M-76.759,-34.061A1,1,0,0,1,-77.278,-35.399A85,85,0,0,1,-31.761,-78.843A1,1,0,0,1,-30.45,-78.261L-19.368,-48.217A1,1,0,0,1,-19.916,-46.95A51,51,0,0,0,-45.972,-22.081A1,1,0,0,1,-47.263,-21.593Z" fill="#FFD43B" stroke="#b39429" stroke-width="1"></path><path d="M-27.66,-79.29A1,1,0,0,1,-27.039,-80.585A85,85,0,0,1,-15.465,-83.581A1,1,0,0,1,-14.295,-82.751L-9.403,-51.104A1,1,0,0,1,-10.192,-49.971A51,51,0,0,0,-15.339,-48.638A1,1,0,0,1,-16.578,-49.246Z" fill="#9B4F96" stroke="#5a2e5a" stroke-width="1"></path><path d="M-11.356,-83.205A1,1,0,0,1,-10.491,-84.35A85,85,0,0,1,-2.516,-84.963A1,1,0,0,1,-1.487,-83.963L-1.487,-51.941A1,1,0,0,1,-2.439,-50.942A51,51,0,0,0,-5.371,-50.716A1,1,0,0,1,-6.465,-51.558Z" fill="#f74c00" stroke="#8f2d00" stroke-width="1"></path></g></svg>