<svg width="400" height="280" xmlns="http://www.w3.org/2000/svg"><rect width="400" height="280" fill="#1a1b26" rx="10" ry="10"></rect><text x="200" y="30" fill="#7aa2f7" text-anchor="middle" style="font-family: sans-serif; font-size: 18px; font-weight: 600;">Total Bytes</text><g transform="translate(20, 80)"><g transform="translate(0, 0)"><rect width="15" height="15" fill="#3178c6" stroke="#1e4d7a" stroke-width="1" rx="1" ry="1"></rect><text x="25" y="13" fill="#00B4AB" style="font-family: sans-serif; font-size: 14px;">TypeScript</text></g><g transform="translate(0, 30)"><rect width="15" height="15" fill="#00B4AB" stroke="#006b66" stroke-width="1" rx="1" ry="1"></rect><text x="25" y="13" fill="#00B4AB" style="font-family: sans-serif; font-size: 14px;">Dart</text></g><g transform="translate(0, 60)"><rect width="15" height="15" fill="#FFD43B" stroke="#b39429" stroke-width="1" rx="1" ry="1"></rect><text x="25" y="13" fill="#00B4AB" style="font-family: sans-serif; font-size: 14px;">Python</text></g><g transform="translate(0, 90)"><rect width="15" height="15" fill="#9B4F96" stroke="#5a2e5a" stroke-width="1" rx="1" ry="1"></rect><text x="25" y="13" fill="#00B4AB" style="font-family: sans-serif; font-size: 14px;">C#</text></g><g transform="translate(0, 120)"><rect width="15" height="15" fill="#f74c00" stroke="#8f2d00" stroke-width="1" rx="1" ry="1"></rect><text x="25" y="13" fill="#00B4AB" style="font-family: sans-serif; font-size: 14px;">Rust</text></g></g><g transform="translate(280, 155)"><path d="M1.487,-83.963A1,1,0,0,1,2.516,-84.963A85,85,0,1,1,-25.649,81.038A1,1,0,0,1,-26.292,79.754L-15.729,49.524A1,1,0,0,1,-14.501,48.895A51,51,0,1,0,2.439,-50.942A1,1,0,0,1,1.487,-51.941Z" fill="#3178c6" stroke="#1e4d7a" stroke-width="1"></path><path d="M-29.099,78.774A1,1,0,0,1,-30.401,79.378A85,85,0,0,1,-78.986,-31.404A1,1,0,0,1,-77.66,-31.952L-48.266,-19.246A1,1,0,0,1,-47.727,-17.975A51,51,0,0,0,-19.106,47.286A1,1,0,0,1,-18.536,48.543Z" fill="#00B4AB" stroke="#006b66" stroke-width="1"></path><path d="M-76.48,-34.682A1,1,0,0,1,-76.989,-36.024A85,85,0,0,1,-31.291,-79.031A1,1,0,0,1,-29.982,-78.442L-19.081,-48.332A1,1,0,0,1,-19.636,-47.068A51,51,0,0,0,-45.792,-22.453A1,1,0,0,1,-47.086,-21.975Z" fill="#FFD43B" stroke="#b39429" stroke-width="1"></path><path d="M-27.186,-79.454A1,1,0,0,1,-26.559,-80.744A85,85,0,0,1,-15.255,-83.62A1,1,0,0,1,-14.087,-82.786L-9.275,-51.127A1,1,0,0,1,-10.066,-49.997A51,51,0,0,0,-15.049,-48.729A1,1,0,0,1,-16.285,-49.344Z" fill="#9B4F96" stroke="#5a2e5a" stroke-width="1"></path><path d="M-11.147,-83.233A1,1,0,0,1,-10.28,-84.376A85,85,0,0,1,-2.516,-84.963A1,1,0,0,1,-1.487,-83.963L-1.487,-51.941A1,1,0,0,1,-2.439,-50.942A51,51,0,0,0,-5.244,-50.73A1,1,0,0,1,-6.335,-51.574Z" fill="#f74c00" stroke="#8f2d00" stroke-width="1"></path></g></svg>