<svg width="400" height="280" xmlns="http://www.w3.org/2000/svg"><rect width="400" height="280" fill="#1a1b26" rx="10" ry="10"></rect><text x="200" y="30" fill="#7aa2f7" text-anchor="middle" style="font-family: sans-serif; font-size: 18px; font-weight: 600;">Total Bytes</text><g transform="translate(20, 80)"><g transform="translate(0, 0)"><rect width="15" height="15" fill="#3178c6" stroke="#1e4d7a" stroke-width="1" rx="1" ry="1"></rect><text x="25" y="13" fill="#00B4AB" style="font-family: sans-serif; font-size: 14px;">TypeScript</text></g><g transform="translate(0, 30)"><rect width="15" height="15" fill="#00B4AB" stroke="#006b66" stroke-width="1" rx="1" ry="1"></rect><text x="25" y="13" fill="#00B4AB" style="font-family: sans-serif; font-size: 14px;">Dart</text></g><g transform="translate(0, 60)"><rect width="15" height="15" fill="#FFD43B" stroke="#b39429" stroke-width="1" rx="1" ry="1"></rect><text x="25" y="13" fill="#00B4AB" style="font-family: sans-serif; font-size: 14px;">Python</text></g><g transform="translate(0, 90)"><rect width="15" height="15" fill="#f74c00" stroke="#8f2d00" stroke-width="1" rx="1" ry="1"></rect><text x="25" y="13" fill="#00B4AB" style="font-family: sans-serif; font-size: 14px;">Rust</text></g><g transform="translate(0, 120)"><rect width="15" height="15" fill="#9B4F96" stroke="#5a2e5a" stroke-width="1" rx="1" ry="1"></rect><text x="25" y="13" fill="#00B4AB" style="font-family: sans-serif; font-size: 14px;">C#</text></g></g><g transform="translate(280, 155)"><path d="M1.487,-83.963A1,1,0,0,1,2.516,-84.963A85,85,0,1,1,-54.928,64.868A1,1,0,0,1,-55.025,63.437L-33.618,39.622A1,1,0,0,1,-32.242,39.515A51,51,0,1,0,2.439,-50.942A1,1,0,0,1,1.487,-51.941Z" fill="#3178c6" stroke="#1e4d7a" stroke-width="1"></path><path d="M-57.237,61.449A1,1,0,0,1,-58.671,61.504A85,85,0,0,1,-79.135,-31.026A1,1,0,0,1,-77.812,-31.581L-48.358,-19.015A1,1,0,0,1,-47.813,-17.747A51,51,0,0,0,-35.869,36.254A1,1,0,0,1,-35.829,37.634Z" fill="#00B4AB" stroke="#006b66" stroke-width="1"></path><path d="M-76.645,-34.316A1,1,0,0,1,-77.16,-35.655A85,85,0,0,1,-45.952,-71.508A1,1,0,0,1,-44.555,-71.182L-28.048,-43.742A1,1,0,0,1,-28.349,-42.395A51,51,0,0,0,-45.898,-22.234A1,1,0,0,1,-47.191,-21.75Z" fill="#FFD43B" stroke="#b39429" stroke-width="1"></path><path d="M-42.007,-72.715A1,1,0,0,1,-41.64,-74.102A85,85,0,0,1,-15.615,-83.553A1,1,0,0,1,-14.443,-82.725L-9.495,-51.087A1,1,0,0,1,-10.281,-49.953A51,51,0,0,0,-24.169,-44.909A1,1,0,0,1,-25.5,-45.275Z" fill="#f74c00" stroke="#8f2d00" stroke-width="1"></path><path d="M-11.505,-83.184A1,1,0,0,1,-10.643,-84.331A85,85,0,0,1,-2.516,-84.963A1,1,0,0,1,-1.487,-83.963L-1.487,-51.941A1,1,0,0,1,-2.439,-50.942A51,51,0,0,0,-5.462,-50.707A1,1,0,0,1,-6.557,-51.546Z" fill="#9B4F96" stroke="#5a2e5a" stroke-width="1"></path></g></svg>