<svg width="400" height="280" xmlns="http://www.w3.org/2000/svg"><rect width="400" height="280" fill="#1a1b26" rx="10" ry="10"></rect><text x="200" y="30" fill="#7aa2f7" text-anchor="middle" style="font-family: sans-serif; font-size: 18px; font-weight: 600;">Repository Count</text><g transform="translate(20, 80)"><g transform="translate(0, 0)"><rect width="15" height="15" fill="#3178c6" stroke="#1e4d7a" stroke-width="1" rx="1" ry="1"></rect><text x="25" y="13" fill="#00B4AB" style="font-family: sans-serif; font-size: 14px;">TypeScript</text></g><g transform="translate(0, 30)"><rect width="15" height="15" fill="#FFD43B" stroke="#b39429" stroke-width="1" rx="1" ry="1"></rect><text x="25" y="13" fill="#00B4AB" style="font-family: sans-serif; font-size: 14px;">Python</text></g><g transform="translate(0, 60)"><rect width="15" height="15" fill="#f74c00" stroke="#8f2d00" stroke-width="1" rx="1" ry="1"></rect><text x="25" y="13" fill="#00B4AB" style="font-family: sans-serif; font-size: 14px;">Rust</text></g><g transform="translate(0, 90)"><rect width="15" height="15" fill="#9B4F96" stroke="#5a2e5a" stroke-width="1" rx="1" ry="1"></rect><text x="25" y="13" fill="#00B4AB" style="font-family: sans-serif; font-size: 14px;">C#</text></g><g transform="translate(0, 120)"><rect width="15" height="15" fill="#00B4AB" stroke="#006b66" stroke-width="1" rx="1" ry="1"></rect><text x="25" y="13" fill="#00B4AB" style="font-family: sans-serif; font-size: 14px;">Dart</text></g></g><g transform="translate(280, 155)"><path d="M1.487,-83.963A1,1,0,0,1,2.516,-84.963A85,85,0,1,1,-17.234,83.234A1,1,0,0,1,-18.004,82.024L-10.586,50.872A1,1,0,0,1,-9.428,50.121A51,51,0,1,0,2.439,-50.942A1,1,0,0,1,1.487,-51.941Z" fill="#3178c6" stroke="#1e4d7a" stroke-width="1"></path><path d="M-20.897,81.335A1,1,0,0,1,-22.13,82.069A85,85,0,0,1,-84.043,-12.72A1,1,0,0,1,-82.875,-13.554L-51.369,-7.827A1,1,0,0,1,-50.556,-6.711A51,51,0,0,0,-14.174,48.991A1,1,0,0,1,-13.479,50.183Z" fill="#FFD43B" stroke="#b39429" stroke-width="1"></path><path d="M-82.343,-16.48A1,1,0,0,1,-83.143,-17.671A85,85,0,0,1,-51.249,-67.812A1,1,0,0,1,-49.831,-67.594L-31.288,-41.486A1,1,0,0,1,-31.486,-40.12A51,51,0,0,0,-49.684,-11.511A1,1,0,0,1,-50.837,-10.752Z" fill="#f74c00" stroke="#8f2d00" stroke-width="1"></path><path d="M-47.407,-69.315A1,1,0,0,1,-47.146,-70.727A85,85,0,0,1,-20.656,-82.452A1,1,0,0,1,-19.436,-81.696L-12.577,-50.417A1,1,0,0,1,-13.293,-49.237A51,51,0,0,0,-27.509,-42.945A1,1,0,0,1,-28.864,-43.208Z" fill="#9B4F96" stroke="#5a2e5a" stroke-width="1"></path><path d="M-16.531,-82.333A1,1,0,0,1,-15.739,-83.53A85,85,0,0,1,-2.516,-84.963A1,1,0,0,1,-1.487,-83.963L-1.487,-51.941A1,1,0,0,1,-2.439,-50.942A51,51,0,0,0,-8.528,-50.282A1,1,0,0,1,-9.672,-51.054Z" fill="#00B4AB" stroke="#006b66" stroke-width="1"></path></g></svg>