<svg width="400" height="280" xmlns="http://www.w3.org/2000/svg"><rect width="400" height="280" fill="#1a1b26" rx="10" ry="10"></rect><text x="200" y="30" fill="#7aa2f7" text-anchor="middle" style="font-family: sans-serif; font-size: 18px; font-weight: 600;">Total Bytes</text><g transform="translate(20, 80)"><g transform="translate(0, 0)"><rect width="15" height="15" fill="#3178c6" stroke="#1e4d7a" stroke-width="1" rx="1" ry="1"></rect><text x="25" y="13" fill="#00B4AB" style="font-family: sans-serif; font-size: 14px;">TypeScript</text></g><g transform="translate(0, 30)"><rect width="15" height="15" fill="#00B4AB" stroke="#006b66" stroke-width="1" rx="1" ry="1"></rect><text x="25" y="13" fill="#00B4AB" style="font-family: sans-serif; font-size: 14px;">Dart</text></g><g transform="translate(0, 60)"><rect width="15" height="15" fill="#FFD43B" stroke="#b39429" stroke-width="1" rx="1" ry="1"></rect><text x="25" y="13" fill="#00B4AB" style="font-family: sans-serif; font-size: 14px;">Python</text></g><g transform="translate(0, 90)"><rect width="15" height="15" fill="#9B4F96" stroke="#5a2e5a" stroke-width="1" rx="1" ry="1"></rect><text x="25" y="13" fill="#00B4AB" style="font-family: sans-serif; font-size: 14px;">C#</text></g><g transform="translate(0, 120)"><rect width="15" height="15" fill="#f74c00" stroke="#8f2d00" stroke-width="1" rx="1" ry="1"></rect><text x="25" y="13" fill="#00B4AB" style="font-family: sans-serif; font-size: 14px;">Rust</text></g></g><g transform="translate(280, 155)"><path d="M1.487,-83.963A1,1,0,0,1,2.516,-84.963A85,85,0,1,1,-11.518,84.216A1,1,0,0,1,-12.369,83.06L-7.092,51.475A1,1,0,0,1,-5.989,50.647A51,51,0,1,0,2.439,-50.942A1,1,0,0,1,1.487,-51.941Z" fill="#3178c6" stroke="#1e4d7a" stroke-width="1"></path><path d="M-15.302,82.57A1,1,0,0,1,-16.482,83.387A85,85,0,0,1,-80.707,-26.671A1,1,0,0,1,-79.416,-27.297L-49.321,-16.354A1,1,0,0,1,-48.708,-15.117A51,51,0,0,0,-10.8,49.843A1,1,0,0,1,-10.025,50.985Z" fill="#00B4AB" stroke="#006b66" stroke-width="1"></path><path d="M-78.4,-30.092A1,1,0,0,1,-78.987,-31.401A85,85,0,0,1,-32.853,-78.394A1,1,0,0,1,-31.533,-77.831L-20.036,-47.944A1,1,0,0,1,-20.566,-46.669A51,51,0,0,0,-47.041,-19.702A1,1,0,0,1,-48.305,-19.148Z" fill="#FFD43B" stroke="#b39429" stroke-width="1"></path><path d="M-28.758,-78.899A1,1,0,0,1,-28.156,-80.201A85,85,0,0,1,-15.953,-83.49A1,1,0,0,1,-14.778,-82.666L-9.701,-51.048A1,1,0,0,1,-10.483,-49.911A51,51,0,0,0,-16.013,-48.421A1,1,0,0,1,-17.26,-49.011Z" fill="#9B4F96" stroke="#5a2e5a" stroke-width="1"></path><path d="M-11.841,-83.137A1,1,0,0,1,-10.983,-84.287A85,85,0,0,1,-2.516,-84.963A1,1,0,0,1,-1.487,-83.963L-1.487,-51.941A1,1,0,0,1,-2.439,-50.942A51,51,0,0,0,-5.667,-50.684A1,1,0,0,1,-6.765,-51.519Z" fill="#f74c00" stroke="#8f2d00" stroke-width="1"></path></g></svg>