<svg width="400" height="280" xmlns="http://www.w3.org/2000/svg"><rect width="400" height="280" fill="#1a1b26" rx="10" ry="10"></rect><text x="200" y="30" fill="#7aa2f7" text-anchor="middle" style="font-family: sans-serif; font-size: 18px; font-weight: 600;">Total Bytes</text><g transform="translate(20, 80)"><g transform="translate(0, 0)"><rect width="15" height="15" fill="#3178c6" stroke="#1e4d7a" stroke-width="1" rx="1" ry="1"></rect><text x="25" y="13" fill="#00B4AB" style="font-family: sans-serif; font-size: 14px;">TypeScript</text></g><g transform="translate(0, 30)"><rect width="15" height="15" fill="#00B4AB" stroke="#006b66" stroke-width="1" rx="1" ry="1"></rect><text x="25" y="13" fill="#00B4AB" style="font-family: sans-serif; font-size: 14px;">Dart</text></g><g transform="translate(0, 60)"><rect width="15" height="15" fill="#FFD43B" stroke="#b39429" stroke-width="1" rx="1" ry="1"></rect><text x="25" y="13" fill="#00B4AB" style="font-family: sans-serif; font-size: 14px;">Python</text></g><g transform="translate(0, 90)"><rect width="15" height="15" fill="#9B4F96" stroke="#5a2e5a" stroke-width="1" rx="1" ry="1"></rect><text x="25" y="13" fill="#00B4AB" style="font-family: sans-serif; font-size: 14px;">C#</text></g><g transform="translate(0, 120)"><rect width="15" height="15" fill="#f74c00" stroke="#8f2d00" stroke-width="1" rx="1" ry="1"></rect><text x="25" y="13" fill="#00B4AB" style="font-family: sans-serif; font-size: 14px;">Rust</text></g></g><g transform="translate(280, 155)"><path d="M1.487,-83.963A1,1,0,0,1,2.516,-84.963A85,85,0,0,1,6.869,84.722A1,1,0,0,1,5.79,83.777L4.148,51.796A1,1,0,0,1,5.048,50.75A51,51,0,0,0,2.439,-50.942A1,1,0,0,1,1.487,-51.941Z" fill="#3178c6" stroke="#1e4d7a" stroke-width="1"></path><path d="M2.82,83.929A1,1,0,0,1,1.843,84.98A85,85,0,0,1,-82.436,-20.718A1,1,0,0,1,-81.194,-21.436L-50.382,-12.715A1,1,0,0,1,-49.68,-11.527A51,51,0,0,0,0.176,51A1,1,0,0,1,1.178,51.948Z" fill="#00B4AB" stroke="#006b66" stroke-width="1"></path><path d="M-80.384,-24.297A1,1,0,0,1,-81.066,-25.56A85,85,0,0,1,-34.852,-77.526A1,1,0,0,1,-33.518,-76.997L-21.258,-47.414A1,1,0,0,1,-21.756,-46.127A51,51,0,0,0,-48.352,-16.22A1,1,0,0,1,-49.572,-15.576Z" fill="#FFD43B" stroke="#b39429" stroke-width="1"></path><path d="M-30.771,-78.136A1,1,0,0,1,-30.202,-79.453A85,85,0,0,1,-16.852,-83.313A1,1,0,0,1,-15.668,-82.502L-10.251,-50.941A1,1,0,0,1,-11.021,-49.795A51,51,0,0,0,-17.249,-47.994A1,1,0,0,1,-18.511,-48.553Z" fill="#9B4F96" stroke="#5a2e5a" stroke-width="1"></path><path d="M-12.737,-83.005A1,1,0,0,1,-11.891,-84.164A85,85,0,0,1,-2.516,-84.963A1,1,0,0,1,-1.487,-83.963L-1.487,-51.941A1,1,0,0,1,-2.439,-50.942A51,51,0,0,0,-6.213,-50.62A1,1,0,0,1,-7.32,-51.444Z" fill="#f74c00" stroke="#8f2d00" stroke-width="1"></path></g></svg>