<svg width="400" height="280" xmlns="http://www.w3.org/2000/svg"><rect width="400" height="280" fill="#1a1b26" rx="10" ry="10"></rect><text x="200" y="30" fill="#7aa2f7" text-anchor="middle" style="font-family: sans-serif; font-size: 18px; font-weight: 600;">Total Bytes</text><g transform="translate(20, 80)"><g transform="translate(0, 0)"><rect width="15" height="15" fill="#3178c6" stroke="#1e4d7a" stroke-width="1" rx="1" ry="1"></rect><text x="25" y="13" fill="#00B4AB" style="font-family: sans-serif; font-size: 14px;">TypeScript</text></g><g transform="translate(0, 30)"><rect width="15" height="15" fill="#00B4AB" stroke="#006b66" stroke-width="1" rx="1" ry="1"></rect><text x="25" y="13" fill="#00B4AB" style="font-family: sans-serif; font-size: 14px;">Dart</text></g><g transform="translate(0, 60)"><rect width="15" height="15" fill="#FFD43B" stroke="#b39429" stroke-width="1" rx="1" ry="1"></rect><text x="25" y="13" fill="#00B4AB" style="font-family: sans-serif; font-size: 14px;">Python</text></g><g transform="translate(0, 90)"><rect width="15" height="15" fill="#f74c00" stroke="#8f2d00" stroke-width="1" rx="1" ry="1"></rect><text x="25" y="13" fill="#00B4AB" style="font-family: sans-serif; font-size: 14px;">Rust</text></g><g transform="translate(0, 120)"><rect width="15" height="15" fill="#9B4F96" stroke="#5a2e5a" stroke-width="1" rx="1" ry="1"></rect><text x="25" y="13" fill="#00B4AB" style="font-family: sans-serif; font-size: 14px;">C#</text></g></g><g transform="translate(280, 155)"><path d="M1.487,-83.963A1,1,0,0,1,2.516,-84.963A85,85,0,1,1,-63.476,56.531A1,1,0,0,1,-63.372,55.1L-38.838,34.52A1,1,0,0,1,-37.461,34.608A51,51,0,1,0,2.439,-50.942A1,1,0,0,1,1.487,-51.941Z" fill="#3178c6" stroke="#1e4d7a" stroke-width="1"></path><path d="M-65.283,52.822A1,1,0,0,1,-66.71,52.676A85,85,0,0,1,-71.598,-45.812A1,1,0,0,1,-70.192,-46.099L-43.741,-28.049A1,1,0,0,1,-43.453,-26.699A51,51,0,0,0,-40.596,30.87A1,1,0,0,1,-40.749,32.242Z" fill="#00B4AB" stroke="#006b66" stroke-width="1"></path><path d="M-68.516,-48.555A1,1,0,0,1,-68.761,-49.969A85,85,0,0,1,-29.518,-79.71A1,1,0,0,1,-28.223,-79.092L-17.997,-48.746A1,1,0,0,1,-18.58,-47.495A51,51,0,0,0,-40.703,-30.729A1,1,0,0,1,-42.065,-30.505Z" fill="#FFD43B" stroke="#b39429" stroke-width="1"></path><path d="M-25.405,-80.041A1,1,0,0,1,-24.749,-81.317A85,85,0,0,1,-16.089,-83.463A1,1,0,0,1,-14.913,-82.642L-9.785,-51.032A1,1,0,0,1,-10.565,-49.894A51,51,0,0,0,-13.957,-49.053A1,1,0,0,1,-15.179,-49.695Z" fill="#f74c00" stroke="#8f2d00" stroke-width="1"></path><path d="M-11.977,-83.118A1,1,0,0,1,-11.121,-84.269A85,85,0,0,1,-2.516,-84.963A1,1,0,0,1,-1.487,-83.963L-1.487,-51.941A1,1,0,0,1,-2.439,-50.942A51,51,0,0,0,-5.75,-50.675A1,1,0,0,1,-6.85,-51.508Z" fill="#9B4F96" stroke="#5a2e5a" stroke-width="1"></path></g></svg>