<svg width="400" height="280" xmlns="http://www.w3.org/2000/svg"><rect width="400" height="280" fill="#1a1b26" rx="10" ry="10"></rect><text x="200" y="30" fill="#7aa2f7" text-anchor="middle" style="font-family: sans-serif; font-size: 18px; font-weight: 600;">Total Bytes</text><g transform="translate(20, 80)"><g transform="translate(0, 0)"><rect width="15" height="15" fill="#3178c6" stroke="#1e4d7a" stroke-width="1" rx="1" ry="1"></rect><text x="25" y="13" fill="#00B4AB" style="font-family: sans-serif; font-size: 14px;">TypeScript</text></g><g transform="translate(0, 30)"><rect width="15" height="15" fill="#00B4AB" stroke="#006b66" stroke-width="1" rx="1" ry="1"></rect><text x="25" y="13" fill="#00B4AB" style="font-family: sans-serif; font-size: 14px;">Dart</text></g><g transform="translate(0, 60)"><rect width="15" height="15" fill="#FFD43B" stroke="#b39429" stroke-width="1" rx="1" ry="1"></rect><text x="25" y="13" fill="#00B4AB" style="font-family: sans-serif; font-size: 14px;">Python</text></g><g transform="translate(0, 90)"><rect width="15" height="15" fill="#9B4F96" stroke="#5a2e5a" stroke-width="1" rx="1" ry="1"></rect><text x="25" y="13" fill="#00B4AB" style="font-family: sans-serif; font-size: 14px;">C#</text></g><g transform="translate(0, 120)"><rect width="15" height="15" fill="#f74c00" stroke="#8f2d00" stroke-width="1" rx="1" ry="1"></rect><text x="25" y="13" fill="#00B4AB" style="font-family: sans-serif; font-size: 14px;">Rust</text></g></g><g transform="translate(280, 155)"><path d="M1.487,-83.963A1,1,0,0,1,2.516,-84.963A85,85,0,1,1,-64.008,55.928A1,1,0,0,1,-63.891,54.498L-39.163,34.151A1,1,0,0,1,-37.787,34.251A51,51,0,1,0,2.439,-50.942A1,1,0,0,1,1.487,-51.941Z" fill="#3178c6" stroke="#1e4d7a" stroke-width="1"></path><path d="M-65.78,52.201A1,1,0,0,1,-67.206,52.041A85,85,0,0,1,-71.021,-46.702A1,1,0,0,1,-69.611,-46.971L-43.388,-28.593A1,1,0,0,1,-43.116,-27.24A51,51,0,0,0,-40.886,30.485A1,1,0,0,1,-41.053,31.854Z" fill="#00B4AB" stroke="#006b66" stroke-width="1"></path><path d="M-67.905,-49.406A1,1,0,0,1,-68.132,-50.823A85,85,0,0,1,-28.404,-80.114A1,1,0,0,1,-27.118,-79.477L-17.315,-48.992A1,1,0,0,1,-17.916,-47.75A51,51,0,0,0,-40.317,-31.234A1,1,0,0,1,-41.681,-31.028Z" fill="#FFD43B" stroke="#b39429" stroke-width="1"></path><path d="M-24.287,-80.388A1,1,0,0,1,-23.612,-81.654A85,85,0,0,1,-15.183,-83.633A1,1,0,0,1,-14.015,-82.799L-9.231,-51.135A1,1,0,0,1,-10.023,-50.005A51,51,0,0,0,-13.272,-49.243A1,1,0,0,1,-14.484,-49.902Z" fill="#9B4F96" stroke="#5a2e5a" stroke-width="1"></path><path d="M-11.075,-83.243A1,1,0,0,1,-10.206,-84.385A85,85,0,0,1,-2.516,-84.963A1,1,0,0,1,-1.487,-83.963L-1.487,-51.941A1,1,0,0,1,-2.439,-50.942A51,51,0,0,0,-5.2,-50.734A1,1,0,0,1,-6.29,-51.58Z" fill="#f74c00" stroke="#8f2d00" stroke-width="1"></path></g></svg>