<svg width="400" height="280" xmlns="http://www.w3.org/2000/svg"><rect width="400" height="280" fill="#1a1b26" rx="10" ry="10"></rect><text x="200" y="30" fill="#7aa2f7" text-anchor="middle" style="font-family: sans-serif; font-size: 18px; font-weight: 600;">Total Bytes</text><g transform="translate(20, 80)"><g transform="translate(0, 0)"><rect width="15" height="15" fill="#3178c6" stroke="#1e4d7a" stroke-width="1" rx="1" ry="1"></rect><text x="25" y="13" fill="#00B4AB" style="font-family: sans-serif; font-size: 14px;">TypeScript</text></g><g transform="translate(0, 30)"><rect width="15" height="15" fill="#00B4AB" stroke="#006b66" stroke-width="1" rx="1" ry="1"></rect><text x="25" y="13" fill="#00B4AB" style="font-family: sans-serif; font-size: 14px;">Dart</text></g><g transform="translate(0, 60)"><rect width="15" height="15" fill="#FFD43B" stroke="#b39429" stroke-width="1" rx="1" ry="1"></rect><text x="25" y="13" fill="#00B4AB" style="font-family: sans-serif; font-size: 14px;">Python</text></g><g transform="translate(0, 90)"><rect width="15" height="15" fill="#9B4F96" stroke="#5a2e5a" stroke-width="1" rx="1" ry="1"></rect><text x="25" y="13" fill="#00B4AB" style="font-family: sans-serif; font-size: 14px;">C#</text></g><g transform="translate(0, 120)"><rect width="15" height="15" fill="#f74c00" stroke="#8f2d00" stroke-width="1" rx="1" ry="1"></rect><text x="25" y="13" fill="#00B4AB" style="font-family: sans-serif; font-size: 14px;">Rust</text></g></g><g transform="translate(280, 155)"><path d="M1.487,-83.963A1,1,0,0,1,2.516,-84.963A85,85,0,0,1,19.869,82.645A1,1,0,0,1,18.656,81.878L12.096,50.534A1,1,0,0,1,12.823,49.362A51,51,0,0,0,2.439,-50.942A1,1,0,0,1,1.487,-51.941Z" fill="#3178c6" stroke="#1e4d7a" stroke-width="1"></path><path d="M15.745,82.487A1,1,0,0,1,14.942,83.676A85,85,0,0,1,-83.086,-17.935A1,1,0,0,1,-81.869,-18.695L-50.781,-11.014A1,1,0,0,1,-50.04,-9.85A51,51,0,0,0,8.049,50.361A1,1,0,0,1,9.185,51.144Z" fill="#00B4AB" stroke="#006b66" stroke-width="1"></path><path d="M-81.156,-21.581A1,1,0,0,1,-81.879,-22.821A85,85,0,0,1,-36.521,-76.754A1,1,0,0,1,-35.176,-76.254L-22.279,-46.943A1,1,0,0,1,-22.748,-45.645A51,51,0,0,0,-48.87,-14.586A1,1,0,0,1,-50.068,-13.901Z" fill="#FFD43B" stroke="#b39429" stroke-width="1"></path><path d="M-32.454,-77.452A1,1,0,0,1,-31.914,-78.781A85,85,0,0,1,-17.609,-83.156A1,1,0,0,1,-16.418,-82.356L-10.714,-50.845A1,1,0,0,1,-11.473,-49.693A51,51,0,0,0,-18.283,-47.61A1,1,0,0,1,-19.557,-48.141Z" fill="#9B4F96" stroke="#5a2e5a" stroke-width="1"></path><path d="M-13.492,-82.885A1,1,0,0,1,-12.657,-84.052A85,85,0,0,1,-2.516,-84.963A1,1,0,0,1,-1.487,-83.963L-1.487,-51.941A1,1,0,0,1,-2.439,-50.942A51,51,0,0,0,-6.673,-50.562A1,1,0,0,1,-7.788,-51.375Z" fill="#f74c00" stroke="#8f2d00" stroke-width="1"></path></g></svg>