<svg width="400" height="280" xmlns="http://www.w3.org/2000/svg"><rect width="400" height="280" fill="#1a1b26" rx="10" ry="10"></rect><text x="200" y="30" fill="#7aa2f7" text-anchor="middle" style="font-family: sans-serif; font-size: 18px; font-weight: 600;">Total Bytes</text><g transform="translate(20, 80)"><g transform="translate(0, 0)"><rect width="15" height="15" fill="#3178c6" stroke="#1e4d7a" stroke-width="1" rx="1" ry="1"></rect><text x="25" y="13" fill="#00B4AB" style="font-family: sans-serif; font-size: 14px;">TypeScript</text></g><g transform="translate(0, 30)"><rect width="15" height="15" fill="#00B4AB" stroke="#006b66" stroke-width="1" rx="1" ry="1"></rect><text x="25" y="13" fill="#00B4AB" style="font-family: sans-serif; font-size: 14px;">Dart</text></g><g transform="translate(0, 60)"><rect width="15" height="15" fill="#FFD43B" stroke="#b39429" stroke-width="1" rx="1" ry="1"></rect><text x="25" y="13" fill="#00B4AB" style="font-family: sans-serif; font-size: 14px;">Python</text></g><g transform="translate(0, 90)"><rect width="15" height="15" fill="#9B4F96" stroke="#5a2e5a" stroke-width="1" rx="1" ry="1"></rect><text x="25" y="13" fill="#00B4AB" style="font-family: sans-serif; font-size: 14px;">C#</text></g><g transform="translate(0, 120)"><rect width="15" height="15" fill="#f74c00" stroke="#8f2d00" stroke-width="1" rx="1" ry="1"></rect><text x="25" y="13" fill="#00B4AB" style="font-family: sans-serif; font-size: 14px;">Rust</text></g></g><g transform="translate(280, 155)"><path d="M1.487,-83.963A1,1,0,0,1,2.516,-84.963A85,85,0,0,1,11.414,84.23A1,1,0,0,1,10.285,83.344L6.926,51.498A1,1,0,0,1,7.769,50.405A51,51,0,0,0,2.439,-50.942A1,1,0,0,1,1.487,-51.941Z" fill="#3178c6" stroke="#1e4d7a" stroke-width="1"></path><path d="M7.328,83.656A1,1,0,0,1,6.409,84.758A85,85,0,0,1,-82.327,-21.148A1,1,0,0,1,-81.081,-21.86L-50.315,-12.978A1,1,0,0,1,-49.619,-11.786A51,51,0,0,0,2.918,50.916A1,1,0,0,1,3.969,51.81Z" fill="#00B4AB" stroke="#006b66" stroke-width="1"></path><path d="M-80.256,-24.717A1,1,0,0,1,-80.931,-25.984A85,85,0,0,1,-35.665,-77.156A1,1,0,0,1,-34.326,-76.641L-21.756,-47.188A1,1,0,0,1,-22.24,-45.896A51,51,0,0,0,-48.266,-16.473A1,1,0,0,1,-49.49,-15.835Z" fill="#FFD43B" stroke="#b39429" stroke-width="1"></path><path d="M-31.591,-77.808A1,1,0,0,1,-31.036,-79.131A85,85,0,0,1,-17.22,-83.237A1,1,0,0,1,-16.033,-82.432L-10.476,-50.895A1,1,0,0,1,-11.241,-49.746A51,51,0,0,0,-17.753,-47.81A1,1,0,0,1,-19.021,-48.355Z" fill="#9B4F96" stroke="#5a2e5a" stroke-width="1"></path><path d="M-13.104,-82.948A1,1,0,0,1,-12.263,-84.111A85,85,0,0,1,-2.516,-84.963A1,1,0,0,1,-1.487,-83.963L-1.487,-51.941A1,1,0,0,1,-2.439,-50.942A51,51,0,0,0,-6.437,-50.592A1,1,0,0,1,-7.548,-51.411Z" fill="#f74c00" stroke="#8f2d00" stroke-width="1"></path></g></svg>