<svg width="400" height="280" xmlns="http://www.w3.org/2000/svg"><rect width="400" height="280" fill="#1a1b26" rx="10" ry="10"></rect><text x="200" y="30" fill="#7aa2f7" text-anchor="middle" style="font-family: sans-serif; font-size: 18px; font-weight: 600;">Total Bytes</text><g transform="translate(20, 80)"><g transform="translate(0, 0)"><rect width="15" height="15" fill="#3178c6" stroke="#1e4d7a" stroke-width="1" rx="1" ry="1"></rect><text x="25" y="13" fill="#00B4AB" style="font-family: sans-serif; font-size: 14px;">TypeScript</text></g><g transform="translate(0, 30)"><rect width="15" height="15" fill="#00B4AB" stroke="#006b66" stroke-width="1" rx="1" ry="1"></rect><text x="25" y="13" fill="#00B4AB" style="font-family: sans-serif; font-size: 14px;">Dart</text></g><g transform="translate(0, 60)"><rect width="15" height="15" fill="#FFD43B" stroke="#b39429" stroke-width="1" rx="1" ry="1"></rect><text x="25" y="13" fill="#00B4AB" style="font-family: sans-serif; font-size: 14px;">Python</text></g><g transform="translate(0, 90)"><rect width="15" height="15" fill="#9B4F96" stroke="#5a2e5a" stroke-width="1" rx="1" ry="1"></rect><text x="25" y="13" fill="#00B4AB" style="font-family: sans-serif; font-size: 14px;">C#</text></g><g transform="translate(0, 120)"><rect width="15" height="15" fill="#f74c00" stroke="#8f2d00" stroke-width="1" rx="1" ry="1"></rect><text x="25" y="13" fill="#00B4AB" style="font-family: sans-serif; font-size: 14px;">Rust</text></g></g><g transform="translate(280, 155)"><path d="M1.487,-83.963A1,1,0,0,1,2.516,-84.963A85,85,0,1,1,-9.432,84.475A1,1,0,0,1,-10.311,83.341L-5.817,51.635A1,1,0,0,1,-4.734,50.78A51,51,0,1,0,2.439,-50.942A1,1,0,0,1,1.487,-51.941Z" fill="#3178c6" stroke="#1e4d7a" stroke-width="1"></path><path d="M-13.255,82.924A1,1,0,0,1,-14.415,83.769A85,85,0,0,1,-80.965,-25.879A1,1,0,0,1,-79.68,-26.518L-49.479,-15.869A1,1,0,0,1,-48.854,-14.639A51,51,0,0,0,-9.564,50.095A1,1,0,0,1,-8.761,51.218Z" fill="#00B4AB" stroke="#006b66" stroke-width="1"></path><path d="M-78.691,-29.322A1,1,0,0,1,-79.291,-30.625A85,85,0,0,1,-33.061,-78.307A1,1,0,0,1,-31.74,-77.747L-20.163,-47.89A1,1,0,0,1,-20.69,-46.615A51,51,0,0,0,-47.232,-19.24A1,1,0,0,1,-48.49,-18.674Z" fill="#FFD43B" stroke="#b39429" stroke-width="1"></path><path d="M-28.967,-78.822A1,1,0,0,1,-28.369,-80.126A85,85,0,0,1,-16.046,-83.472A1,1,0,0,1,-14.87,-82.649L-9.759,-51.037A1,1,0,0,1,-10.539,-49.899A51,51,0,0,0,-16.142,-48.378A1,1,0,0,1,-17.391,-48.965Z" fill="#9B4F96" stroke="#5a2e5a" stroke-width="1"></path><path d="M-11.934,-83.124A1,1,0,0,1,-11.078,-84.275A85,85,0,0,1,-2.516,-84.963A1,1,0,0,1,-1.487,-83.963L-1.487,-51.941A1,1,0,0,1,-2.439,-50.942A51,51,0,0,0,-5.724,-50.678A1,1,0,0,1,-6.823,-51.512Z" fill="#f74c00" stroke="#8f2d00" stroke-width="1"></path></g></svg>