<svg width="400" height="280" xmlns="http://www.w3.org/2000/svg"><rect width="400" height="280" fill="#1a1b26" rx="10" ry="10"></rect><text x="200" y="30" fill="#7aa2f7" text-anchor="middle" style="font-family: sans-serif; font-size: 18px; font-weight: 600;">Total Bytes</text><g transform="translate(20, 80)"><g transform="translate(0, 0)"><rect width="15" height="15" fill="#3178c6" stroke="#1e4d7a" stroke-width="1" rx="1" ry="1"></rect><text x="25" y="13" fill="#00B4AB" style="font-family: sans-serif; font-size: 14px;">TypeScript</text></g><g transform="translate(0, 30)"><rect width="15" height="15" fill="#00B4AB" stroke="#006b66" stroke-width="1" rx="1" ry="1"></rect><text x="25" y="13" fill="#00B4AB" style="font-family: sans-serif; font-size: 14px;">Dart</text></g><g transform="translate(0, 60)"><rect width="15" height="15" fill="#FFD43B" stroke="#b39429" stroke-width="1" rx="1" ry="1"></rect><text x="25" y="13" fill="#00B4AB" style="font-family: sans-serif; font-size: 14px;">Python</text></g><g transform="translate(0, 90)"><rect width="15" height="15" fill="#9B4F96" stroke="#5a2e5a" stroke-width="1" rx="1" ry="1"></rect><text x="25" y="13" fill="#00B4AB" style="font-family: sans-serif; font-size: 14px;">C#</text></g><g transform="translate(0, 120)"><rect width="15" height="15" fill="#f74c00" stroke="#8f2d00" stroke-width="1" rx="1" ry="1"></rect><text x="25" y="13" fill="#00B4AB" style="font-family: sans-serif; font-size: 14px;">Rust</text></g></g><g transform="translate(280, 155)"><path d="M1.487,-83.963A1,1,0,0,1,2.516,-84.963A85,85,0,1,1,-27.702,80.359A1,1,0,0,1,-28.311,79.06L-16.983,49.108A1,1,0,0,1,-15.739,48.511A51,51,0,1,0,2.439,-50.942A1,1,0,0,1,1.487,-51.941Z" fill="#3178c6" stroke="#1e4d7a" stroke-width="1"></path><path d="M-31.092,78.008A1,1,0,0,1,-32.409,78.579A85,85,0,0,1,-78.393,-32.856A1,1,0,0,1,-77.057,-33.38L-47.903,-20.133A1,1,0,0,1,-47.388,-18.853A51,51,0,0,0,-20.302,46.785A1,1,0,0,1,-19.765,48.056Z" fill="#00B4AB" stroke="#006b66" stroke-width="1"></path><path d="M-75.827,-36.087A1,1,0,0,1,-76.311,-37.438A85,85,0,0,1,-31.192,-79.07A1,1,0,0,1,-29.885,-78.479L-19.02,-48.355A1,1,0,0,1,-19.577,-47.093A51,51,0,0,0,-45.37,-23.294A1,1,0,0,1,-46.673,-22.84Z" fill="#FFD43B" stroke="#b39429" stroke-width="1"></path><path d="M-27.088,-79.488A1,1,0,0,1,-26.458,-80.777A85,85,0,0,1,-15.212,-83.628A1,1,0,0,1,-14.044,-82.794L-9.248,-51.132A1,1,0,0,1,-10.04,-50.002A51,51,0,0,0,-14.989,-48.748A1,1,0,0,1,-16.223,-49.364Z" fill="#9B4F96" stroke="#5a2e5a" stroke-width="1"></path><path d="M-11.104,-83.239A1,1,0,0,1,-10.236,-84.381A85,85,0,0,1,-2.516,-84.963A1,1,0,0,1,-1.487,-83.963L-1.487,-51.941A1,1,0,0,1,-2.439,-50.942A51,51,0,0,0,-5.217,-50.732A1,1,0,0,1,-6.308,-51.577Z" fill="#f74c00" stroke="#8f2d00" stroke-width="1"></path></g></svg>