<svg width="400" height="280" xmlns="http://www.w3.org/2000/svg"><rect width="400" height="280" fill="#1a1b26" rx="10" ry="10"></rect><text x="200" y="30" fill="#7aa2f7" text-anchor="middle" style="font-family: sans-serif; font-size: 18px; font-weight: 600;">Commits by Hour</text><g transform="translate(50, 60)"><rect x="2.7272727272727195" y="125.37500000000001" width="10.90909090909091" height="44.624999999999986" fill="#BF91F3" stroke="#8b6bb0" stroke-width="1" rx="1" ry="1"></rect><rect x="16.363636363636356" y="127.5" width="10.90909090909091" height="42.5" fill="#BF91F3" stroke="#8b6bb0" stroke-width="1" rx="1" ry="1"></rect><rect x="29.999999999999993" y="147.6875" width="10.90909090909091" height="22.3125" fill="#BF91F3" stroke="#8b6bb0" stroke-width="1" rx="1" ry="1"></rect><rect x="43.636363636363626" y="136" width="10.90909090909091" height="34" fill="#BF91F3" stroke="#8b6bb0" stroke-width="1" rx="1" ry="1"></rect><rect x="57.272727272727266" y="136" width="10.90909090909091" height="34" fill="#BF91F3" stroke="#8b6bb0" stroke-width="1" rx="1" ry="1"></rect><rect x="70.9090909090909" y="157.25" width="10.90909090909091" height="12.75" fill="#BF91F3" stroke="#8b6bb0" stroke-width="1" rx="1" ry="1"></rect><rect x="84.54545454545453" y="160.4375" width="10.90909090909091" height="9.5625" fill="#BF91F3" stroke="#8b6bb0" stroke-width="1" rx="1" ry="1"></rect><rect x="98.18181818181817" y="148.75" width="10.90909090909091" height="21.25" fill="#BF91F3" stroke="#8b6bb0" stroke-width="1" rx="1" ry="1"></rect><rect x="111.81818181818181" y="144.5" width="10.90909090909091" height="25.5" fill="#BF91F3" stroke="#8b6bb0" stroke-width="1" rx="1" ry="1"></rect><rect x="125.45454545454545" y="143.4375" width="10.90909090909091" height="26.5625" fill="#BF91F3" stroke="#8b6bb0" stroke-width="1" rx="1" ry="1"></rect><rect x="139.0909090909091" y="120.06250000000001" width="10.90909090909091" height="49.937499999999986" fill="#BF91F3" stroke="#8b6bb0" stroke-width="1" rx="1" ry="1"></rect><rect x="152.72727272727272" y="126.4375" width="10.90909090909091" height="43.5625" fill="#BF91F3" stroke="#8b6bb0" stroke-width="1" rx="1" ry="1"></rect><rect x="166.36363636363635" y="113.68749999999999" width="10.90909090909091" height="56.312500000000014" fill="#BF91F3" stroke="#8b6bb0" stroke-width="1" rx="1" ry="1"></rect><rect x="180" y="116.875" width="10.90909090909091" height="53.125" fill="#BF91F3" stroke="#8b6bb0" stroke-width="1" rx="1" ry="1"></rect><rect x="193.63636363636363" y="116.875" width="10.90909090909091" height="53.125" fill="#BF91F3" stroke="#8b6bb0" stroke-width="1" rx="1" ry="1"></rect><rect x="207.27272727272728" y="104.12500000000001" width="10.90909090909091" height="65.87499999999999" fill="#BF91F3" stroke="#8b6bb0" stroke-width="1" rx="1" ry="1"></rect><rect x="220.9090909090909" y="110.5" width="10.90909090909091" height="59.5" fill="#BF91F3" stroke="#8b6bb0" stroke-width="1" rx="1" ry="1"></rect><rect x="234.54545454545453" y="111.5625" width="10.90909090909091" height="58.4375" fill="#BF91F3" stroke="#8b6bb0" stroke-width="1" rx="1" ry="1"></rect><rect x="248.1818181818182" y="108.37499999999999" width="10.90909090909091" height="61.625000000000014" fill="#BF91F3" stroke="#8b6bb0" stroke-width="1" rx="1" ry="1"></rect><rect x="261.81818181818187" y="89.25" width="10.90909090909091" height="80.75" fill="#BF91F3" stroke="#8b6bb0" stroke-width="1" rx="1" ry="1"></rect><rect x="275.4545454545455" y="53.125" width="10.90909090909091" height="116.875" fill="#BF91F3" stroke="#8b6bb0" stroke-width="1" rx="1" ry="1"></rect><rect x="289.0909090909091" y="19.125000000000007" width="10.90909090909091" height="150.875" fill="#BF91F3" stroke="#8b6bb0" stroke-width="1" rx="1" ry="1"></rect><rect x="302.72727272727275" y="89.25" width="10.90909090909091" height="80.75" fill="#BF91F3" stroke="#8b6bb0" stroke-width="1" rx="1" ry="1"></rect><rect x="316.3636363636364" y="91.375" width="10.90909090909091" height="78.625" fill="#BF91F3" stroke="#8b6bb0" stroke-width="1" rx="1" ry="1"></rect><g transform="translate(0, 170)" fill="none" font-size="10" font-family="sans-serif" text-anchor="middle"><path class="domain" stroke="#00B4AB" d="M0.5,6V0.5H330.5V6"></path><g class="tick" opacity="1" transform="translate(8.181818181818175,0)"><line stroke="#00B4AB" y2="6"></line><text fill="#00B4AB" y="9" dy="0.71em" style="font-family: sans-serif; font-size: 11px;">0</text></g><g class="tick" opacity="1" transform="translate(49.09090909090908,0)"><line stroke="#00B4AB" y2="6"></line><text fill="#00B4AB" y="9" dy="0.71em" style="font-family: sans-serif; font-size: 11px;">3</text></g><g class="tick" opacity="1" transform="translate(89.99999999999999,0)"><line stroke="#00B4AB" y2="6"></line><text fill="#00B4AB" y="9" dy="0.71em" style="font-family: sans-serif; font-size: 11px;">6</text></g><g class="tick" opacity="1" transform="translate(130.9090909090909,0)"><line stroke="#00B4AB" y2="6"></line><text fill="#00B4AB" y="9" dy="0.71em" style="font-family: sans-serif; font-size: 11px;">9</text></g><g class="tick" opacity="1" transform="translate(171.8181818181818,0)"><line stroke="#00B4AB" y2="6"></line><text fill="#00B4AB" y="9" dy="0.71em" style="font-family: sans-serif; font-size: 11px;">12</text></g><g class="tick" opacity="1" transform="translate(212.72727272727275,0)"><line stroke="#00B4AB" y2="6"></line><text fill="#00B4AB" y="9" dy="0.71em" style="font-family: sans-serif; font-size: 11px;">15</text></g><g class="tick" opacity="1" transform="translate(253.63636363636365,0)"><line stroke="#00B4AB" y2="6"></line><text fill="#00B4AB" y="9" dy="0.71em" style="font-family: sans-serif; font-size: 11px;">18</text></g><g class="tick" opacity="1" transform="translate(294.54545454545456,0)"><line stroke="#00B4AB" y2="6"></line><text fill="#00B4AB" y="9" dy="0.71em" style="font-family: sans-serif; font-size: 11px;">21</text></g></g><g fill="none" font-size="10" font-family="sans-serif" text-anchor="end"><path class="domain" stroke="#00B4AB" d="M-6,170.5H0.5V0.5H-6"></path><g class="tick" opacity="1" transform="translate(0,170.5)"><line stroke="#00B4AB" x2="-6"></line><text fill="#00B4AB" x="-9" dy="0.32em" style="font-family: sans-serif; font-size: 11px;">0</text></g><g class="tick" opacity="1" transform="translate(0,117.375)"><line stroke="#00B4AB" x2="-6"></line><text fill="#00B4AB" x="-9" dy="0.32em" style="font-family: sans-serif; font-size: 11px;">50</text></g><g class="tick" opacity="1" transform="translate(0,64.25)"><line stroke="#00B4AB" x2="-6"></line><text fill="#00B4AB" x="-9" dy="0.32em" style="font-family: sans-serif; font-size: 11px;">100</text></g><g class="tick" opacity="1" transform="translate(0,11.125)"><line stroke="#00B4AB" x2="-6"></line><text fill="#00B4AB" x="-9" dy="0.32em" style="font-family: sans-serif; font-size: 11px;">150</text></g></g></g><text x="200" y="270" fill="#00B4AB" text-anchor="middle" style="font-family: sans-serif; font-size: 12px;">JST</text></svg>