<svg width="400" height="280" xmlns="http://www.w3.org/2000/svg"><rect width="400" height="280" fill="#1a1b26" rx="10" ry="10"></rect><text x="200" y="30" fill="#7aa2f7" text-anchor="middle" style="font-family: sans-serif; font-size: 18px; font-weight: 600;">Total Bytes</text><g transform="translate(20, 80)"><g transform="translate(0, 0)"><rect width="15" height="15" fill="#3178c6" stroke="#1e4d7a" stroke-width="1" rx="1" ry="1"></rect><text x="25" y="13" fill="#00B4AB" style="font-family: sans-serif; font-size: 14px;">TypeScript</text></g><g transform="translate(0, 30)"><rect width="15" height="15" fill="#00B4AB" stroke="#006b66" stroke-width="1" rx="1" ry="1"></rect><text x="25" y="13" fill="#00B4AB" style="font-family: sans-serif; font-size: 14px;">Dart</text></g><g transform="translate(0, 60)"><rect width="15" height="15" fill="#FFD43B" stroke="#b39429" stroke-width="1" rx="1" ry="1"></rect><text x="25" y="13" fill="#00B4AB" style="font-family: sans-serif; font-size: 14px;">Python</text></g><g transform="translate(0, 90)"><rect width="15" height="15" fill="#9B4F96" stroke="#5a2e5a" stroke-width="1" rx="1" ry="1"></rect><text x="25" y="13" fill="#00B4AB" style="font-family: sans-serif; font-size: 14px;">C#</text></g><g transform="translate(0, 120)"><rect width="15" height="15" fill="#f74c00" stroke="#8f2d00" stroke-width="1" rx="1" ry="1"></rect><text x="25" y="13" fill="#00B4AB" style="font-family: sans-serif; font-size: 14px;">Rust</text></g></g><g transform="translate(280, 155)"><path d="M1.487,-83.963A1,1,0,0,1,2.516,-84.963A85,85,0,0,1,10.059,84.403A1,1,0,0,1,8.945,83.499L6.098,51.603A1,1,0,0,1,6.958,50.523A51,51,0,0,0,2.439,-50.942A1,1,0,0,1,1.487,-51.941Z" fill="#3178c6" stroke="#1e4d7a" stroke-width="1"></path><path d="M5.983,83.763A1,1,0,0,1,5.046,84.85A85,85,0,0,1,-82.195,-21.655A1,1,0,0,1,-80.945,-22.36L-50.234,-13.288A1,1,0,0,1,-49.546,-12.092A51,51,0,0,0,2.099,50.957A1,1,0,0,1,3.136,51.867Z" fill="#00B4AB" stroke="#006b66" stroke-width="1"></path><path d="M-80.102,-25.212A1,1,0,0,1,-80.769,-26.482A85,85,0,0,1,-35.529,-77.218A1,1,0,0,1,-34.191,-76.701L-21.673,-47.226A1,1,0,0,1,-22.158,-45.935A51,51,0,0,0,-48.164,-16.77A1,1,0,0,1,-49.392,-16.14Z" fill="#FFD43B" stroke="#b39429" stroke-width="1"></path><path d="M-31.453,-77.863A1,1,0,0,1,-30.897,-79.186A85,85,0,0,1,-17.158,-83.25A1,1,0,0,1,-15.971,-82.444L-10.439,-50.902A1,1,0,0,1,-11.204,-49.754A51,51,0,0,0,-17.669,-47.842A1,1,0,0,1,-18.935,-48.389Z" fill="#9B4F96" stroke="#5a2e5a" stroke-width="1"></path><path d="M-13.042,-82.957A1,1,0,0,1,-12.201,-84.12A85,85,0,0,1,-2.516,-84.963A1,1,0,0,1,-1.487,-83.963L-1.487,-51.941A1,1,0,0,1,-2.439,-50.942A51,51,0,0,0,-6.399,-50.597A1,1,0,0,1,-7.51,-51.416Z" fill="#f74c00" stroke="#8f2d00" stroke-width="1"></path></g></svg>