<svg width="400" height="280" xmlns="http://www.w3.org/2000/svg"><rect width="400" height="280" fill="#1a1b26" rx="10" ry="10"></rect><text x="200" y="30" fill="#7aa2f7" text-anchor="middle" style="font-family: sans-serif; font-size: 18px; font-weight: 600;">Total Bytes</text><g transform="translate(20, 80)"><g transform="translate(0, 0)"><rect width="15" height="15" fill="#3178c6" stroke="#1e4d7a" stroke-width="1" rx="1" ry="1"></rect><text x="25" y="13" fill="#00B4AB" style="font-family: sans-serif; font-size: 14px;">TypeScript</text></g><g transform="translate(0, 30)"><rect width="15" height="15" fill="#00B4AB" stroke="#006b66" stroke-width="1" rx="1" ry="1"></rect><text x="25" y="13" fill="#00B4AB" style="font-family: sans-serif; font-size: 14px;">Dart</text></g><g transform="translate(0, 60)"><rect width="15" height="15" fill="#FFD43B" stroke="#b39429" stroke-width="1" rx="1" ry="1"></rect><text x="25" y="13" fill="#00B4AB" style="font-family: sans-serif; font-size: 14px;">Python</text></g><g transform="translate(0, 90)"><rect width="15" height="15" fill="#9B4F96" stroke="#5a2e5a" stroke-width="1" rx="1" ry="1"></rect><text x="25" y="13" fill="#00B4AB" style="font-family: sans-serif; font-size: 14px;">C#</text></g><g transform="translate(0, 120)"><rect width="15" height="15" fill="#f74c00" stroke="#8f2d00" stroke-width="1" rx="1" ry="1"></rect><text x="25" y="13" fill="#00B4AB" style="font-family: sans-serif; font-size: 14px;">Rust</text></g></g><g transform="translate(280, 155)"><path d="M1.487,-83.963A1,1,0,0,1,2.516,-84.963A85,85,0,1,1,-11.497,84.219A1,1,0,0,1,-12.348,83.063L-7.08,51.477A1,1,0,0,1,-5.976,50.649A51,51,0,1,0,2.439,-50.942A1,1,0,0,1,1.487,-51.941Z" fill="#3178c6" stroke="#1e4d7a" stroke-width="1"></path><path d="M-15.282,82.574A1,1,0,0,1,-16.462,83.391A85,85,0,0,1,-80.71,-26.663A1,1,0,0,1,-79.419,-27.29L-49.323,-16.349A1,1,0,0,1,-48.709,-15.113A51,51,0,0,0,-10.788,49.846A1,1,0,0,1,-10.013,50.988Z" fill="#00B4AB" stroke="#006b66" stroke-width="1"></path><path d="M-78.403,-30.084A1,1,0,0,1,-78.99,-31.393A85,85,0,0,1,-32.855,-78.394A1,1,0,0,1,-31.535,-77.83L-20.037,-47.943A1,1,0,0,1,-20.567,-46.669A51,51,0,0,0,-47.043,-19.697A1,1,0,0,1,-48.307,-19.143Z" fill="#FFD43B" stroke="#b39429" stroke-width="1"></path><path d="M-28.76,-78.898A1,1,0,0,1,-28.158,-80.201A85,85,0,0,1,-15.954,-83.489A1,1,0,0,1,-14.778,-82.666L-9.702,-51.048A1,1,0,0,1,-10.484,-49.911A51,51,0,0,0,-16.014,-48.42A1,1,0,0,1,-17.262,-49.011Z" fill="#9B4F96" stroke="#5a2e5a" stroke-width="1"></path><path d="M-11.842,-83.137A1,1,0,0,1,-10.984,-84.287A85,85,0,0,1,-2.516,-84.963A1,1,0,0,1,-1.487,-83.963L-1.487,-51.941A1,1,0,0,1,-2.439,-50.942A51,51,0,0,0,-5.667,-50.684A1,1,0,0,1,-6.766,-51.519Z" fill="#f74c00" stroke="#8f2d00" stroke-width="1"></path></g></svg>