<svg width="400" height="280" xmlns="http://www.w3.org/2000/svg"><rect width="400" height="280" fill="#1a1b26" rx="10" ry="10"></rect><text x="200" y="30" fill="#7aa2f7" text-anchor="middle" style="font-family: sans-serif; font-size: 18px; font-weight: 600;">Total Bytes</text><g transform="translate(20, 80)"><g transform="translate(0, 0)"><rect width="15" height="15" fill="#3178c6" stroke="#1e4d7a" stroke-width="1" rx="1" ry="1"></rect><text x="25" y="13" fill="#00B4AB" style="font-family: sans-serif; font-size: 14px;">TypeScript</text></g><g transform="translate(0, 30)"><rect width="15" height="15" fill="#00B4AB" stroke="#006b66" stroke-width="1" rx="1" ry="1"></rect><text x="25" y="13" fill="#00B4AB" style="font-family: sans-serif; font-size: 14px;">Dart</text></g><g transform="translate(0, 60)"><rect width="15" height="15" fill="#FFD43B" stroke="#b39429" stroke-width="1" rx="1" ry="1"></rect><text x="25" y="13" fill="#00B4AB" style="font-family: sans-serif; font-size: 14px;">Python</text></g><g transform="translate(0, 90)"><rect width="15" height="15" fill="#9B4F96" stroke="#5a2e5a" stroke-width="1" rx="1" ry="1"></rect><text x="25" y="13" fill="#00B4AB" style="font-family: sans-serif; font-size: 14px;">C#</text></g><g transform="translate(0, 120)"><rect width="15" height="15" fill="#f74c00" stroke="#8f2d00" stroke-width="1" rx="1" ry="1"></rect><text x="25" y="13" fill="#00B4AB" style="font-family: sans-serif; font-size: 14px;">Rust</text></g></g><g transform="translate(280, 155)"><path d="M1.487,-83.963A1,1,0,0,1,2.516,-84.963A85,85,0,1,1,-22.241,82.039A1,1,0,0,1,-22.936,80.783L-13.646,50.138A1,1,0,0,1,-12.445,49.458A51,51,0,1,0,2.439,-50.942A1,1,0,0,1,1.487,-51.941Z" fill="#3178c6" stroke="#1e4d7a" stroke-width="1"></path><path d="M-25.782,79.921A1,1,0,0,1,-27.057,80.578A85,85,0,0,1,-79.241,-30.755A1,1,0,0,1,-77.919,-31.315L-48.422,-18.849A1,1,0,0,1,-47.873,-17.583A51,51,0,0,0,-17.113,48.043A1,1,0,0,1,-16.492,49.275Z" fill="#00B4AB" stroke="#006b66" stroke-width="1"></path><path d="M-76.762,-34.054A1,1,0,0,1,-77.282,-35.391A85,85,0,0,1,-31.763,-78.842A1,1,0,0,1,-30.452,-78.261L-19.37,-48.217A1,1,0,0,1,-19.917,-46.95A51,51,0,0,0,-45.974,-22.077A1,1,0,0,1,-47.265,-21.588Z" fill="#FFD43B" stroke="#b39429" stroke-width="1"></path><path d="M-27.662,-79.29A1,1,0,0,1,-27.042,-80.584A85,85,0,0,1,-15.466,-83.581A1,1,0,0,1,-14.296,-82.751L-9.404,-51.104A1,1,0,0,1,-10.192,-49.971A51,51,0,0,0,-15.341,-48.638A1,1,0,0,1,-16.58,-49.246Z" fill="#9B4F96" stroke="#5a2e5a" stroke-width="1"></path><path d="M-11.357,-83.205A1,1,0,0,1,-10.492,-84.35A85,85,0,0,1,-2.516,-84.963A1,1,0,0,1,-1.487,-83.963L-1.487,-51.941A1,1,0,0,1,-2.439,-50.942A51,51,0,0,0,-5.371,-50.716A1,1,0,0,1,-6.465,-51.558Z" fill="#f74c00" stroke="#8f2d00" stroke-width="1"></path></g></svg>