<svg width="400" height="280" xmlns="http://www.w3.org/2000/svg"><rect width="400" height="280" fill="#1a1b26" rx="10" ry="10"></rect><text x="200" y="30" fill="#7aa2f7" text-anchor="middle" style="font-family: sans-serif; font-size: 18px; font-weight: 600;">Repository Count</text><g transform="translate(20, 80)"><g transform="translate(0, 0)"><rect width="15" height="15" fill="#3178c6" stroke="#1e4d7a" stroke-width="1" rx="1" ry="1"></rect><text x="25" y="13" fill="#00B4AB" style="font-family: sans-serif; font-size: 14px;">TypeScript</text></g><g transform="translate(0, 30)"><rect width="15" height="15" fill="#FFD43B" stroke="#b39429" stroke-width="1" rx="1" ry="1"></rect><text x="25" y="13" fill="#00B4AB" style="font-family: sans-serif; font-size: 14px;">Python</text></g><g transform="translate(0, 60)"><rect width="15" height="15" fill="#f74c00" stroke="#8f2d00" stroke-width="1" rx="1" ry="1"></rect><text x="25" y="13" fill="#00B4AB" style="font-family: sans-serif; font-size: 14px;">Rust</text></g><g transform="translate(0, 90)"><rect width="15" height="15" fill="#9B4F96" stroke="#5a2e5a" stroke-width="1" rx="1" ry="1"></rect><text x="25" y="13" fill="#00B4AB" style="font-family: sans-serif; font-size: 14px;">C#</text></g><g transform="translate(0, 120)"><rect width="15" height="15" fill="#00B4AB" stroke="#006b66" stroke-width="1" rx="1" ry="1"></rect><text x="25" y="13" fill="#00B4AB" style="font-family: sans-serif; font-size: 14px;">Dart</text></g></g><g transform="translate(280, 155)"><path d="M1.487,-83.963A1,1,0,0,1,2.516,-84.963A85,85,0,0,1,15.902,83.499A1,1,0,0,1,14.727,82.675L9.67,51.054A1,1,0,0,1,10.453,49.917A51,51,0,0,0,2.439,-50.942A1,1,0,0,1,1.487,-51.941Z" fill="#3178c6" stroke="#1e4d7a" stroke-width="1"></path><path d="M11.791,83.144A1,1,0,0,1,10.932,84.294A85,85,0,0,1,-84.669,-7.492A1,1,0,0,1,-83.555,-8.397L-51.755,-4.631A1,1,0,0,1,-50.875,-3.568A51,51,0,0,0,5.636,50.688A1,1,0,0,1,6.734,51.524Z" fill="#FFD43B" stroke="#b39429" stroke-width="1"></path><path d="M-83.206,-11.35A1,1,0,0,1,-84.077,-12.49A85,85,0,0,1,-59.237,-60.959A1,1,0,0,1,-57.803,-60.917L-36.176,-37.301A1,1,0,0,1,-36.203,-35.921A51,51,0,0,0,-50.301,-8.412A1,1,0,0,1,-51.405,-7.584Z" fill="#f74c00" stroke="#8f2d00" stroke-width="1"></path><path d="M-55.61,-62.925A1,1,0,0,1,-55.525,-64.358A85,85,0,0,1,-24.042,-81.529A1,1,0,0,1,-22.792,-80.824L-14.648,-49.854A1,1,0,0,1,-15.315,-48.646A51,51,0,0,0,-32.606,-39.216A1,1,0,0,1,-33.982,-39.309Z" fill="#9B4F96" stroke="#5a2e5a" stroke-width="1"></path><path d="M-19.916,-81.58A1,1,0,0,1,-19.175,-82.809A85,85,0,0,1,-2.516,-84.963A1,1,0,0,1,-1.487,-83.963L-1.487,-51.941A1,1,0,0,1,-2.439,-50.942A51,51,0,0,0,-10.597,-49.887A1,1,0,0,1,-11.772,-50.611Z" fill="#00B4AB" stroke="#006b66" stroke-width="1"></path></g></svg>