<svg width="400" height="280" xmlns="http://www.w3.org/2000/svg"><rect width="400" height="280" fill="#1a1b26" rx="10" ry="10"></rect><text x="200" y="30" fill="#7aa2f7" text-anchor="middle" style="font-family: sans-serif; font-size: 18px; font-weight: 600;">Total Bytes</text><g transform="translate(20, 80)"><g transform="translate(0, 0)"><rect width="15" height="15" fill="#3178c6" stroke="#1e4d7a" stroke-width="1" rx="1" ry="1"></rect><text x="25" y="13" fill="#00B4AB" style="font-family: sans-serif; font-size: 14px;">TypeScript</text></g><g transform="translate(0, 30)"><rect width="15" height="15" fill="#00B4AB" stroke="#006b66" stroke-width="1" rx="1" ry="1"></rect><text x="25" y="13" fill="#00B4AB" style="font-family: sans-serif; font-size: 14px;">Dart</text></g><g transform="translate(0, 60)"><rect width="15" height="15" fill="#FFD43B" stroke="#b39429" stroke-width="1" rx="1" ry="1"></rect><text x="25" y="13" fill="#00B4AB" style="font-family: sans-serif; font-size: 14px;">Python</text></g><g transform="translate(0, 90)"><rect width="15" height="15" fill="#9B4F96" stroke="#5a2e5a" stroke-width="1" rx="1" ry="1"></rect><text x="25" y="13" fill="#00B4AB" style="font-family: sans-serif; font-size: 14px;">C#</text></g><g transform="translate(0, 120)"><rect width="15" height="15" fill="#f74c00" stroke="#8f2d00" stroke-width="1" rx="1" ry="1"></rect><text x="25" y="13" fill="#00B4AB" style="font-family: sans-serif; font-size: 14px;">Rust</text></g></g><g transform="translate(280, 155)"><path d="M1.487,-83.963A1,1,0,0,1,2.516,-84.963A85,85,0,0,1,1.808,84.981A1,1,0,0,1,0.787,83.973L1.054,51.951A1,1,0,0,1,2.014,50.96A51,51,0,0,0,2.439,-50.942A1,1,0,0,1,1.487,-51.941Z" fill="#3178c6" stroke="#1e4d7a" stroke-width="1"></path><path d="M-2.186,83.948A1,1,0,0,1,-3.224,84.939A85,85,0,0,1,-82.211,-21.594A1,1,0,0,1,-80.962,-22.299L-50.244,-13.251A1,1,0,0,1,-49.555,-12.055A51,51,0,0,0,-2.863,50.92A1,1,0,0,1,-1.92,51.926Z" fill="#00B4AB" stroke="#006b66" stroke-width="1"></path><path d="M-80.121,-25.152A1,1,0,0,1,-80.789,-26.422A85,85,0,0,1,-34.174,-77.828A1,1,0,0,1,-32.845,-77.287L-20.844,-47.598A1,1,0,0,1,-21.352,-46.315A51,51,0,0,0,-48.176,-16.734A1,1,0,0,1,-49.404,-16.103Z" fill="#FFD43B" stroke="#b39429" stroke-width="1"></path><path d="M-30.088,-78.401A1,1,0,0,1,-29.508,-79.714A85,85,0,0,1,-16.546,-83.374A1,1,0,0,1,-15.365,-82.559L-10.064,-50.978A1,1,0,0,1,-10.838,-49.835A51,51,0,0,0,-16.83,-48.143A1,1,0,0,1,-18.087,-48.712Z" fill="#9B4F96" stroke="#5a2e5a" stroke-width="1"></path><path d="M-12.432,-83.051A1,1,0,0,1,-11.582,-84.207A85,85,0,0,1,-2.516,-84.963A1,1,0,0,1,-1.487,-83.963L-1.487,-51.941A1,1,0,0,1,-2.439,-50.942A51,51,0,0,0,-6.027,-50.643A1,1,0,0,1,-7.132,-51.47Z" fill="#f74c00" stroke="#8f2d00" stroke-width="1"></path></g></svg>