<svg width="400" height="280" xmlns="http://www.w3.org/2000/svg"><rect width="400" height="280" fill="#1a1b26" rx="10" ry="10"></rect><text x="200" y="30" fill="#7aa2f7" text-anchor="middle" style="font-family: sans-serif; font-size: 18px; font-weight: 600;">Total Bytes</text><g transform="translate(20, 80)"><g transform="translate(0, 0)"><rect width="15" height="15" fill="#3178c6" stroke="#1e4d7a" stroke-width="1" rx="1" ry="1"></rect><text x="25" y="13" fill="#00B4AB" style="font-family: sans-serif; font-size: 14px;">TypeScript</text></g><g transform="translate(0, 30)"><rect width="15" height="15" fill="#00B4AB" stroke="#006b66" stroke-width="1" rx="1" ry="1"></rect><text x="25" y="13" fill="#00B4AB" style="font-family: sans-serif; font-size: 14px;">Dart</text></g><g transform="translate(0, 60)"><rect width="15" height="15" fill="#FFD43B" stroke="#b39429" stroke-width="1" rx="1" ry="1"></rect><text x="25" y="13" fill="#00B4AB" style="font-family: sans-serif; font-size: 14px;">Python</text></g><g transform="translate(0, 90)"><rect width="15" height="15" fill="#f74c00" stroke="#8f2d00" stroke-width="1" rx="1" ry="1"></rect><text x="25" y="13" fill="#00B4AB" style="font-family: sans-serif; font-size: 14px;">Rust</text></g><g transform="translate(0, 120)"><rect width="15" height="15" fill="#9B4F96" stroke="#5a2e5a" stroke-width="1" rx="1" ry="1"></rect><text x="25" y="13" fill="#00B4AB" style="font-family: sans-serif; font-size: 14px;">C#</text></g></g><g transform="translate(280, 155)"><path d="M1.487,-83.963A1,1,0,0,1,2.516,-84.963A85,85,0,1,1,-59.808,60.398A1,1,0,0,1,-59.794,58.964L-36.598,36.886A1,1,0,0,1,-35.218,36.887A51,51,0,1,0,2.439,-50.942A1,1,0,0,1,1.487,-51.941Z" fill="#3178c6" stroke="#1e4d7a" stroke-width="1"></path><path d="M-61.844,56.81A1,1,0,0,1,-63.278,56.753A85,85,0,0,1,-75.136,-39.744A1,1,0,0,1,-73.758,-40.147L-45.908,-24.342A1,1,0,0,1,-45.509,-23.021A51,51,0,0,0,-38.581,33.354A1,1,0,0,1,-38.648,34.732Z" fill="#00B4AB" stroke="#006b66" stroke-width="1"></path><path d="M-72.291,-42.733A1,1,0,0,1,-72.652,-44.122A85,85,0,0,1,-36.744,-76.648A1,1,0,0,1,-35.398,-76.151L-22.416,-46.878A1,1,0,0,1,-22.881,-45.579A51,51,0,0,0,-43.101,-27.263A1,1,0,0,1,-44.44,-26.928Z" fill="#FFD43B" stroke="#b39429" stroke-width="1"></path><path d="M-32.679,-77.357A1,1,0,0,1,-32.143,-78.688A85,85,0,0,1,-15.917,-83.496A1,1,0,0,1,-14.742,-82.672L-9.68,-51.052A1,1,0,0,1,-10.462,-49.915A51,51,0,0,0,-18.422,-47.557A1,1,0,0,1,-19.697,-48.084Z" fill="#f74c00" stroke="#8f2d00" stroke-width="1"></path><path d="M-11.806,-83.142A1,1,0,0,1,-10.948,-84.292A85,85,0,0,1,-2.516,-84.963A1,1,0,0,1,-1.487,-83.963L-1.487,-51.941A1,1,0,0,1,-2.439,-50.942A51,51,0,0,0,-5.645,-50.687A1,1,0,0,1,-6.743,-51.522Z" fill="#9B4F96" stroke="#5a2e5a" stroke-width="1"></path></g></svg>