<svg width="400" height="280" xmlns="http://www.w3.org/2000/svg"><rect width="400" height="280" fill="#1a1b26" rx="10" ry="10"></rect><text x="200" y="30" fill="#7aa2f7" text-anchor="middle" style="font-family: sans-serif; font-size: 18px; font-weight: 600;">Repository Count</text><g transform="translate(20, 80)"><g transform="translate(0, 0)"><rect width="15" height="15" fill="#3178c6" stroke="#1e4d7a" stroke-width="1" rx="1" ry="1"></rect><text x="25" y="13" fill="#00B4AB" style="font-family: sans-serif; font-size: 14px;">TypeScript</text></g><g transform="translate(0, 30)"><rect width="15" height="15" fill="#FFD43B" stroke="#b39429" stroke-width="1" rx="1" ry="1"></rect><text x="25" y="13" fill="#00B4AB" style="font-family: sans-serif; font-size: 14px;">Python</text></g><g transform="translate(0, 60)"><rect width="15" height="15" fill="#f74c00" stroke="#8f2d00" stroke-width="1" rx="1" ry="1"></rect><text x="25" y="13" fill="#00B4AB" style="font-family: sans-serif; font-size: 14px;">Rust</text></g><g transform="translate(0, 90)"><rect width="15" height="15" fill="#9B4F96" stroke="#5a2e5a" stroke-width="1" rx="1" ry="1"></rect><text x="25" y="13" fill="#00B4AB" style="font-family: sans-serif; font-size: 14px;">C#</text></g><g transform="translate(0, 120)"><rect width="15" height="15" fill="#00B4AB" stroke="#006b66" stroke-width="1" rx="1" ry="1"></rect><text x="25" y="13" fill="#00B4AB" style="font-family: sans-serif; font-size: 14px;">Dart</text></g></g><g transform="translate(280, 155)"><path d="M1.487,-83.963A1,1,0,0,1,2.516,-84.963A85,85,0,0,1,6.336,84.764A1,1,0,0,1,5.262,83.811L3.822,51.821A1,1,0,0,1,4.728,50.78A51,51,0,0,0,2.439,-50.942A1,1,0,0,1,1.487,-51.941Z" fill="#3178c6" stroke="#1e4d7a" stroke-width="1"></path><path d="M2.292,83.945A1,1,0,0,1,1.308,84.99A85,85,0,0,1,-84.204,-11.603A1,1,0,0,1,-83.048,-12.453L-51.468,-7.144A1,1,0,0,1,-50.641,-6.04A51,51,0,0,0,-0.145,51A1,1,0,0,1,0.851,51.955Z" fill="#FFD43B" stroke="#b39429" stroke-width="1"></path><path d="M-82.555,-15.385A1,1,0,0,1,-83.37,-16.566A85,85,0,0,1,-57.736,-62.382A1,1,0,0,1,-56.303,-62.306L-35.257,-38.17A1,1,0,0,1,-35.318,-36.792A51,51,0,0,0,-49.832,-10.85A1,1,0,0,1,-50.975,-10.077Z" fill="#f74c00" stroke="#8f2d00" stroke-width="1"></path><path d="M-54.062,-64.26A1,1,0,0,1,-53.943,-65.69A85,85,0,0,1,-23.38,-81.721A1,1,0,0,1,-22.136,-81.006L-14.243,-49.972A1,1,0,0,1,-14.92,-48.769A51,51,0,0,0,-31.642,-39.998A1,1,0,0,1,-33.016,-40.125Z" fill="#9B4F96" stroke="#5a2e5a" stroke-width="1"></path><path d="M-19.254,-81.739A1,1,0,0,1,-18.502,-82.962A85,85,0,0,1,-2.516,-84.963A1,1,0,0,1,-1.487,-83.963L-1.487,-51.941A1,1,0,0,1,-2.439,-50.942A51,51,0,0,0,-10.192,-49.971A1,1,0,0,1,-11.361,-50.705Z" fill="#00B4AB" stroke="#006b66" stroke-width="1"></path></g></svg>