<svg width="400" height="300" xmlns="http://www.w3.org/2000/svg"><rect width="400" height="300" fill="#0d1117" rx="10" ry="10"></rect><g transform="translate(240,150)"><path d="M0,-110A110,110,0,0,1,20.102,108.148L12.061,64.889A66,66,0,0,0,0,-66Z" fill="#3178c6"></path><path d="M20.102,108.148A110,110,0,0,1,-105.254,-31.961L-63.153,-19.177A66,66,0,0,0,12.061,64.889Z" fill="#0175c2"></path><path d="M-105.254,-31.961A110,110,0,0,1,-39.285,-102.746L-23.571,-61.647A66,66,0,0,0,-63.153,-19.177Z" fill="#3776ab"></path><path d="M-39.285,-102.746A110,110,0,0,1,-16.826,-108.706L-10.096,-65.223A66,66,0,0,0,-23.571,-61.647Z" fill="#239120"></path><path d="M-16.826,-108.706A110,110,0,0,1,0,-110L0,-66A66,66,0,0,0,-10.096,-65.223Z" fill="#ce422b"></path></g><g transform="translate(20, 60)"><g transform="translate(0, 0)"><rect width="15" height="15" fill="#3178c6"></rect><text x="20" y="12" fill="#c9d1d9" style="font-family: sans-serif; font-size: 14px;">TypeScript</text></g><g transform="translate(0, 25)"><rect width="15" height="15" fill="#0175c2"></rect><text x="20" y="12" fill="#c9d1d9" style="font-family: sans-serif; font-size: 14px;">Dart</text></g><g transform="translate(0, 50)"><rect width="15" height="15" fill="#3776ab"></rect><text x="20" y="12" fill="#c9d1d9" style="font-family: sans-serif; font-size: 14px;">Python</text></g><g transform="translate(0, 75)"><rect width="15" height="15" fill="#239120"></rect><text x="20" y="12" fill="#c9d1d9" style="font-family: sans-serif; font-size: 14px;">C#</text></g><g transform="translate(0, 100)"><rect width="15" height="15" fill="#ce422b"></rect><text x="20" y="12" fill="#c9d1d9" style="font-family: sans-serif; font-size: 14px;">Rust</text></g></g><text x="20" y="30" fill="#58a6ff" style="font-family: sans-serif; font-size: 18px;">Top Languages by Repo</text></svg>