<svg width="400" height="280" xmlns="http://www.w3.org/2000/svg"><rect width="400" height="280" fill="#1a1b26" rx="10" ry="10"></rect><text x="200" y="30" fill="#7aa2f7" text-anchor="middle" style="font-family: sans-serif; font-size: 18px; font-weight: 600;">Repository Count</text><g transform="translate(20, 80)"><g transform="translate(0, 0)"><rect width="15" height="15" fill="#3178c6" stroke="#1e4d7a" stroke-width="1" rx="1" ry="1"></rect><text x="25" y="13" fill="#00B4AB" style="font-family: sans-serif; font-size: 14px;">TypeScript</text></g><g transform="translate(0, 30)"><rect width="15" height="15" fill="#FFD43B" stroke="#b39429" stroke-width="1" rx="1" ry="1"></rect><text x="25" y="13" fill="#00B4AB" style="font-family: sans-serif; font-size: 14px;">Python</text></g><g transform="translate(0, 60)"><rect width="15" height="15" fill="#f74c00" stroke="#8f2d00" stroke-width="1" rx="1" ry="1"></rect><text x="25" y="13" fill="#00B4AB" style="font-family: sans-serif; font-size: 14px;">Rust</text></g><g transform="translate(0, 90)"><rect width="15" height="15" fill="#9B4F96" stroke="#5a2e5a" stroke-width="1" rx="1" ry="1"></rect><text x="25" y="13" fill="#00B4AB" style="font-family: sans-serif; font-size: 14px;">C#</text></g><g transform="translate(0, 120)"><rect width="15" height="15" fill="#00B4AB" stroke="#006b66" stroke-width="1" rx="1" ry="1"></rect><text x="25" y="13" fill="#00B4AB" style="font-family: sans-serif; font-size: 14px;">Dart</text></g></g><g transform="translate(280, 155)"><path d="M1.487,-83.963A1,1,0,0,1,2.516,-84.963A85,85,0,1,1,-23.993,81.543A1,1,0,0,1,-24.662,80.273L-14.717,49.834A1,1,0,0,1,-13.502,49.18A51,51,0,1,0,2.439,-50.942A1,1,0,0,1,1.487,-51.941Z" fill="#3178c6" stroke="#1e4d7a" stroke-width="1"></path><path d="M-27.488,79.35A1,1,0,0,1,-28.778,79.98A85,85,0,0,1,-83.495,-15.925A1,1,0,0,1,-82.296,-16.714L-51.032,-9.786A1,1,0,0,1,-50.263,-8.64A51,51,0,0,0,-18.139,47.665A1,1,0,0,1,-17.544,48.911Z" fill="#FFD43B" stroke="#b39429" stroke-width="1"></path><path d="M-81.653,-19.618A1,1,0,0,1,-82.406,-20.839A85,85,0,0,1,-50.13,-68.644A1,1,0,0,1,-48.716,-68.402L-30.604,-41.993A1,1,0,0,1,-30.824,-40.631A51,51,0,0,0,-49.207,-13.403A1,1,0,0,1,-50.389,-12.689Z" fill="#f74c00" stroke="#8f2d00" stroke-width="1"></path><path d="M-46.264,-70.084A1,1,0,0,1,-45.98,-71.49A85,85,0,0,1,-20.205,-82.564A1,1,0,0,1,-18.989,-81.801L-12.301,-50.485A1,1,0,0,1,-13.024,-49.309A51,51,0,0,0,-26.801,-43.39A1,1,0,0,1,-28.152,-43.675Z" fill="#9B4F96" stroke="#5a2e5a" stroke-width="1"></path><path d="M-16.081,-82.422A1,1,0,0,1,-15.283,-83.615A85,85,0,0,1,-2.516,-84.963A1,1,0,0,1,-1.487,-83.963L-1.487,-51.941A1,1,0,0,1,-2.439,-50.942A51,51,0,0,0,-8.253,-50.328A1,1,0,0,1,-9.393,-51.106Z" fill="#00B4AB" stroke="#006b66" stroke-width="1"></path></g></svg>