<svg width="400" height="280" xmlns="http://www.w3.org/2000/svg"><rect width="400" height="280" fill="#1a1b26" rx="10" ry="10"></rect><text x="200" y="30" fill="#7aa2f7" text-anchor="middle" style="font-family: sans-serif; font-size: 18px; font-weight: 600;">Repository Count</text><g transform="translate(20, 80)"><g transform="translate(0, 0)"><rect width="15" height="15" fill="#3178c6" stroke="#1e4d7a" stroke-width="1" rx="1" ry="1"></rect><text x="25" y="13" fill="#00B4AB" style="font-family: sans-serif; font-size: 14px;">TypeScript</text></g><g transform="translate(0, 30)"><rect width="15" height="15" fill="#FFD43B" stroke="#b39429" stroke-width="1" rx="1" ry="1"></rect><text x="25" y="13" fill="#00B4AB" style="font-family: sans-serif; font-size: 14px;">Python</text></g><g transform="translate(0, 60)"><rect width="15" height="15" fill="#f74c00" stroke="#8f2d00" stroke-width="1" rx="1" ry="1"></rect><text x="25" y="13" fill="#00B4AB" style="font-family: sans-serif; font-size: 14px;">Rust</text></g><g transform="translate(0, 90)"><rect width="15" height="15" fill="#9B4F96" stroke="#5a2e5a" stroke-width="1" rx="1" ry="1"></rect><text x="25" y="13" fill="#00B4AB" style="font-family: sans-serif; font-size: 14px;">C#</text></g><g transform="translate(0, 120)"><rect width="15" height="15" fill="#00B4AB" stroke="#006b66" stroke-width="1" rx="1" ry="1"></rect><text x="25" y="13" fill="#00B4AB" style="font-family: sans-serif; font-size: 14px;">Dart</text></g></g><g transform="translate(280, 155)"><path d="M1.487,-83.963A1,1,0,0,1,2.516,-84.963A85,85,0,0,1,25.971,80.935A1,1,0,0,1,24.704,80.26L15.827,49.493A1,1,0,0,1,16.465,48.269A51,51,0,0,0,2.439,-50.942A1,1,0,0,1,1.487,-51.941Z" fill="#3178c6" stroke="#1e4d7a" stroke-width="1"></path><path d="M21.847,81.085A1,1,0,0,1,21.135,82.331A85,85,0,0,1,-84.945,-3.045A1,1,0,0,1,-83.881,-4.007L-51.927,-1.913A1,1,0,0,1,-50.992,-0.898A51,51,0,0,0,11.778,49.621A1,1,0,0,1,12.97,50.317Z" fill="#FFD43B" stroke="#b39429" stroke-width="1"></path><path d="M-83.686,-6.975A1,1,0,0,1,-84.616,-8.068A85,85,0,0,1,-60.814,-59.385A1,1,0,0,1,-59.379,-59.381L-37.141,-36.34A1,1,0,0,1,-37.132,-34.96A51,51,0,0,0,-50.673,-5.765A1,1,0,0,1,-51.732,-4.881Z" fill="#f74c00" stroke="#8f2d00" stroke-width="1"></path><path d="M-57.24,-61.446A1,1,0,0,1,-57.193,-62.881A85,85,0,0,1,-24.754,-81.316A1,1,0,0,1,-23.498,-80.622L-15.083,-49.725A1,1,0,0,1,-15.739,-48.511A51,51,0,0,0,-33.622,-38.348A1,1,0,0,1,-35.001,-38.405Z" fill="#9B4F96" stroke="#5a2e5a" stroke-width="1"></path><path d="M-20.628,-81.403A1,1,0,0,1,-19.898,-82.638A85,85,0,0,1,-2.516,-84.963A1,1,0,0,1,-1.487,-83.963L-1.487,-51.941A1,1,0,0,1,-2.439,-50.942A51,51,0,0,0,-11.033,-49.792A1,1,0,0,1,-12.214,-50.506Z" fill="#00B4AB" stroke="#006b66" stroke-width="1"></path></g></svg>