<svg width="400" height="280" xmlns="http://www.w3.org/2000/svg"><rect width="400" height="280" fill="#1a1b26" rx="10" ry="10"></rect><text x="200" y="30" fill="#7aa2f7" text-anchor="middle" style="font-family: sans-serif; font-size: 18px; font-weight: 600;">Total Bytes</text><g transform="translate(20, 80)"><g transform="translate(0, 0)"><rect width="15" height="15" fill="#3178c6" stroke="#1e4d7a" stroke-width="1" rx="1" ry="1"></rect><text x="25" y="13" fill="#00B4AB" style="font-family: sans-serif; font-size: 14px;">TypeScript</text></g><g transform="translate(0, 30)"><rect width="15" height="15" fill="#00B4AB" stroke="#006b66" stroke-width="1" rx="1" ry="1"></rect><text x="25" y="13" fill="#00B4AB" style="font-family: sans-serif; font-size: 14px;">Dart</text></g><g transform="translate(0, 60)"><rect width="15" height="15" fill="#FFD43B" stroke="#b39429" stroke-width="1" rx="1" ry="1"></rect><text x="25" y="13" fill="#00B4AB" style="font-family: sans-serif; font-size: 14px;">Python</text></g><g transform="translate(0, 90)"><rect width="15" height="15" fill="#f74c00" stroke="#8f2d00" stroke-width="1" rx="1" ry="1"></rect><text x="25" y="13" fill="#00B4AB" style="font-family: sans-serif; font-size: 14px;">Rust</text></g><g transform="translate(0, 120)"><rect width="15" height="15" fill="#9B4F96" stroke="#5a2e5a" stroke-width="1" rx="1" ry="1"></rect><text x="25" y="13" fill="#00B4AB" style="font-family: sans-serif; font-size: 14px;">C#</text></g></g><g transform="translate(280, 155)"><path d="M1.487,-83.963A1,1,0,0,1,2.516,-84.963A85,85,0,1,1,-54.614,65.133A1,1,0,0,1,-54.719,63.701L-33.426,39.783A1,1,0,0,1,-32.051,39.671A51,51,0,1,0,2.439,-50.942A1,1,0,0,1,1.487,-51.941Z" fill="#3178c6" stroke="#1e4d7a" stroke-width="1"></path><path d="M-56.94,61.724A1,1,0,0,1,-58.374,61.786A85,85,0,0,1,-79.013,-31.335A1,1,0,0,1,-77.688,-31.885L-48.283,-19.204A1,1,0,0,1,-47.743,-17.934A51,51,0,0,0,-35.694,36.427A1,1,0,0,1,-35.647,37.806Z" fill="#00B4AB" stroke="#006b66" stroke-width="1"></path><path d="M-76.51,-34.615A1,1,0,0,1,-77.02,-35.957A85,85,0,0,1,-45.785,-71.615A1,1,0,0,1,-44.388,-71.286L-27.945,-43.807A1,1,0,0,1,-28.25,-42.461A51,51,0,0,0,-45.811,-22.413A1,1,0,0,1,-47.105,-21.934Z" fill="#FFD43B" stroke="#b39429" stroke-width="1"></path><path d="M-41.836,-72.813A1,1,0,0,1,-41.466,-74.2A85,85,0,0,1,-15.69,-83.539A1,1,0,0,1,-14.518,-82.712L-9.541,-51.078A1,1,0,0,1,-10.326,-49.944A51,51,0,0,0,-24.064,-44.966A1,1,0,0,1,-25.394,-45.334Z" fill="#f74c00" stroke="#8f2d00" stroke-width="1"></path><path d="M-11.58,-83.174A1,1,0,0,1,-10.719,-84.321A85,85,0,0,1,-2.516,-84.963A1,1,0,0,1,-1.487,-83.963L-1.487,-51.941A1,1,0,0,1,-2.439,-50.942A51,51,0,0,0,-5.508,-50.702A1,1,0,0,1,-6.604,-51.54Z" fill="#9B4F96" stroke="#5a2e5a" stroke-width="1"></path></g></svg>