<svg width="400" height="280" xmlns="http://www.w3.org/2000/svg"><rect width="400" height="280" fill="#1a1b26" rx="10" ry="10"></rect><text x="200" y="30" fill="#7aa2f7" text-anchor="middle" style="font-family: sans-serif; font-size: 18px; font-weight: 600;">Total Bytes</text><g transform="translate(20, 80)"><g transform="translate(0, 0)"><rect width="15" height="15" fill="#3178c6" stroke="#1e4d7a" stroke-width="1" rx="1" ry="1"></rect><text x="25" y="13" fill="#00B4AB" style="font-family: sans-serif; font-size: 14px;">TypeScript</text></g><g transform="translate(0, 30)"><rect width="15" height="15" fill="#00B4AB" stroke="#006b66" stroke-width="1" rx="1" ry="1"></rect><text x="25" y="13" fill="#00B4AB" style="font-family: sans-serif; font-size: 14px;">Dart</text></g><g transform="translate(0, 60)"><rect width="15" height="15" fill="#FFD43B" stroke="#b39429" stroke-width="1" rx="1" ry="1"></rect><text x="25" y="13" fill="#00B4AB" style="font-family: sans-serif; font-size: 14px;">Python</text></g><g transform="translate(0, 90)"><rect width="15" height="15" fill="#9B4F96" stroke="#5a2e5a" stroke-width="1" rx="1" ry="1"></rect><text x="25" y="13" fill="#00B4AB" style="font-family: sans-serif; font-size: 14px;">C#</text></g><g transform="translate(0, 120)"><rect width="15" height="15" fill="#f74c00" stroke="#8f2d00" stroke-width="1" rx="1" ry="1"></rect><text x="25" y="13" fill="#00B4AB" style="font-family: sans-serif; font-size: 14px;">Rust</text></g></g><g transform="translate(280, 155)"><path d="M1.487,-83.963A1,1,0,0,1,2.516,-84.963A85,85,0,1,1,-27.893,80.293A1,1,0,0,1,-28.499,78.993L-17.1,49.067A1,1,0,0,1,-15.855,48.473A51,51,0,1,0,2.439,-50.942A1,1,0,0,1,1.487,-51.941Z" fill="#3178c6" stroke="#1e4d7a" stroke-width="1"></path><path d="M-31.278,77.934A1,1,0,0,1,-32.596,78.502A85,85,0,0,1,-78.632,-32.279A1,1,0,0,1,-77.3,-32.813L-48.05,-19.781A1,1,0,0,1,-47.525,-18.504A51,51,0,0,0,-20.413,46.737A1,1,0,0,1,-19.879,48.009Z" fill="#00B4AB" stroke="#006b66" stroke-width="1"></path><path d="M-76.09,-35.529A1,1,0,0,1,-76.584,-36.877A85,85,0,0,1,-31.055,-79.124A1,1,0,0,1,-29.749,-78.53L-18.937,-48.388A1,1,0,0,1,-19.496,-47.127A51,51,0,0,0,-45.539,-22.96A1,1,0,0,1,-46.839,-22.497Z" fill="#FFD43B" stroke="#b39429" stroke-width="1"></path><path d="M-26.95,-79.534A1,1,0,0,1,-26.318,-80.823A85,85,0,0,1,-15.151,-83.639A1,1,0,0,1,-13.984,-82.804L-9.211,-51.139A1,1,0,0,1,-10.004,-50.009A51,51,0,0,0,-14.904,-48.774A1,1,0,0,1,-16.138,-49.392Z" fill="#9B4F96" stroke="#5a2e5a" stroke-width="1"></path><path d="M-11.043,-83.247A1,1,0,0,1,-10.174,-84.389A85,85,0,0,1,-2.516,-84.963A1,1,0,0,1,-1.487,-83.963L-1.487,-51.941A1,1,0,0,1,-2.439,-50.942A51,51,0,0,0,-5.18,-50.736A1,1,0,0,1,-6.271,-51.582Z" fill="#f74c00" stroke="#8f2d00" stroke-width="1"></path></g></svg>