<svg width="400" height="280" xmlns="http://www.w3.org/2000/svg"><rect width="400" height="280" fill="#1a1b26" rx="10" ry="10"></rect><text x="200" y="30" fill="#7aa2f7" text-anchor="middle" style="font-family: sans-serif; font-size: 18px; font-weight: 600;">Total Bytes</text><g transform="translate(20, 80)"><g transform="translate(0, 0)"><rect width="15" height="15" fill="#3178c6" stroke="#1e4d7a" stroke-width="1" rx="1" ry="1"></rect><text x="25" y="13" fill="#00B4AB" style="font-family: sans-serif; font-size: 14px;">TypeScript</text></g><g transform="translate(0, 30)"><rect width="15" height="15" fill="#00B4AB" stroke="#006b66" stroke-width="1" rx="1" ry="1"></rect><text x="25" y="13" fill="#00B4AB" style="font-family: sans-serif; font-size: 14px;">Dart</text></g><g transform="translate(0, 60)"><rect width="15" height="15" fill="#FFD43B" stroke="#b39429" stroke-width="1" rx="1" ry="1"></rect><text x="25" y="13" fill="#00B4AB" style="font-family: sans-serif; font-size: 14px;">Python</text></g><g transform="translate(0, 90)"><rect width="15" height="15" fill="#9B4F96" stroke="#5a2e5a" stroke-width="1" rx="1" ry="1"></rect><text x="25" y="13" fill="#00B4AB" style="font-family: sans-serif; font-size: 14px;">C#</text></g><g transform="translate(0, 120)"><rect width="15" height="15" fill="#f74c00" stroke="#8f2d00" stroke-width="1" rx="1" ry="1"></rect><text x="25" y="13" fill="#00B4AB" style="font-family: sans-serif; font-size: 14px;">Rust</text></g></g><g transform="translate(280, 155)"><path d="M1.487,-83.963A1,1,0,0,1,2.516,-84.963A85,85,0,0,1,7.807,84.641A1,1,0,0,1,6.717,83.707L4.721,51.747A1,1,0,0,1,5.609,50.691A51,51,0,0,0,2.439,-50.942A1,1,0,0,1,1.487,-51.941Z" fill="#3178c6" stroke="#1e4d7a" stroke-width="1"></path><path d="M3.749,83.893A1,1,0,0,1,2.784,84.954A85,85,0,0,1,-82.492,-20.497A1,1,0,0,1,-81.251,-21.218L-50.416,-12.58A1,1,0,0,1,-49.711,-11.394A51,51,0,0,0,0.741,50.995A1,1,0,0,1,1.753,51.932Z" fill="#00B4AB" stroke="#006b66" stroke-width="1"></path><path d="M-80.449,-24.082A1,1,0,0,1,-81.134,-25.343A85,85,0,0,1,-34.968,-77.474A1,1,0,0,1,-33.633,-76.947L-21.329,-47.382A1,1,0,0,1,-21.825,-46.094A51,51,0,0,0,-48.395,-16.091A1,1,0,0,1,-49.614,-15.443Z" fill="#FFD43B" stroke="#b39429" stroke-width="1"></path><path d="M-30.888,-78.09A1,1,0,0,1,-30.321,-79.408A85,85,0,0,1,-16.904,-83.302A1,1,0,0,1,-15.72,-82.492L-10.283,-50.934A1,1,0,0,1,-11.052,-49.788A51,51,0,0,0,-17.321,-47.969A1,1,0,0,1,-18.584,-48.525Z" fill="#9B4F96" stroke="#5a2e5a" stroke-width="1"></path><path d="M-12.789,-82.997A1,1,0,0,1,-11.944,-84.157A85,85,0,0,1,-2.516,-84.963A1,1,0,0,1,-1.487,-83.963L-1.487,-51.941A1,1,0,0,1,-2.439,-50.942A51,51,0,0,0,-6.245,-50.616A1,1,0,0,1,-7.353,-51.439Z" fill="#f74c00" stroke="#8f2d00" stroke-width="1"></path></g></svg>