<svg width="400" height="280" xmlns="http://www.w3.org/2000/svg"><rect width="400" height="280" fill="#1a1b26" rx="10" ry="10"></rect><text x="200" y="30" fill="#7aa2f7" text-anchor="middle" style="font-family: sans-serif; font-size: 18px; font-weight: 600;">Total Bytes</text><g transform="translate(20, 80)"><g transform="translate(0, 0)"><rect width="15" height="15" fill="#3178c6" stroke="#1e4d7a" stroke-width="1" rx="1" ry="1"></rect><text x="25" y="13" fill="#00B4AB" style="font-family: sans-serif; font-size: 14px;">TypeScript</text></g><g transform="translate(0, 30)"><rect width="15" height="15" fill="#00B4AB" stroke="#006b66" stroke-width="1" rx="1" ry="1"></rect><text x="25" y="13" fill="#00B4AB" style="font-family: sans-serif; font-size: 14px;">Dart</text></g><g transform="translate(0, 60)"><rect width="15" height="15" fill="#FFD43B" stroke="#b39429" stroke-width="1" rx="1" ry="1"></rect><text x="25" y="13" fill="#00B4AB" style="font-family: sans-serif; font-size: 14px;">Python</text></g><g transform="translate(0, 90)"><rect width="15" height="15" fill="#f74c00" stroke="#8f2d00" stroke-width="1" rx="1" ry="1"></rect><text x="25" y="13" fill="#00B4AB" style="font-family: sans-serif; font-size: 14px;">Rust</text></g><g transform="translate(0, 120)"><rect width="15" height="15" fill="#9B4F96" stroke="#5a2e5a" stroke-width="1" rx="1" ry="1"></rect><text x="25" y="13" fill="#00B4AB" style="font-family: sans-serif; font-size: 14px;">C#</text></g></g><g transform="translate(280, 155)"><path d="M1.487,-83.963A1,1,0,0,1,2.516,-84.963A85,85,0,1,1,-52.445,66.892A1,1,0,0,1,-52.596,65.465L-32.101,40.86A1,1,0,0,1,-30.73,40.702A51,51,0,1,0,2.439,-50.942A1,1,0,0,1,1.487,-51.941Z" fill="#3178c6" stroke="#1e4d7a" stroke-width="1"></path><path d="M-54.881,63.562A1,1,0,0,1,-56.312,63.671A85,85,0,0,1,-80.575,-27.067A1,1,0,0,1,-79.281,-27.687L-49.24,-16.595A1,1,0,0,1,-48.633,-15.356A51,51,0,0,0,-34.478,37.58A1,1,0,0,1,-34.386,38.957Z" fill="#00B4AB" stroke="#006b66" stroke-width="1"></path><path d="M-78.251,-30.476A1,1,0,0,1,-78.832,-31.789A85,85,0,0,1,-49.842,-68.853A1,1,0,0,1,-48.429,-68.605L-30.427,-42.121A1,1,0,0,1,-30.653,-40.76A51,51,0,0,0,-46.944,-19.932A1,1,0,0,1,-48.21,-19.385Z" fill="#FFD43B" stroke="#b39429" stroke-width="1"></path><path d="M-45.969,-70.277A1,1,0,0,1,-45.68,-71.682A85,85,0,0,1,-15.512,-83.573A1,1,0,0,1,-14.342,-82.743L-9.432,-51.099A1,1,0,0,1,-10.22,-49.965A51,51,0,0,0,-26.619,-43.502A1,1,0,0,1,-27.968,-43.793Z" fill="#f74c00" stroke="#8f2d00" stroke-width="1"></path><path d="M-11.403,-83.199A1,1,0,0,1,-10.539,-84.344A85,85,0,0,1,-2.516,-84.963A1,1,0,0,1,-1.487,-83.963L-1.487,-51.941A1,1,0,0,1,-2.439,-50.942A51,51,0,0,0,-5.4,-50.713A1,1,0,0,1,-6.494,-51.554Z" fill="#9B4F96" stroke="#5a2e5a" stroke-width="1"></path></g></svg>