<svg width="400" height="280" xmlns="http://www.w3.org/2000/svg"><rect width="400" height="280" fill="#1a1b26" rx="10" ry="10"></rect><text x="200" y="30" fill="#7aa2f7" text-anchor="middle" style="font-family: sans-serif; font-size: 18px; font-weight: 600;">Total Bytes</text><g transform="translate(20, 80)"><g transform="translate(0, 0)"><rect width="15" height="15" fill="#3178c6" stroke="#1e4d7a" stroke-width="1" rx="1" ry="1"></rect><text x="25" y="13" fill="#00B4AB" style="font-family: sans-serif; font-size: 14px;">TypeScript</text></g><g transform="translate(0, 30)"><rect width="15" height="15" fill="#00B4AB" stroke="#006b66" stroke-width="1" rx="1" ry="1"></rect><text x="25" y="13" fill="#00B4AB" style="font-family: sans-serif; font-size: 14px;">Dart</text></g><g transform="translate(0, 60)"><rect width="15" height="15" fill="#FFD43B" stroke="#b39429" stroke-width="1" rx="1" ry="1"></rect><text x="25" y="13" fill="#00B4AB" style="font-family: sans-serif; font-size: 14px;">Python</text></g><g transform="translate(0, 90)"><rect width="15" height="15" fill="#f74c00" stroke="#8f2d00" stroke-width="1" rx="1" ry="1"></rect><text x="25" y="13" fill="#00B4AB" style="font-family: sans-serif; font-size: 14px;">Rust</text></g><g transform="translate(0, 120)"><rect width="15" height="15" fill="#9B4F96" stroke="#5a2e5a" stroke-width="1" rx="1" ry="1"></rect><text x="25" y="13" fill="#00B4AB" style="font-family: sans-serif; font-size: 14px;">C#</text></g></g><g transform="translate(280, 155)"><path d="M1.487,-83.963A1,1,0,0,1,2.516,-84.963A85,85,0,1,1,-54.708,65.054A1,1,0,0,1,-54.81,63.623L-33.483,39.735A1,1,0,0,1,-32.108,39.624A51,51,0,1,0,2.439,-50.942A1,1,0,0,1,1.487,-51.941Z" fill="#3178c6" stroke="#1e4d7a" stroke-width="1"></path><path d="M-57.028,61.642A1,1,0,0,1,-58.462,61.702A85,85,0,0,1,-79.089,-31.143A1,1,0,0,1,-77.765,-31.695L-48.33,-19.086A1,1,0,0,1,-47.786,-17.817A51,51,0,0,0,-35.746,36.376A1,1,0,0,1,-35.701,37.755Z" fill="#00B4AB" stroke="#006b66" stroke-width="1"></path><path d="M-76.594,-34.429A1,1,0,0,1,-77.108,-35.769A85,85,0,0,1,-45.676,-71.685A1,1,0,0,1,-44.279,-71.354L-27.879,-43.85A1,1,0,0,1,-28.185,-42.504A51,51,0,0,0,-45.866,-22.301A1,1,0,0,1,-47.159,-21.819Z" fill="#FFD43B" stroke="#b39429" stroke-width="1"></path><path d="M-41.725,-72.877A1,1,0,0,1,-41.353,-74.263A85,85,0,0,1,-15.657,-83.546A1,1,0,0,1,-14.485,-82.718L-9.521,-51.082A1,1,0,0,1,-10.306,-49.948A51,51,0,0,0,-23.995,-45.002A1,1,0,0,1,-25.325,-45.373Z" fill="#f74c00" stroke="#8f2d00" stroke-width="1"></path><path d="M-11.547,-83.179A1,1,0,0,1,-10.685,-84.326A85,85,0,0,1,-2.516,-84.963A1,1,0,0,1,-1.487,-83.963L-1.487,-51.941A1,1,0,0,1,-2.439,-50.942A51,51,0,0,0,-5.487,-50.704A1,1,0,0,1,-6.583,-51.543Z" fill="#9B4F96" stroke="#5a2e5a" stroke-width="1"></path></g></svg>