<svg width="400" height="280" xmlns="http://www.w3.org/2000/svg"><rect width="400" height="280" fill="#1a1b26" rx="10" ry="10"></rect><text x="200" y="30" fill="#7aa2f7" text-anchor="middle" style="font-family: sans-serif; font-size: 18px; font-weight: 600;">Total Bytes</text><g transform="translate(20, 80)"><g transform="translate(0, 0)"><rect width="15" height="15" fill="#3178c6" stroke="#1e4d7a" stroke-width="1" rx="1" ry="1"></rect><text x="25" y="13" fill="#00B4AB" style="font-family: sans-serif; font-size: 14px;">TypeScript</text></g><g transform="translate(0, 30)"><rect width="15" height="15" fill="#00B4AB" stroke="#006b66" stroke-width="1" rx="1" ry="1"></rect><text x="25" y="13" fill="#00B4AB" style="font-family: sans-serif; font-size: 14px;">Dart</text></g><g transform="translate(0, 60)"><rect width="15" height="15" fill="#FFD43B" stroke="#b39429" stroke-width="1" rx="1" ry="1"></rect><text x="25" y="13" fill="#00B4AB" style="font-family: sans-serif; font-size: 14px;">Python</text></g><g transform="translate(0, 90)"><rect width="15" height="15" fill="#f74c00" stroke="#8f2d00" stroke-width="1" rx="1" ry="1"></rect><text x="25" y="13" fill="#00B4AB" style="font-family: sans-serif; font-size: 14px;">Rust</text></g><g transform="translate(0, 120)"><rect width="15" height="15" fill="#9B4F96" stroke="#5a2e5a" stroke-width="1" rx="1" ry="1"></rect><text x="25" y="13" fill="#00B4AB" style="font-family: sans-serif; font-size: 14px;">C#</text></g></g><g transform="translate(280, 155)"><path d="M1.487,-83.963A1,1,0,0,1,2.516,-84.963A85,85,0,1,1,-56.126,63.835A1,1,0,0,1,-56.197,62.402L-34.349,38.989A1,1,0,0,1,-32.972,38.908A51,51,0,1,0,2.439,-50.942A1,1,0,0,1,1.487,-51.941Z" fill="#3178c6" stroke="#1e4d7a" stroke-width="1"></path><path d="M-58.371,60.373A1,1,0,0,1,-59.806,60.401A85,85,0,0,1,-78.008,-33.761A1,1,0,0,1,-76.666,-34.269L-47.667,-20.686A1,1,0,0,1,-47.166,-19.4A51,51,0,0,0,-36.538,35.58A1,1,0,0,1,-36.523,36.96Z" fill="#00B4AB" stroke="#006b66" stroke-width="1"></path><path d="M-75.405,-36.962A1,1,0,0,1,-75.873,-38.318A85,85,0,0,1,-43.286,-73.153A1,1,0,0,1,-41.901,-72.776L-26.417,-44.746A1,1,0,0,1,-26.767,-43.411A51,51,0,0,0,-45.097,-23.817A1,1,0,0,1,-46.406,-23.379Z" fill="#FFD43B" stroke="#b39429" stroke-width="1"></path><path d="M-39.298,-74.214A1,1,0,0,1,-38.88,-75.586A85,85,0,0,1,-15.755,-83.527A1,1,0,0,1,-14.582,-82.701L-9.58,-51.071A1,1,0,0,1,-10.365,-49.936A51,51,0,0,0,-22.498,-45.77A1,1,0,0,1,-23.814,-46.184Z" fill="#f74c00" stroke="#8f2d00" stroke-width="1"></path><path d="M-11.644,-83.165A1,1,0,0,1,-10.783,-84.313A85,85,0,0,1,-2.516,-84.963A1,1,0,0,1,-1.487,-83.963L-1.487,-51.941A1,1,0,0,1,-2.439,-50.942A51,51,0,0,0,-5.547,-50.697A1,1,0,0,1,-6.643,-51.535Z" fill="#9B4F96" stroke="#5a2e5a" stroke-width="1"></path></g></svg>