<svg width="400" height="280" xmlns="http://www.w3.org/2000/svg"><rect width="400" height="280" fill="#1a1b26" rx="10" ry="10"></rect><text x="200" y="30" fill="#7aa2f7" text-anchor="middle" style="font-family: sans-serif; font-size: 18px; font-weight: 600;">Total Bytes</text><g transform="translate(20, 80)"><g transform="translate(0, 0)"><rect width="15" height="15" fill="#3178c6" stroke="#1e4d7a" stroke-width="1" rx="1" ry="1"></rect><text x="25" y="13" fill="#00B4AB" style="font-family: sans-serif; font-size: 14px;">TypeScript</text></g><g transform="translate(0, 30)"><rect width="15" height="15" fill="#00B4AB" stroke="#006b66" stroke-width="1" rx="1" ry="1"></rect><text x="25" y="13" fill="#00B4AB" style="font-family: sans-serif; font-size: 14px;">Dart</text></g><g transform="translate(0, 60)"><rect width="15" height="15" fill="#FFD43B" stroke="#b39429" stroke-width="1" rx="1" ry="1"></rect><text x="25" y="13" fill="#00B4AB" style="font-family: sans-serif; font-size: 14px;">Python</text></g><g transform="translate(0, 90)"><rect width="15" height="15" fill="#9B4F96" stroke="#5a2e5a" stroke-width="1" rx="1" ry="1"></rect><text x="25" y="13" fill="#00B4AB" style="font-family: sans-serif; font-size: 14px;">C#</text></g><g transform="translate(0, 120)"><rect width="15" height="15" fill="#f74c00" stroke="#8f2d00" stroke-width="1" rx="1" ry="1"></rect><text x="25" y="13" fill="#00B4AB" style="font-family: sans-serif; font-size: 14px;">Rust</text></g></g><g transform="translate(280, 155)"><path d="M1.487,-83.963A1,1,0,0,1,2.516,-84.963A85,85,0,1,1,-25.438,81.104A1,1,0,0,1,-26.084,79.823L-15.6,49.565A1,1,0,0,1,-14.373,48.933A51,51,0,1,0,2.439,-50.942A1,1,0,0,1,1.487,-51.941Z" fill="#3178c6" stroke="#1e4d7a" stroke-width="1"></path><path d="M-28.894,78.849A1,1,0,0,1,-30.194,79.456A85,85,0,0,1,-79.105,-31.102A1,1,0,0,1,-77.781,-31.656L-48.339,-19.061A1,1,0,0,1,-47.796,-17.793A51,51,0,0,0,-18.983,47.336A1,1,0,0,1,-18.41,48.591Z" fill="#00B4AB" stroke="#006b66" stroke-width="1"></path><path d="M-76.612,-34.39A1,1,0,0,1,-77.126,-35.729A85,85,0,0,1,-31.274,-79.038A1,1,0,0,1,-29.965,-78.448L-19.07,-48.336A1,1,0,0,1,-19.626,-47.073A51,51,0,0,0,-45.877,-22.278A1,1,0,0,1,-47.17,-21.795Z" fill="#FFD43B" stroke="#b39429" stroke-width="1"></path><path d="M-27.169,-79.46A1,1,0,0,1,-26.541,-80.75A85,85,0,0,1,-15.248,-83.621A1,1,0,0,1,-14.08,-82.788L-9.27,-51.128A1,1,0,0,1,-10.062,-49.998A51,51,0,0,0,-15.039,-48.732A1,1,0,0,1,-16.274,-49.348Z" fill="#9B4F96" stroke="#5a2e5a" stroke-width="1"></path><path d="M-11.14,-83.234A1,1,0,0,1,-10.272,-84.377A85,85,0,0,1,-2.516,-84.963A1,1,0,0,1,-1.487,-83.963L-1.487,-51.941A1,1,0,0,1,-2.439,-50.942A51,51,0,0,0,-5.239,-50.73A1,1,0,0,1,-6.331,-51.575Z" fill="#f74c00" stroke="#8f2d00" stroke-width="1"></path></g></svg>