<svg width="400" height="280" xmlns="http://www.w3.org/2000/svg"><rect width="400" height="280" fill="#1a1b26" rx="10" ry="10"></rect><text x="200" y="30" fill="#7aa2f7" text-anchor="middle" style="font-family: sans-serif; font-size: 18px; font-weight: 600;">Total Bytes</text><g transform="translate(20, 80)"><g transform="translate(0, 0)"><rect width="15" height="15" fill="#3178c6" stroke="#1e4d7a" stroke-width="1" rx="1" ry="1"></rect><text x="25" y="13" fill="#00B4AB" style="font-family: sans-serif; font-size: 14px;">TypeScript</text></g><g transform="translate(0, 30)"><rect width="15" height="15" fill="#00B4AB" stroke="#006b66" stroke-width="1" rx="1" ry="1"></rect><text x="25" y="13" fill="#00B4AB" style="font-family: sans-serif; font-size: 14px;">Dart</text></g><g transform="translate(0, 60)"><rect width="15" height="15" fill="#FFD43B" stroke="#b39429" stroke-width="1" rx="1" ry="1"></rect><text x="25" y="13" fill="#00B4AB" style="font-family: sans-serif; font-size: 14px;">Python</text></g><g transform="translate(0, 90)"><rect width="15" height="15" fill="#9B4F96" stroke="#5a2e5a" stroke-width="1" rx="1" ry="1"></rect><text x="25" y="13" fill="#00B4AB" style="font-family: sans-serif; font-size: 14px;">C#</text></g><g transform="translate(0, 120)"><rect width="15" height="15" fill="#f74c00" stroke="#8f2d00" stroke-width="1" rx="1" ry="1"></rect><text x="25" y="13" fill="#00B4AB" style="font-family: sans-serif; font-size: 14px;">Rust</text></g></g><g transform="translate(280, 155)"><path d="M1.487,-83.963A1,1,0,0,1,2.516,-84.963A85,85,0,0,1,-1.031,84.994A1,1,0,0,1,-2.018,83.952L-0.681,51.957A1,1,0,0,1,0.312,50.999A51,51,0,0,0,2.439,-50.942A1,1,0,0,1,1.487,-51.941Z" fill="#3178c6" stroke="#1e4d7a" stroke-width="1"></path><path d="M-4.989,83.828A1,1,0,0,1,-6.059,84.784A85,85,0,0,1,-81.918,-22.681A1,1,0,0,1,-80.659,-23.369L-50.064,-13.915A1,1,0,0,1,-49.391,-12.71A51,51,0,0,0,-4.562,50.796A1,1,0,0,1,-3.653,51.833Z" fill="#00B4AB" stroke="#006b66" stroke-width="1"></path><path d="M-79.781,-26.21A1,1,0,0,1,-80.432,-27.489A85,85,0,0,1,-33.894,-77.95A1,1,0,0,1,-32.567,-77.404L-20.673,-47.673A1,1,0,0,1,-21.186,-46.391A51,51,0,0,0,-47.951,-17.371A1,1,0,0,1,-49.186,-16.756Z" fill="#FFD43B" stroke="#b39429" stroke-width="1"></path><path d="M-29.806,-78.509A1,1,0,0,1,-29.221,-79.819A85,85,0,0,1,-16.42,-83.399A1,1,0,0,1,-15.24,-82.582L-9.987,-50.993A1,1,0,0,1,-10.763,-49.851A51,51,0,0,0,-16.657,-48.203A1,1,0,0,1,-17.912,-48.777Z" fill="#9B4F96" stroke="#5a2e5a" stroke-width="1"></path><path d="M-12.307,-83.07A1,1,0,0,1,-11.455,-84.225A85,85,0,0,1,-2.516,-84.963A1,1,0,0,1,-1.487,-83.963L-1.487,-51.941A1,1,0,0,1,-2.439,-50.942A51,51,0,0,0,-5.951,-50.652A1,1,0,0,1,-7.054,-51.481Z" fill="#f74c00" stroke="#8f2d00" stroke-width="1"></path></g></svg>