<svg width="400" height="280" xmlns="http://www.w3.org/2000/svg"><rect width="400" height="280" fill="#1a1b26" rx="10" ry="10"></rect><text x="200" y="30" fill="#7aa2f7" text-anchor="middle" style="font-family: sans-serif; font-size: 18px; font-weight: 600;">Total Bytes</text><g transform="translate(20, 80)"><g transform="translate(0, 0)"><rect width="15" height="15" fill="#3178c6" stroke="#1e4d7a" stroke-width="1" rx="1" ry="1"></rect><text x="25" y="13" fill="#00B4AB" style="font-family: sans-serif; font-size: 14px;">TypeScript</text></g><g transform="translate(0, 30)"><rect width="15" height="15" fill="#00B4AB" stroke="#006b66" stroke-width="1" rx="1" ry="1"></rect><text x="25" y="13" fill="#00B4AB" style="font-family: sans-serif; font-size: 14px;">Dart</text></g><g transform="translate(0, 60)"><rect width="15" height="15" fill="#FFD43B" stroke="#b39429" stroke-width="1" rx="1" ry="1"></rect><text x="25" y="13" fill="#00B4AB" style="font-family: sans-serif; font-size: 14px;">Python</text></g><g transform="translate(0, 90)"><rect width="15" height="15" fill="#9B4F96" stroke="#5a2e5a" stroke-width="1" rx="1" ry="1"></rect><text x="25" y="13" fill="#00B4AB" style="font-family: sans-serif; font-size: 14px;">C#</text></g><g transform="translate(0, 120)"><rect width="15" height="15" fill="#f74c00" stroke="#8f2d00" stroke-width="1" rx="1" ry="1"></rect><text x="25" y="13" fill="#00B4AB" style="font-family: sans-serif; font-size: 14px;">Rust</text></g></g><g transform="translate(280, 155)"><path d="M1.487,-83.963A1,1,0,0,1,2.516,-84.963A85,85,0,1,1,-9.029,84.519A1,1,0,0,1,-9.914,83.389L-5.571,51.662A1,1,0,0,1,-4.492,50.802A51,51,0,1,0,2.439,-50.942A1,1,0,0,1,1.487,-51.941Z" fill="#3178c6" stroke="#1e4d7a" stroke-width="1"></path><path d="M-12.86,82.986A1,1,0,0,1,-14.016,83.837A85,85,0,0,1,-81.013,-25.726A1,1,0,0,1,-79.73,-26.367L-49.509,-15.776A1,1,0,0,1,-48.881,-14.547A51,51,0,0,0,-9.325,50.14A1,1,0,0,1,-8.517,51.259Z" fill="#00B4AB" stroke="#006b66" stroke-width="1"></path><path d="M-78.746,-29.173A1,1,0,0,1,-79.349,-30.476A85,85,0,0,1,-33.101,-78.29A1,1,0,0,1,-31.78,-77.731L-20.188,-47.88A1,1,0,0,1,-20.714,-46.604A51,51,0,0,0,-47.268,-19.15A1,1,0,0,1,-48.526,-18.582Z" fill="#FFD43B" stroke="#b39429" stroke-width="1"></path><path d="M-29.008,-78.807A1,1,0,0,1,-28.41,-80.112A85,85,0,0,1,-16.064,-83.468A1,1,0,0,1,-14.888,-82.646L-9.77,-51.035A1,1,0,0,1,-10.55,-49.897A51,51,0,0,0,-16.167,-48.37A1,1,0,0,1,-17.416,-48.956Z" fill="#9B4F96" stroke="#5a2e5a" stroke-width="1"></path><path d="M-11.952,-83.121A1,1,0,0,1,-11.096,-84.273A85,85,0,0,1,-2.516,-84.963A1,1,0,0,1,-1.487,-83.963L-1.487,-51.941A1,1,0,0,1,-2.439,-50.942A51,51,0,0,0,-5.735,-50.677A1,1,0,0,1,-6.834,-51.51Z" fill="#f74c00" stroke="#8f2d00" stroke-width="1"></path></g></svg>