<svg width="400" height="280" xmlns="http://www.w3.org/2000/svg"><rect width="400" height="280" fill="#1a1b26" rx="10" ry="10"></rect><text x="200" y="30" fill="#7aa2f7" text-anchor="middle" style="font-family: sans-serif; font-size: 18px; font-weight: 600;">Repository Count</text><g transform="translate(20, 80)"><g transform="translate(0, 0)"><rect width="15" height="15" fill="#3178c6" stroke="#1e4d7a" stroke-width="1" rx="1" ry="1"></rect><text x="25" y="13" fill="#00B4AB" style="font-family: sans-serif; font-size: 14px;">TypeScript</text></g><g transform="translate(0, 30)"><rect width="15" height="15" fill="#FFD43B" stroke="#b39429" stroke-width="1" rx="1" ry="1"></rect><text x="25" y="13" fill="#00B4AB" style="font-family: sans-serif; font-size: 14px;">Python</text></g><g transform="translate(0, 60)"><rect width="15" height="15" fill="#f74c00" stroke="#8f2d00" stroke-width="1" rx="1" ry="1"></rect><text x="25" y="13" fill="#00B4AB" style="font-family: sans-serif; font-size: 14px;">Rust</text></g><g transform="translate(0, 90)"><rect width="15" height="15" fill="#9B4F96" stroke="#5a2e5a" stroke-width="1" rx="1" ry="1"></rect><text x="25" y="13" fill="#00B4AB" style="font-family: sans-serif; font-size: 14px;">C#</text></g><g transform="translate(0, 120)"><rect width="15" height="15" fill="#00B4AB" stroke="#006b66" stroke-width="1" rx="1" ry="1"></rect><text x="25" y="13" fill="#00B4AB" style="font-family: sans-serif; font-size: 14px;">Dart</text></g></g><g transform="translate(280, 155)"><path d="M1.487,-83.963A1,1,0,0,1,2.516,-84.963A85,85,0,1,1,-9.927,84.418A1,1,0,0,1,-10.799,83.279L-6.12,51.6A1,1,0,0,1,-5.032,50.751A51,51,0,1,0,2.439,-50.942A1,1,0,0,1,1.487,-51.941Z" fill="#3178c6" stroke="#1e4d7a" stroke-width="1"></path><path d="M-13.741,82.845A1,1,0,0,1,-14.906,83.683A85,85,0,0,1,-84.49,-9.293A1,1,0,0,1,-83.358,-10.174L-51.645,-5.732A1,1,0,0,1,-50.787,-4.651A51,51,0,0,0,-9.857,50.038A1,1,0,0,1,-9.061,51.166Z" fill="#FFD43B" stroke="#b39429" stroke-width="1"></path><path d="M-82.945,-13.119A1,1,0,0,1,-83.792,-14.278A85,85,0,0,1,-52.423,-66.909A1,1,0,0,1,-51.001,-66.715L-32.006,-40.934A1,1,0,0,1,-32.18,-39.565A51,51,0,0,0,-50.111,-9.482A1,1,0,0,1,-51.232,-8.677Z" fill="#f74c00" stroke="#8f2d00" stroke-width="1"></path><path d="M-48.607,-68.479A1,1,0,0,1,-48.371,-69.894A85,85,0,0,1,-21.134,-82.331A1,1,0,0,1,-19.91,-81.582L-12.87,-50.343A1,1,0,0,1,-13.579,-49.159A51,51,0,0,0,-28.253,-42.459A1,1,0,0,1,-29.612,-42.698Z" fill="#9B4F96" stroke="#5a2e5a" stroke-width="1"></path><path d="M-17.009,-82.236A1,1,0,0,1,-16.224,-83.437A85,85,0,0,1,-2.516,-84.963A1,1,0,0,1,-1.487,-83.963L-1.487,-51.941A1,1,0,0,1,-2.439,-50.942A51,51,0,0,0,-8.82,-50.231A1,1,0,0,1,-9.969,-50.997Z" fill="#00B4AB" stroke="#006b66" stroke-width="1"></path></g></svg>