<svg width="400" height="270" xmlns="http://www.w3.org/2000/svg"><rect width="400" height="270" fill="#0d1117" rx="10" ry="10"></rect><text x="200" y="30" fill="#58a6ff" text-anchor="middle" style="font-family: sans-serif; font-size: 18px; font-weight: 600;">By Repository Count</text><g transform="translate(20, 75)"><g transform="translate(0, 0)"><rect width="15" height="15" fill="#3178c6" stroke="#1e4d7a" stroke-width="1" rx="1" ry="1"></rect><text x="25" y="13" fill="#c9d1d9" style="font-family: sans-serif; font-size: 14px;">TypeScript</text></g><g transform="translate(0, 30)"><rect width="15" height="15" fill="#FFD43B" stroke="#b39429" stroke-width="1" rx="1" ry="1"></rect><text x="25" y="13" fill="#c9d1d9" style="font-family: sans-serif; font-size: 14px;">Python</text></g><g transform="translate(0, 60)"><rect width="15" height="15" fill="#f74c00" stroke="#8f2d00" stroke-width="1" rx="1" ry="1"></rect><text x="25" y="13" fill="#c9d1d9" style="font-family: sans-serif; font-size: 14px;">Rust</text></g><g transform="translate(0, 90)"><rect width="15" height="15" fill="#9B4F96" stroke="#5a2e5a" stroke-width="1" rx="1" ry="1"></rect><text x="25" y="13" fill="#c9d1d9" style="font-family: sans-serif; font-size: 14px;">C#</text></g><g transform="translate(0, 120)"><rect width="15" height="15" fill="#00B4AB" stroke="#006b66" stroke-width="1" rx="1" ry="1"></rect><text x="25" y="13" fill="#c9d1d9" style="font-family: sans-serif; font-size: 14px;">Dart</text></g></g><g transform="translate(280, 150)"><path d="M1.399,-78.964A1,1,0,0,1,2.43,-79.963A80,80,0,0,1,34.319,72.265A1,1,0,0,1,32.974,71.763L20.924,44.265A1,1,0,0,1,21.395,42.968A48,48,0,0,0,2.35,-47.942A1,1,0,0,1,1.399,-48.941Z" fill="#3178c6" stroke="#1e4d7a" stroke-width="1"></path><path d="M30.41,72.886A1,1,0,0,1,29.868,74.215A80,80,0,0,1,-79.981,1.723A1,1,0,0,1,-78.973,0.702L-48.952,0.967A1,1,0,0,1,-47.961,1.927A48,48,0,0,0,17.089,44.855A1,1,0,0,1,18.361,45.388Z" fill="#FFD43B" stroke="#b39429" stroke-width="1"></path><path d="M-78.948,-2.097A1,1,0,0,1,-79.939,-3.136A80,80,0,0,1,-58.838,-54.205A1,1,0,0,1,-57.402,-54.242L-35.95,-33.239A1,1,0,0,1,-35.902,-31.86A48,48,0,0,0,-47.92,-2.774A1,1,0,0,1,-48.927,-1.832Z" fill="#f74c00" stroke="#8f2d00" stroke-width="1"></path><path d="M-55.445,-56.242A1,1,0,0,1,-55.438,-57.677A80,80,0,0,1,-24.077,-76.291A1,1,0,0,1,-22.814,-75.609L-14.652,-46.717A1,1,0,0,1,-15.296,-45.498A48,48,0,0,0,-32.613,-35.219A1,1,0,0,1,-33.992,-35.238Z" fill="#9B4F96" stroke="#5a2e5a" stroke-width="1"></path><path d="M-20.121,-76.37A1,1,0,0,1,-19.401,-77.612A80,80,0,0,1,-2.43,-79.963A1,1,0,0,1,-1.399,-78.964L-1.399,-48.941A1,1,0,0,1,-2.35,-47.942A48,48,0,0,0,-10.772,-46.776A1,1,0,0,1,-11.959,-47.478Z" fill="#00B4AB" stroke="#006b66" stroke-width="1"></path><text transform="translate(62.64034834942034, -13.121995224175032)" text-anchor="middle" fill="#ffffff" style="font-family: sans-serif; font-size: 12px; font-weight: 600; text-shadow: 0 1px 2px rgba(0,0,0,0.6);">44.0%</text><text transform="translate(-35.25099143047074, 53.41692244194604)" text-anchor="middle" fill="#ffffff" style="font-family: sans-serif; font-size: 12px; font-weight: 600; text-shadow: 0 1px 2px rgba(0,0,0,0.6);">32.0%</text><text transform="translate(-59.14972484830292, -24.439927380621587)" text-anchor="middle" fill="#ffffff" style="font-family: sans-serif; font-size: 12px; font-weight: 600; text-shadow: 0 1px 2px rgba(0,0,0,0.6);">12.0%</text></g></svg>