<svg width="400" height="280" xmlns="http://www.w3.org/2000/svg"><rect width="400" height="280" fill="#1a1b26" rx="10" ry="10"></rect><text x="200" y="30" fill="#7aa2f7" text-anchor="middle" style="font-family: sans-serif; font-size: 18px; font-weight: 600;">Total Bytes</text><g transform="translate(20, 80)"><g transform="translate(0, 0)"><rect width="15" height="15" fill="#3178c6" stroke="#1e4d7a" stroke-width="1" rx="1" ry="1"></rect><text x="25" y="13" fill="#00B4AB" style="font-family: sans-serif; font-size: 14px;">TypeScript</text></g><g transform="translate(0, 30)"><rect width="15" height="15" fill="#00B4AB" stroke="#006b66" stroke-width="1" rx="1" ry="1"></rect><text x="25" y="13" fill="#00B4AB" style="font-family: sans-serif; font-size: 14px;">Dart</text></g><g transform="translate(0, 60)"><rect width="15" height="15" fill="#FFD43B" stroke="#b39429" stroke-width="1" rx="1" ry="1"></rect><text x="25" y="13" fill="#00B4AB" style="font-family: sans-serif; font-size: 14px;">Python</text></g><g transform="translate(0, 90)"><rect width="15" height="15" fill="#9B4F96" stroke="#5a2e5a" stroke-width="1" rx="1" ry="1"></rect><text x="25" y="13" fill="#00B4AB" style="font-family: sans-serif; font-size: 14px;">C#</text></g><g transform="translate(0, 120)"><rect width="15" height="15" fill="#f74c00" stroke="#8f2d00" stroke-width="1" rx="1" ry="1"></rect><text x="25" y="13" fill="#00B4AB" style="font-family: sans-serif; font-size: 14px;">Rust</text></g></g><g transform="translate(280, 155)"><path d="M1.487,-83.963A1,1,0,0,1,2.516,-84.963A85,85,0,1,1,-25.754,81.004A1,1,0,0,1,-26.395,79.72L-15.793,49.504A1,1,0,0,1,-14.564,48.876A51,51,0,1,0,2.439,-50.942A1,1,0,0,1,1.487,-51.941Z" fill="#3178c6" stroke="#1e4d7a" stroke-width="1"></path><path d="M-29.201,78.736A1,1,0,0,1,-30.503,79.338A85,85,0,0,1,-78.926,-31.554A1,1,0,0,1,-77.599,-32.1L-48.23,-19.337A1,1,0,0,1,-47.693,-18.066A51,51,0,0,0,-19.167,47.261A1,1,0,0,1,-18.599,48.519Z" fill="#00B4AB" stroke="#006b66" stroke-width="1"></path><path d="M-76.414,-34.827A1,1,0,0,1,-76.92,-36.17A85,85,0,0,1,-31.299,-79.028A1,1,0,0,1,-29.991,-78.438L-19.086,-48.33A1,1,0,0,1,-19.641,-47.066A51,51,0,0,0,-45.749,-22.54A1,1,0,0,1,-47.044,-22.065Z" fill="#FFD43B" stroke="#b39429" stroke-width="1"></path><path d="M-27.195,-79.451A1,1,0,0,1,-26.567,-80.741A85,85,0,0,1,-15.259,-83.619A1,1,0,0,1,-14.091,-82.786L-9.277,-51.127A1,1,0,0,1,-10.069,-49.996A51,51,0,0,0,-15.055,-48.727A1,1,0,0,1,-16.29,-49.342Z" fill="#9B4F96" stroke="#5a2e5a" stroke-width="1"></path><path d="M-11.151,-83.233A1,1,0,0,1,-10.283,-84.376A85,85,0,0,1,-2.516,-84.963A1,1,0,0,1,-1.487,-83.963L-1.487,-51.941A1,1,0,0,1,-2.439,-50.942A51,51,0,0,0,-5.246,-50.729A1,1,0,0,1,-6.338,-51.574Z" fill="#f74c00" stroke="#8f2d00" stroke-width="1"></path></g></svg>