<svg width="400" height="280" xmlns="http://www.w3.org/2000/svg"><rect width="400" height="280" fill="#1a1b26" rx="10" ry="10"></rect><text x="200" y="30" fill="#7aa2f7" text-anchor="middle" style="font-family: sans-serif; font-size: 18px; font-weight: 600;">Total Bytes</text><g transform="translate(20, 80)"><g transform="translate(0, 0)"><rect width="15" height="15" fill="#3178c6" stroke="#1e4d7a" stroke-width="1" rx="1" ry="1"></rect><text x="25" y="13" fill="#00B4AB" style="font-family: sans-serif; font-size: 14px;">TypeScript</text></g><g transform="translate(0, 30)"><rect width="15" height="15" fill="#00B4AB" stroke="#006b66" stroke-width="1" rx="1" ry="1"></rect><text x="25" y="13" fill="#00B4AB" style="font-family: sans-serif; font-size: 14px;">Dart</text></g><g transform="translate(0, 60)"><rect width="15" height="15" fill="#FFD43B" stroke="#b39429" stroke-width="1" rx="1" ry="1"></rect><text x="25" y="13" fill="#00B4AB" style="font-family: sans-serif; font-size: 14px;">Python</text></g><g transform="translate(0, 90)"><rect width="15" height="15" fill="#f74c00" stroke="#8f2d00" stroke-width="1" rx="1" ry="1"></rect><text x="25" y="13" fill="#00B4AB" style="font-family: sans-serif; font-size: 14px;">Rust</text></g><g transform="translate(0, 120)"><rect width="15" height="15" fill="#9B4F96" stroke="#5a2e5a" stroke-width="1" rx="1" ry="1"></rect><text x="25" y="13" fill="#00B4AB" style="font-family: sans-serif; font-size: 14px;">C#</text></g></g><g transform="translate(280, 155)"><path d="M1.487,-83.963A1,1,0,0,1,2.516,-84.963A85,85,0,1,1,-54.72,65.044A1,1,0,0,1,-54.822,63.612L-33.491,39.729A1,1,0,0,1,-32.115,39.618A51,51,0,1,0,2.439,-50.942A1,1,0,0,1,1.487,-51.941Z" fill="#3178c6" stroke="#1e4d7a" stroke-width="1"></path><path d="M-57.04,61.631A1,1,0,0,1,-58.474,61.691A85,85,0,0,1,-79.082,-31.163A1,1,0,0,1,-77.757,-31.715L-48.325,-19.098A1,1,0,0,1,-47.782,-17.829A51,51,0,0,0,-35.753,36.369A1,1,0,0,1,-35.709,37.748Z" fill="#00B4AB" stroke="#006b66" stroke-width="1"></path><path d="M-76.586,-34.448A1,1,0,0,1,-77.099,-35.788A85,85,0,0,1,-45.677,-71.684A1,1,0,0,1,-44.281,-71.353L-27.88,-43.849A1,1,0,0,1,-28.186,-42.503A51,51,0,0,0,-45.86,-22.313A1,1,0,0,1,-47.153,-21.831Z" fill="#FFD43B" stroke="#b39429" stroke-width="1"></path><path d="M-41.727,-72.876A1,1,0,0,1,-41.355,-74.262A85,85,0,0,1,-15.657,-83.545A1,1,0,0,1,-14.485,-82.718L-9.521,-51.082A1,1,0,0,1,-10.307,-49.948A51,51,0,0,0,-23.996,-45.002A1,1,0,0,1,-25.326,-45.372Z" fill="#f74c00" stroke="#8f2d00" stroke-width="1"></path><path d="M-11.548,-83.179A1,1,0,0,1,-10.685,-84.326A85,85,0,0,1,-2.516,-84.963A1,1,0,0,1,-1.487,-83.963L-1.487,-51.941A1,1,0,0,1,-2.439,-50.942A51,51,0,0,0,-5.488,-50.704A1,1,0,0,1,-6.583,-51.543Z" fill="#9B4F96" stroke="#5a2e5a" stroke-width="1"></path></g></svg>