<svg width="400" height="280" xmlns="http://www.w3.org/2000/svg"><rect width="400" height="280" fill="#1a1b26" rx="10" ry="10"></rect><text x="200" y="30" fill="#7aa2f7" text-anchor="middle" style="font-family: sans-serif; font-size: 18px; font-weight: 600;">Total Bytes</text><g transform="translate(20, 80)"><g transform="translate(0, 0)"><rect width="15" height="15" fill="#3178c6" stroke="#1e4d7a" stroke-width="1" rx="1" ry="1"></rect><text x="25" y="13" fill="#00B4AB" style="font-family: sans-serif; font-size: 14px;">TypeScript</text></g><g transform="translate(0, 30)"><rect width="15" height="15" fill="#00B4AB" stroke="#006b66" stroke-width="1" rx="1" ry="1"></rect><text x="25" y="13" fill="#00B4AB" style="font-family: sans-serif; font-size: 14px;">Dart</text></g><g transform="translate(0, 60)"><rect width="15" height="15" fill="#FFD43B" stroke="#b39429" stroke-width="1" rx="1" ry="1"></rect><text x="25" y="13" fill="#00B4AB" style="font-family: sans-serif; font-size: 14px;">Python</text></g><g transform="translate(0, 90)"><rect width="15" height="15" fill="#f74c00" stroke="#8f2d00" stroke-width="1" rx="1" ry="1"></rect><text x="25" y="13" fill="#00B4AB" style="font-family: sans-serif; font-size: 14px;">Rust</text></g><g transform="translate(0, 120)"><rect width="15" height="15" fill="#9B4F96" stroke="#5a2e5a" stroke-width="1" rx="1" ry="1"></rect><text x="25" y="13" fill="#00B4AB" style="font-family: sans-serif; font-size: 14px;">C#</text></g></g><g transform="translate(280, 155)"><path d="M1.487,-83.963A1,1,0,0,1,2.516,-84.963A85,85,0,1,1,-58.944,61.242A1,1,0,0,1,-58.95,59.807L-36.07,37.403A1,1,0,0,1,-34.691,37.384A51,51,0,1,0,2.439,-50.942A1,1,0,0,1,1.487,-51.941Z" fill="#3178c6" stroke="#1e4d7a" stroke-width="1"></path><path d="M-61.031,57.683A1,1,0,0,1,-62.465,57.646A85,85,0,0,1,-75.867,-38.33A1,1,0,0,1,-74.497,-38.758L-46.355,-23.478A1,1,0,0,1,-45.932,-22.165A51,51,0,0,0,-38.104,33.899A1,1,0,0,1,-38.151,35.278Z" fill="#00B4AB" stroke="#006b66" stroke-width="1"></path><path d="M-73.078,-41.372A1,1,0,0,1,-73.465,-42.753A85,85,0,0,1,-38.34,-75.862A1,1,0,0,1,-36.983,-75.394L-23.392,-46.399A1,1,0,0,1,-23.83,-45.09A51,51,0,0,0,-43.604,-26.451A1,1,0,0,1,-44.936,-26.091Z" fill="#FFD43B" stroke="#b39429" stroke-width="1"></path><path d="M-34.291,-76.656A1,1,0,0,1,-33.783,-77.998A85,85,0,0,1,-15.878,-83.504A1,1,0,0,1,-14.704,-82.679L-9.656,-51.057A1,1,0,0,1,-10.439,-49.92A51,51,0,0,0,-19.413,-47.161A1,1,0,0,1,-20.699,-47.661Z" fill="#f74c00" stroke="#8f2d00" stroke-width="1"></path><path d="M-11.767,-83.148A1,1,0,0,1,-10.908,-84.297A85,85,0,0,1,-2.516,-84.963A1,1,0,0,1,-1.487,-83.963L-1.487,-51.941A1,1,0,0,1,-2.439,-50.942A51,51,0,0,0,-5.622,-50.689A1,1,0,0,1,-6.719,-51.525Z" fill="#9B4F96" stroke="#5a2e5a" stroke-width="1"></path></g></svg>