<svg width="400" height="280" xmlns="http://www.w3.org/2000/svg"><rect width="400" height="280" fill="#1a1b26" rx="10" ry="10"></rect><text x="200" y="30" fill="#7aa2f7" text-anchor="middle" style="font-family: sans-serif; font-size: 18px; font-weight: 600;">Total Bytes</text><g transform="translate(20, 80)"><g transform="translate(0, 0)"><rect width="15" height="15" fill="#3178c6" stroke="#1e4d7a" stroke-width="1" rx="1" ry="1"></rect><text x="25" y="13" fill="#00B4AB" style="font-family: sans-serif; font-size: 14px;">TypeScript</text></g><g transform="translate(0, 30)"><rect width="15" height="15" fill="#00B4AB" stroke="#006b66" stroke-width="1" rx="1" ry="1"></rect><text x="25" y="13" fill="#00B4AB" style="font-family: sans-serif; font-size: 14px;">Dart</text></g><g transform="translate(0, 60)"><rect width="15" height="15" fill="#FFD43B" stroke="#b39429" stroke-width="1" rx="1" ry="1"></rect><text x="25" y="13" fill="#00B4AB" style="font-family: sans-serif; font-size: 14px;">Python</text></g><g transform="translate(0, 90)"><rect width="15" height="15" fill="#9B4F96" stroke="#5a2e5a" stroke-width="1" rx="1" ry="1"></rect><text x="25" y="13" fill="#00B4AB" style="font-family: sans-serif; font-size: 14px;">C#</text></g><g transform="translate(0, 120)"><rect width="15" height="15" fill="#f74c00" stroke="#8f2d00" stroke-width="1" rx="1" ry="1"></rect><text x="25" y="13" fill="#00B4AB" style="font-family: sans-serif; font-size: 14px;">Rust</text></g></g><g transform="translate(280, 155)"><path d="M1.487,-83.963A1,1,0,0,1,2.516,-84.963A85,85,0,0,1,15.308,83.61A1,1,0,0,1,14.14,82.777L9.307,51.121A1,1,0,0,1,10.098,49.99A51,51,0,0,0,2.439,-50.942A1,1,0,0,1,1.487,-51.941Z" fill="#3178c6" stroke="#1e4d7a" stroke-width="1"></path><path d="M11.2,83.226A1,1,0,0,1,10.333,84.37A85,85,0,0,1,-82.691,-19.679A1,1,0,0,1,-81.458,-20.413L-50.538,-12.08A1,1,0,0,1,-49.821,-10.901A51,51,0,0,0,5.276,50.726A1,1,0,0,1,6.368,51.57Z" fill="#00B4AB" stroke="#006b66" stroke-width="1"></path><path d="M-80.684,-23.284A1,1,0,0,1,-81.381,-24.539A85,85,0,0,1,-36.058,-76.973A1,1,0,0,1,-34.716,-76.465L-21.996,-47.077A1,1,0,0,1,-22.473,-45.782A51,51,0,0,0,-48.552,-15.611A1,1,0,0,1,-49.764,-14.952Z" fill="#FFD43B" stroke="#b39429" stroke-width="1"></path><path d="M-31.987,-77.646A1,1,0,0,1,-31.439,-78.972A85,85,0,0,1,-17.398,-83.2A1,1,0,0,1,-16.209,-82.397L-10.585,-50.872A1,1,0,0,1,-11.347,-49.722A51,51,0,0,0,-17.996,-47.719A1,1,0,0,1,-19.267,-48.258Z" fill="#9B4F96" stroke="#5a2e5a" stroke-width="1"></path><path d="M-13.282,-82.919A1,1,0,0,1,-12.444,-84.084A85,85,0,0,1,-2.516,-84.963A1,1,0,0,1,-1.487,-83.963L-1.487,-51.941A1,1,0,0,1,-2.439,-50.942A51,51,0,0,0,-6.545,-50.578A1,1,0,0,1,-7.658,-51.394Z" fill="#f74c00" stroke="#8f2d00" stroke-width="1"></path></g></svg>