<svg width="400" height="270" xmlns="http://www.w3.org/2000/svg"><rect width="400" height="270" fill="#0d1117" rx="10" ry="10"></rect><text x="200" y="30" fill="#58a6ff" text-anchor="middle" style="font-family: sans-serif; font-size: 18px; font-weight: 600;">By Total Bytes</text><g transform="translate(20, 75)"><g transform="translate(0, 0)"><rect width="15" height="15" fill="#3178c6" stroke="#1e4d7a" stroke-width="1" rx="1" ry="1"></rect><text x="25" y="13" fill="#c9d1d9" style="font-family: sans-serif; font-size: 14px;">TypeScript</text></g><g transform="translate(0, 30)"><rect width="15" height="15" fill="#00B4AB" stroke="#006b66" stroke-width="1" rx="1" ry="1"></rect><text x="25" y="13" fill="#c9d1d9" style="font-family: sans-serif; font-size: 14px;">Dart</text></g><g transform="translate(0, 60)"><rect width="15" height="15" fill="#FFD43B" stroke="#b39429" stroke-width="1" rx="1" ry="1"></rect><text x="25" y="13" fill="#c9d1d9" style="font-family: sans-serif; font-size: 14px;">Python</text></g><g transform="translate(0, 90)"><rect width="15" height="15" fill="#9B4F96" stroke="#5a2e5a" stroke-width="1" rx="1" ry="1"></rect><text x="25" y="13" fill="#c9d1d9" style="font-family: sans-serif; font-size: 14px;">C#</text></g><g transform="translate(0, 120)"><rect width="15" height="15" fill="#f74c00" stroke="#8f2d00" stroke-width="1" rx="1" ry="1"></rect><text x="25" y="13" fill="#c9d1d9" style="font-family: sans-serif; font-size: 14px;">Rust</text></g></g><g transform="translate(280, 150)"><path d="M1.399,-78.964A1,1,0,0,1,2.43,-79.963A80,80,0,0,1,20.162,77.418A1,1,0,0,1,18.935,76.673L12.254,47.403A1,1,0,0,1,12.959,46.217A48,48,0,0,0,2.35,-47.942A1,1,0,0,1,1.399,-48.941Z" fill="#3178c6" stroke="#1e4d7a" stroke-width="1"></path><path d="M16.206,77.295A1,1,0,0,1,15.424,78.499A80,80,0,0,1,-78.327,-16.277A1,1,0,0,1,-77.114,-17.046L-47.919,-10.048A1,1,0,0,1,-47.17,-8.89A48,48,0,0,0,8.376,47.263A1,1,0,0,1,9.526,48.026Z" fill="#00B4AB" stroke="#006b66" stroke-width="1"></path><path d="M-76.462,-19.768A1,1,0,0,1,-77.194,-21.003A80,80,0,0,1,-34.571,-72.145A1,1,0,0,1,-33.224,-71.647L-21.079,-44.191A1,1,0,0,1,-21.545,-42.893A48,48,0,0,0,-46.074,-13.461A1,1,0,0,1,-47.267,-12.769Z" fill="#FFD43B" stroke="#b39429" stroke-width="1"></path><path d="M-30.665,-72.78A1,1,0,0,1,-30.127,-74.11A80,80,0,0,1,-16.698,-78.238A1,1,0,0,1,-15.506,-77.439L-10.134,-47.901A1,1,0,0,1,-10.891,-46.748A48,48,0,0,0,-17.246,-44.795A1,1,0,0,1,-18.519,-45.324Z" fill="#9B4F96" stroke="#5a2e5a" stroke-width="1"></path><path d="M-12.752,-77.94A1,1,0,0,1,-11.917,-79.107A80,80,0,0,1,-2.43,-79.963A1,1,0,0,1,-1.399,-78.964L-1.399,-48.941A1,1,0,0,1,-2.35,-47.942A48,48,0,0,0,-6.266,-47.589A1,1,0,0,1,-7.38,-48.402Z" fill="#f74c00" stroke="#8f2d00" stroke-width="1"></path><text transform="translate(63.59760828425631, -7.165488156594321)" text-anchor="middle" fill="#ffffff" style="font-family: sans-serif; font-size: 12px; font-weight: 600; text-shadow: 0 1px 2px rgba(0,0,0,0.6);">47.1%</text><text transform="translate(-45.5003118412356, 45.0080173119225)" text-anchor="middle" fill="#ffffff" style="font-family: sans-serif; font-size: 12px; font-weight: 600; text-shadow: 0 1px 2px rgba(0,0,0,0.6);">32.6%</text><text transform="translate(-49.16403894406443, -40.97434898453563)" text-anchor="middle" fill="#ffffff" style="font-family: sans-serif; font-size: 12px; font-weight: 600; text-shadow: 0 1px 2px rgba(0,0,0,0.6);">14.5%</text></g></svg>