<svg width="400" height="280" xmlns="http://www.w3.org/2000/svg"><rect width="400" height="280" fill="#1a1b26" rx="10" ry="10"></rect><text x="200" y="30" fill="#7aa2f7" text-anchor="middle" style="font-family: sans-serif; font-size: 18px; font-weight: 600;">Total Bytes</text><g transform="translate(20, 80)"><g transform="translate(0, 0)"><rect width="15" height="15" fill="#3178c6" stroke="#1e4d7a" stroke-width="1" rx="1" ry="1"></rect><text x="25" y="13" fill="#00B4AB" style="font-family: sans-serif; font-size: 14px;">TypeScript</text></g><g transform="translate(0, 30)"><rect width="15" height="15" fill="#00B4AB" stroke="#006b66" stroke-width="1" rx="1" ry="1"></rect><text x="25" y="13" fill="#00B4AB" style="font-family: sans-serif; font-size: 14px;">Dart</text></g><g transform="translate(0, 60)"><rect width="15" height="15" fill="#FFD43B" stroke="#b39429" stroke-width="1" rx="1" ry="1"></rect><text x="25" y="13" fill="#00B4AB" style="font-family: sans-serif; font-size: 14px;">Python</text></g><g transform="translate(0, 90)"><rect width="15" height="15" fill="#9B4F96" stroke="#5a2e5a" stroke-width="1" rx="1" ry="1"></rect><text x="25" y="13" fill="#00B4AB" style="font-family: sans-serif; font-size: 14px;">C#</text></g><g transform="translate(0, 120)"><rect width="15" height="15" fill="#f74c00" stroke="#8f2d00" stroke-width="1" rx="1" ry="1"></rect><text x="25" y="13" fill="#00B4AB" style="font-family: sans-serif; font-size: 14px;">Rust</text></g></g><g transform="translate(280, 155)"><path d="M1.487,-83.963A1,1,0,0,1,2.516,-84.963A85,85,0,1,1,-26.087,80.898A1,1,0,0,1,-26.723,79.611L-15.997,49.438A1,1,0,0,1,-14.765,48.816A51,51,0,1,0,2.439,-50.942A1,1,0,0,1,1.487,-51.941Z" fill="#3178c6" stroke="#1e4d7a" stroke-width="1"></path><path d="M-29.525,78.615A1,1,0,0,1,-30.83,79.212A85,85,0,0,1,-78.734,-32.03A1,1,0,0,1,-77.404,-32.568L-48.112,-19.628A1,1,0,0,1,-47.583,-18.354A51,51,0,0,0,-19.361,47.182A1,1,0,0,1,-18.799,48.442Z" fill="#00B4AB" stroke="#006b66" stroke-width="1"></path><path d="M-76.202,-35.288A1,1,0,0,1,-76.7,-36.634A85,85,0,0,1,-31.326,-79.017A1,1,0,0,1,-30.018,-78.428L-19.102,-48.323A1,1,0,0,1,-19.657,-47.06A51,51,0,0,0,-45.612,-22.816A1,1,0,0,1,-46.91,-22.348Z" fill="#FFD43B" stroke="#b39429" stroke-width="1"></path><path d="M-27.222,-79.442A1,1,0,0,1,-26.595,-80.732A85,85,0,0,1,-15.271,-83.617A1,1,0,0,1,-14.103,-82.784L-9.285,-51.126A1,1,0,0,1,-10.076,-49.995A51,51,0,0,0,-15.071,-48.722A1,1,0,0,1,-16.307,-49.337Z" fill="#9B4F96" stroke="#5a2e5a" stroke-width="1"></path><path d="M-11.163,-83.231A1,1,0,0,1,-10.296,-84.374A85,85,0,0,1,-2.516,-84.963A1,1,0,0,1,-1.487,-83.963L-1.487,-51.941A1,1,0,0,1,-2.439,-50.942A51,51,0,0,0,-5.253,-50.729A1,1,0,0,1,-6.345,-51.573Z" fill="#f74c00" stroke="#8f2d00" stroke-width="1"></path></g></svg>