<svg width="400" height="280" xmlns="http://www.w3.org/2000/svg"><rect width="400" height="280" fill="#1a1b26" rx="10" ry="10"></rect><text x="200" y="30" fill="#7aa2f7" text-anchor="middle" style="font-family: sans-serif; font-size: 18px; font-weight: 600;">Repository Count</text><g transform="translate(20, 80)"><g transform="translate(0, 0)"><rect width="15" height="15" fill="#3178c6" stroke="#1e4d7a" stroke-width="1" rx="1" ry="1"></rect><text x="25" y="13" fill="#00B4AB" style="font-family: sans-serif; font-size: 14px;">TypeScript</text></g><g transform="translate(0, 30)"><rect width="15" height="15" fill="#FFD43B" stroke="#b39429" stroke-width="1" rx="1" ry="1"></rect><text x="25" y="13" fill="#00B4AB" style="font-family: sans-serif; font-size: 14px;">Python</text></g><g transform="translate(0, 60)"><rect width="15" height="15" fill="#f74c00" stroke="#8f2d00" stroke-width="1" rx="1" ry="1"></rect><text x="25" y="13" fill="#00B4AB" style="font-family: sans-serif; font-size: 14px;">Rust</text></g><g transform="translate(0, 90)"><rect width="15" height="15" fill="#9B4F96" stroke="#5a2e5a" stroke-width="1" rx="1" ry="1"></rect><text x="25" y="13" fill="#00B4AB" style="font-family: sans-serif; font-size: 14px;">C#</text></g><g transform="translate(0, 120)"><rect width="15" height="15" fill="#00B4AB" stroke="#006b66" stroke-width="1" rx="1" ry="1"></rect><text x="25" y="13" fill="#00B4AB" style="font-family: sans-serif; font-size: 14px;">Dart</text></g></g><g transform="translate(280, 155)"><path d="M1.487,-83.963A1,1,0,0,1,2.516,-84.963A85,85,0,1,1,-18.728,82.911A1,1,0,0,1,-19.477,81.687L-11.499,50.673A1,1,0,0,1,-10.328,49.943A51,51,0,1,0,2.439,-50.942A1,1,0,0,1,1.487,-51.941Z" fill="#3178c6" stroke="#1e4d7a" stroke-width="1"></path><path d="M-22.357,80.946A1,1,0,0,1,-23.603,81.657A85,85,0,0,1,-82.052,-22.19A1,1,0,0,1,-80.798,-22.886L-50.146,-13.615A1,1,0,0,1,-49.466,-12.414A51,51,0,0,0,-15.052,48.728A1,1,0,0,1,-14.379,49.933Z" fill="#FFD43B" stroke="#b39429" stroke-width="1"></path><path d="M-79.937,-25.732A1,1,0,0,1,-80.595,-27.007A85,85,0,0,1,-53.655,-65.925A1,1,0,0,1,-52.23,-65.758L-32.76,-40.334A1,1,0,0,1,-32.909,-38.962A51,51,0,0,0,-48.054,-17.083A1,1,0,0,1,-49.285,-16.461Z" fill="#f74c00" stroke="#8f2d00" stroke-width="1"></path><path d="M-49.869,-67.566A1,1,0,0,1,-49.659,-68.985A85,85,0,0,1,-21.643,-82.199A1,1,0,0,1,-20.414,-81.457L-13.181,-50.262A1,1,0,0,1,-13.883,-49.074A51,51,0,0,0,-29.036,-41.928A1,1,0,0,1,-30.399,-42.142Z" fill="#9B4F96" stroke="#5a2e5a" stroke-width="1"></path><path d="M-17.517,-82.129A1,1,0,0,1,-16.74,-83.335A85,85,0,0,1,-2.516,-84.963A1,1,0,0,1,-1.487,-83.963L-1.487,-51.941A1,1,0,0,1,-2.439,-50.942A51,51,0,0,0,-9.131,-50.176A1,1,0,0,1,-10.284,-50.934Z" fill="#00B4AB" stroke="#006b66" stroke-width="1"></path></g></svg>