<svg width="400" height="280" xmlns="http://www.w3.org/2000/svg"><rect width="400" height="280" fill="#1a1b26" rx="10" ry="10"></rect><text x="200" y="30" fill="#7aa2f7" text-anchor="middle" style="font-family: sans-serif; font-size: 18px; font-weight: 600;">Total Bytes</text><g transform="translate(20, 80)"><g transform="translate(0, 0)"><rect width="15" height="15" fill="#3178c6" stroke="#1e4d7a" stroke-width="1" rx="1" ry="1"></rect><text x="25" y="13" fill="#00B4AB" style="font-family: sans-serif; font-size: 14px;">TypeScript</text></g><g transform="translate(0, 30)"><rect width="15" height="15" fill="#00B4AB" stroke="#006b66" stroke-width="1" rx="1" ry="1"></rect><text x="25" y="13" fill="#00B4AB" style="font-family: sans-serif; font-size: 14px;">Dart</text></g><g transform="translate(0, 60)"><rect width="15" height="15" fill="#FFD43B" stroke="#b39429" stroke-width="1" rx="1" ry="1"></rect><text x="25" y="13" fill="#00B4AB" style="font-family: sans-serif; font-size: 14px;">Python</text></g><g transform="translate(0, 90)"><rect width="15" height="15" fill="#9B4F96" stroke="#5a2e5a" stroke-width="1" rx="1" ry="1"></rect><text x="25" y="13" fill="#00B4AB" style="font-family: sans-serif; font-size: 14px;">C#</text></g><g transform="translate(0, 120)"><rect width="15" height="15" fill="#f74c00" stroke="#8f2d00" stroke-width="1" rx="1" ry="1"></rect><text x="25" y="13" fill="#00B4AB" style="font-family: sans-serif; font-size: 14px;">Rust</text></g></g><g transform="translate(280, 155)"><path d="M1.487,-83.963A1,1,0,0,1,2.516,-84.963A85,85,0,1,1,-64.908,54.882A1,1,0,0,1,-64.767,53.454L-39.712,33.511A1,1,0,0,1,-38.338,33.634A51,51,0,1,0,2.439,-50.942A1,1,0,0,1,1.487,-51.941Z" fill="#3178c6" stroke="#1e4d7a" stroke-width="1"></path><path d="M-66.619,51.127A1,1,0,0,1,-68.042,50.944A85,85,0,0,1,-70.006,-48.21A1,1,0,0,1,-68.591,-48.449L-42.766,-29.514A1,1,0,0,1,-42.524,-28.155A51,51,0,0,0,-41.376,29.817A1,1,0,0,1,-41.564,31.184Z" fill="#00B4AB" stroke="#006b66" stroke-width="1"></path><path d="M-66.832,-50.847A1,1,0,0,1,-67.03,-52.269A85,85,0,0,1,-26.481,-80.77A1,1,0,0,1,-25.21,-80.103L-16.139,-49.392A1,1,0,0,1,-16.769,-48.164A51,51,0,0,0,-39.639,-32.089A1,1,0,0,1,-41.008,-31.912Z" fill="#FFD43B" stroke="#b39429" stroke-width="1"></path><path d="M-22.358,-80.945A1,1,0,0,1,-21.654,-82.196A85,85,0,0,1,-13.135,-83.979A1,1,0,0,1,-11.988,-83.116L-7.978,-51.346A1,1,0,0,1,-8.798,-50.235A51,51,0,0,0,-12.091,-49.546A1,1,0,0,1,-13.287,-50.234Z" fill="#9B4F96" stroke="#5a2e5a" stroke-width="1"></path><path d="M-9.038,-83.489A1,1,0,0,1,-8.141,-84.609A85,85,0,0,1,-2.516,-84.963A1,1,0,0,1,-1.487,-83.963L-1.487,-51.941A1,1,0,0,1,-2.439,-50.942A51,51,0,0,0,-3.958,-50.846A1,1,0,0,1,-5.028,-51.718Z" fill="#f74c00" stroke="#8f2d00" stroke-width="1"></path></g></svg>