<svg width="400" height="280" xmlns="http://www.w3.org/2000/svg"><rect width="400" height="280" fill="#1a1b26" rx="10" ry="10"></rect><text x="200" y="30" fill="#7aa2f7" text-anchor="middle" style="font-family: sans-serif; font-size: 18px; font-weight: 600;">Total Bytes</text><g transform="translate(20, 80)"><g transform="translate(0, 0)"><rect width="15" height="15" fill="#3178c6" stroke="#1e4d7a" stroke-width="1" rx="1" ry="1"></rect><text x="25" y="13" fill="#00B4AB" style="font-family: sans-serif; font-size: 14px;">TypeScript</text></g><g transform="translate(0, 30)"><rect width="15" height="15" fill="#00B4AB" stroke="#006b66" stroke-width="1" rx="1" ry="1"></rect><text x="25" y="13" fill="#00B4AB" style="font-family: sans-serif; font-size: 14px;">Dart</text></g><g transform="translate(0, 60)"><rect width="15" height="15" fill="#FFD43B" stroke="#b39429" stroke-width="1" rx="1" ry="1"></rect><text x="25" y="13" fill="#00B4AB" style="font-family: sans-serif; font-size: 14px;">Python</text></g><g transform="translate(0, 90)"><rect width="15" height="15" fill="#f74c00" stroke="#8f2d00" stroke-width="1" rx="1" ry="1"></rect><text x="25" y="13" fill="#00B4AB" style="font-family: sans-serif; font-size: 14px;">Rust</text></g><g transform="translate(0, 120)"><rect width="15" height="15" fill="#9B4F96" stroke="#5a2e5a" stroke-width="1" rx="1" ry="1"></rect><text x="25" y="13" fill="#00B4AB" style="font-family: sans-serif; font-size: 14px;">C#</text></g></g><g transform="translate(280, 155)"><path d="M1.487,-83.963A1,1,0,0,1,2.516,-84.963A85,85,0,1,1,-52.567,66.796A1,1,0,0,1,-52.716,65.369L-32.175,40.802A1,1,0,0,1,-30.804,40.646A51,51,0,1,0,2.439,-50.942A1,1,0,0,1,1.487,-51.941Z" fill="#3178c6" stroke="#1e4d7a" stroke-width="1"></path><path d="M-54.997,63.461A1,1,0,0,1,-56.428,63.568A85,85,0,0,1,-80.551,-27.138A1,1,0,0,1,-79.256,-27.757L-49.226,-16.639A1,1,0,0,1,-48.62,-15.399A51,51,0,0,0,-34.547,37.517A1,1,0,0,1,-34.457,38.894Z" fill="#00B4AB" stroke="#006b66" stroke-width="1"></path><path d="M-78.224,-30.546A1,1,0,0,1,-78.804,-31.858A85,85,0,0,1,-49.813,-68.874A1,1,0,0,1,-48.4,-68.626L-30.41,-42.134A1,1,0,0,1,-30.636,-40.773A51,51,0,0,0,-46.926,-19.974A1,1,0,0,1,-48.193,-19.428Z" fill="#FFD43B" stroke="#b39429" stroke-width="1"></path><path d="M-45.94,-70.296A1,1,0,0,1,-45.649,-71.702A85,85,0,0,1,-15.504,-83.574A1,1,0,0,1,-14.334,-82.744L-9.427,-51.099A1,1,0,0,1,-10.215,-49.966A51,51,0,0,0,-26.601,-43.513A1,1,0,0,1,-27.95,-43.805Z" fill="#f74c00" stroke="#8f2d00" stroke-width="1"></path><path d="M-11.395,-83.2A1,1,0,0,1,-10.531,-84.345A85,85,0,0,1,-2.516,-84.963A1,1,0,0,1,-1.487,-83.963L-1.487,-51.941A1,1,0,0,1,-2.439,-50.942A51,51,0,0,0,-5.395,-50.714A1,1,0,0,1,-6.489,-51.555Z" fill="#9B4F96" stroke="#5a2e5a" stroke-width="1"></path></g></svg>