<svg width="400" height="280" xmlns="http://www.w3.org/2000/svg"><rect width="400" height="280" fill="#1a1b26" rx="10" ry="10"></rect><text x="200" y="30" fill="#7aa2f7" text-anchor="middle" style="font-family: sans-serif; font-size: 18px; font-weight: 600;">Total Bytes</text><g transform="translate(20, 80)"><g transform="translate(0, 0)"><rect width="15" height="15" fill="#3178c6" stroke="#1e4d7a" stroke-width="1" rx="1" ry="1"></rect><text x="25" y="13" fill="#00B4AB" style="font-family: sans-serif; font-size: 14px;">TypeScript</text></g><g transform="translate(0, 30)"><rect width="15" height="15" fill="#00B4AB" stroke="#006b66" stroke-width="1" rx="1" ry="1"></rect><text x="25" y="13" fill="#00B4AB" style="font-family: sans-serif; font-size: 14px;">Dart</text></g><g transform="translate(0, 60)"><rect width="15" height="15" fill="#FFD43B" stroke="#b39429" stroke-width="1" rx="1" ry="1"></rect><text x="25" y="13" fill="#00B4AB" style="font-family: sans-serif; font-size: 14px;">Python</text></g><g transform="translate(0, 90)"><rect width="15" height="15" fill="#9B4F96" stroke="#5a2e5a" stroke-width="1" rx="1" ry="1"></rect><text x="25" y="13" fill="#00B4AB" style="font-family: sans-serif; font-size: 14px;">C#</text></g><g transform="translate(0, 120)"><rect width="15" height="15" fill="#f74c00" stroke="#8f2d00" stroke-width="1" rx="1" ry="1"></rect><text x="25" y="13" fill="#00B4AB" style="font-family: sans-serif; font-size: 14px;">Rust</text></g></g><g transform="translate(280, 155)"><path d="M1.487,-83.963A1,1,0,0,1,2.516,-84.963A85,85,0,1,1,-27.119,80.558A1,1,0,0,1,-27.737,79.263L-16.627,49.23A1,1,0,0,1,-15.387,48.623A51,51,0,1,0,2.439,-50.942A1,1,0,0,1,1.487,-51.941Z" fill="#3178c6" stroke="#1e4d7a" stroke-width="1"></path><path d="M-30.526,78.231A1,1,0,0,1,-31.839,78.812A85,85,0,0,1,-78.756,-31.977A1,1,0,0,1,-77.426,-32.516L-48.125,-19.596A1,1,0,0,1,-47.595,-18.321A51,51,0,0,0,-19.962,46.931A1,1,0,0,1,-19.416,48.198Z" fill="#00B4AB" stroke="#006b66" stroke-width="1"></path><path d="M-76.226,-35.237A1,1,0,0,1,-76.725,-36.582A85,85,0,0,1,-31.137,-79.092A1,1,0,0,1,-29.83,-78.5L-18.987,-48.369A1,1,0,0,1,-19.544,-47.106A51,51,0,0,0,-45.627,-22.785A1,1,0,0,1,-46.925,-22.317Z" fill="#FFD43B" stroke="#b39429" stroke-width="1"></path><path d="M-27.032,-79.507A1,1,0,0,1,-26.401,-80.796A85,85,0,0,1,-15.187,-83.632A1,1,0,0,1,-14.02,-82.798L-9.233,-51.135A1,1,0,0,1,-10.026,-50.005A51,51,0,0,0,-14.954,-48.758A1,1,0,0,1,-16.189,-49.376Z" fill="#9B4F96" stroke="#5a2e5a" stroke-width="1"></path><path d="M-11.079,-83.242A1,1,0,0,1,-10.211,-84.384A85,85,0,0,1,-2.516,-84.963A1,1,0,0,1,-1.487,-83.963L-1.487,-51.941A1,1,0,0,1,-2.439,-50.942A51,51,0,0,0,-5.202,-50.734A1,1,0,0,1,-6.293,-51.579Z" fill="#f74c00" stroke="#8f2d00" stroke-width="1"></path></g></svg>