<svg width="400" height="280" xmlns="http://www.w3.org/2000/svg"><rect width="400" height="280" fill="#1a1b26" rx="10" ry="10"></rect><text x="200" y="30" fill="#7aa2f7" text-anchor="middle" style="font-family: sans-serif; font-size: 18px; font-weight: 600;">Total Bytes</text><g transform="translate(20, 80)"><g transform="translate(0, 0)"><rect width="15" height="15" fill="#3178c6" stroke="#1e4d7a" stroke-width="1" rx="1" ry="1"></rect><text x="25" y="13" fill="#00B4AB" style="font-family: sans-serif; font-size: 14px;">TypeScript</text></g><g transform="translate(0, 30)"><rect width="15" height="15" fill="#00B4AB" stroke="#006b66" stroke-width="1" rx="1" ry="1"></rect><text x="25" y="13" fill="#00B4AB" style="font-family: sans-serif; font-size: 14px;">Dart</text></g><g transform="translate(0, 60)"><rect width="15" height="15" fill="#FFD43B" stroke="#b39429" stroke-width="1" rx="1" ry="1"></rect><text x="25" y="13" fill="#00B4AB" style="font-family: sans-serif; font-size: 14px;">Python</text></g><g transform="translate(0, 90)"><rect width="15" height="15" fill="#9B4F96" stroke="#5a2e5a" stroke-width="1" rx="1" ry="1"></rect><text x="25" y="13" fill="#00B4AB" style="font-family: sans-serif; font-size: 14px;">C#</text></g><g transform="translate(0, 120)"><rect width="15" height="15" fill="#f74c00" stroke="#8f2d00" stroke-width="1" rx="1" ry="1"></rect><text x="25" y="13" fill="#00B4AB" style="font-family: sans-serif; font-size: 14px;">Rust</text></g></g><g transform="translate(280, 155)"><path d="M1.487,-83.963A1,1,0,0,1,2.516,-84.963A85,85,0,0,1,3.618,84.923A1,1,0,0,1,2.575,83.937L2.16,51.917A1,1,0,0,1,3.099,50.906A51,51,0,0,0,2.439,-50.942A1,1,0,0,1,1.487,-51.941Z" fill="#3178c6" stroke="#1e4d7a" stroke-width="1"></path><path d="M-0.398,83.975A1,1,0,0,1,-1.415,84.988A85,85,0,0,1,-82.391,-20.899A1,1,0,0,1,-81.147,-21.615L-50.354,-12.826A1,1,0,0,1,-49.655,-11.636A51,51,0,0,0,-1.778,50.969A1,1,0,0,1,-0.813,51.955Z" fill="#00B4AB" stroke="#006b66" stroke-width="1"></path><path d="M-80.331,-24.475A1,1,0,0,1,-81.009,-25.739A85,85,0,0,1,-34.352,-77.749A1,1,0,0,1,-33.022,-77.211L-20.953,-47.55A1,1,0,0,1,-21.458,-46.266A51,51,0,0,0,-48.316,-16.327A1,1,0,0,1,-49.538,-15.686Z" fill="#FFD43B" stroke="#b39429" stroke-width="1"></path><path d="M-30.267,-78.332A1,1,0,0,1,-29.69,-79.646A85,85,0,0,1,-16.626,-83.358A1,1,0,0,1,-15.445,-82.544L-10.113,-50.968A1,1,0,0,1,-10.886,-49.825A51,51,0,0,0,-16.94,-48.104A1,1,0,0,1,-18.198,-48.671Z" fill="#9B4F96" stroke="#5a2e5a" stroke-width="1"></path><path d="M-12.512,-83.039A1,1,0,0,1,-11.664,-84.196A85,85,0,0,1,-2.516,-84.963A1,1,0,0,1,-1.487,-83.963L-1.487,-51.941A1,1,0,0,1,-2.439,-50.942A51,51,0,0,0,-6.076,-50.637A1,1,0,0,1,-7.181,-51.463Z" fill="#f74c00" stroke="#8f2d00" stroke-width="1"></path></g></svg>