<svg width="400" height="280" xmlns="http://www.w3.org/2000/svg"><rect width="400" height="280" fill="#1a1b26" rx="10" ry="10"></rect><text x="200" y="30" fill="#7aa2f7" text-anchor="middle" style="font-family: sans-serif; font-size: 18px; font-weight: 600;">Total Bytes</text><g transform="translate(20, 80)"><g transform="translate(0, 0)"><rect width="15" height="15" fill="#3178c6" stroke="#1e4d7a" stroke-width="1" rx="1" ry="1"></rect><text x="25" y="13" fill="#00B4AB" style="font-family: sans-serif; font-size: 14px;">TypeScript</text></g><g transform="translate(0, 30)"><rect width="15" height="15" fill="#00B4AB" stroke="#006b66" stroke-width="1" rx="1" ry="1"></rect><text x="25" y="13" fill="#00B4AB" style="font-family: sans-serif; font-size: 14px;">Dart</text></g><g transform="translate(0, 60)"><rect width="15" height="15" fill="#FFD43B" stroke="#b39429" stroke-width="1" rx="1" ry="1"></rect><text x="25" y="13" fill="#00B4AB" style="font-family: sans-serif; font-size: 14px;">Python</text></g><g transform="translate(0, 90)"><rect width="15" height="15" fill="#9B4F96" stroke="#5a2e5a" stroke-width="1" rx="1" ry="1"></rect><text x="25" y="13" fill="#00B4AB" style="font-family: sans-serif; font-size: 14px;">C#</text></g><g transform="translate(0, 120)"><rect width="15" height="15" fill="#f74c00" stroke="#8f2d00" stroke-width="1" rx="1" ry="1"></rect><text x="25" y="13" fill="#00B4AB" style="font-family: sans-serif; font-size: 14px;">Rust</text></g></g><g transform="translate(280, 155)"><path d="M1.487,-83.963A1,1,0,0,1,2.516,-84.963A85,85,0,1,1,-9.549,84.462A1,1,0,0,1,-10.426,83.327L-5.889,51.627A1,1,0,0,1,-4.804,50.773A51,51,0,1,0,2.439,-50.942A1,1,0,0,1,1.487,-51.941Z" fill="#3178c6" stroke="#1e4d7a" stroke-width="1"></path><path d="M-13.37,82.905A1,1,0,0,1,-14.531,83.749A85,85,0,0,1,-80.95,-25.923A1,1,0,0,1,-79.665,-26.561L-49.471,-15.896A1,1,0,0,1,-48.846,-14.666A51,51,0,0,0,-9.633,50.082A1,1,0,0,1,-8.832,51.206Z" fill="#00B4AB" stroke="#006b66" stroke-width="1"></path><path d="M-78.675,-29.365A1,1,0,0,1,-79.274,-30.669A85,85,0,0,1,-33.05,-78.312A1,1,0,0,1,-31.728,-77.752L-20.156,-47.893A1,1,0,0,1,-20.683,-46.618A51,51,0,0,0,-47.221,-19.265A1,1,0,0,1,-48.48,-18.7Z" fill="#FFD43B" stroke="#b39429" stroke-width="1"></path><path d="M-28.956,-78.826A1,1,0,0,1,-28.357,-80.13A85,85,0,0,1,-16.041,-83.473A1,1,0,0,1,-14.865,-82.65L-9.755,-51.038A1,1,0,0,1,-10.536,-49.9A51,51,0,0,0,-16.135,-48.38A1,1,0,0,1,-17.384,-48.968Z" fill="#9B4F96" stroke="#5a2e5a" stroke-width="1"></path><path d="M-11.929,-83.125A1,1,0,0,1,-11.072,-84.276A85,85,0,0,1,-2.516,-84.963A1,1,0,0,1,-1.487,-83.963L-1.487,-51.941A1,1,0,0,1,-2.439,-50.942A51,51,0,0,0,-5.72,-50.678A1,1,0,0,1,-6.82,-51.512Z" fill="#f74c00" stroke="#8f2d00" stroke-width="1"></path></g></svg>