<svg width="400" height="280" xmlns="http://www.w3.org/2000/svg"><rect width="400" height="280" fill="#1a1b26" rx="10" ry="10"></rect><text x="200" y="30" fill="#7aa2f7" text-anchor="middle" style="font-family: sans-serif; font-size: 18px; font-weight: 600;">Total Bytes</text><g transform="translate(20, 80)"><g transform="translate(0, 0)"><rect width="15" height="15" fill="#3178c6" stroke="#1e4d7a" stroke-width="1" rx="1" ry="1"></rect><text x="25" y="13" fill="#00B4AB" style="font-family: sans-serif; font-size: 14px;">TypeScript</text></g><g transform="translate(0, 30)"><rect width="15" height="15" fill="#00B4AB" stroke="#006b66" stroke-width="1" rx="1" ry="1"></rect><text x="25" y="13" fill="#00B4AB" style="font-family: sans-serif; font-size: 14px;">Dart</text></g><g transform="translate(0, 60)"><rect width="15" height="15" fill="#FFD43B" stroke="#b39429" stroke-width="1" rx="1" ry="1"></rect><text x="25" y="13" fill="#00B4AB" style="font-family: sans-serif; font-size: 14px;">Python</text></g><g transform="translate(0, 90)"><rect width="15" height="15" fill="#9B4F96" stroke="#5a2e5a" stroke-width="1" rx="1" ry="1"></rect><text x="25" y="13" fill="#00B4AB" style="font-family: sans-serif; font-size: 14px;">C#</text></g><g transform="translate(0, 120)"><rect width="15" height="15" fill="#f74c00" stroke="#8f2d00" stroke-width="1" rx="1" ry="1"></rect><text x="25" y="13" fill="#00B4AB" style="font-family: sans-serif; font-size: 14px;">Rust</text></g></g><g transform="translate(280, 155)"><path d="M1.487,-83.963A1,1,0,0,1,2.516,-84.963A85,85,0,1,1,-10.115,84.396A1,1,0,0,1,-10.985,83.255L-6.235,51.586A1,1,0,0,1,-5.145,50.74A51,51,0,1,0,2.439,-50.942A1,1,0,0,1,1.487,-51.941Z" fill="#3178c6" stroke="#1e4d7a" stroke-width="1"></path><path d="M-13.926,82.814A1,1,0,0,1,-15.093,83.649A85,85,0,0,1,-80.881,-26.139A1,1,0,0,1,-79.594,-26.773L-49.428,-16.028A1,1,0,0,1,-48.807,-14.796A51,51,0,0,0,-9.969,50.016A1,1,0,0,1,-9.176,51.145Z" fill="#00B4AB" stroke="#006b66" stroke-width="1"></path><path d="M-78.596,-29.574A1,1,0,0,1,-79.192,-30.88A85,85,0,0,1,-32.993,-78.336A1,1,0,0,1,-31.672,-77.775L-20.122,-47.908A1,1,0,0,1,-20.649,-46.633A51,51,0,0,0,-47.17,-19.391A1,1,0,0,1,-48.43,-18.829Z" fill="#FFD43B" stroke="#b39429" stroke-width="1"></path><path d="M-28.899,-78.847A1,1,0,0,1,-28.299,-80.151A85,85,0,0,1,-16.015,-83.478A1,1,0,0,1,-14.84,-82.655L-9.74,-51.041A1,1,0,0,1,-10.521,-49.903A51,51,0,0,0,-16.1,-48.392A1,1,0,0,1,-17.348,-48.98Z" fill="#9B4F96" stroke="#5a2e5a" stroke-width="1"></path><path d="M-11.904,-83.128A1,1,0,0,1,-11.047,-84.279A85,85,0,0,1,-2.516,-84.963A1,1,0,0,1,-1.487,-83.963L-1.487,-51.941A1,1,0,0,1,-2.439,-50.942A51,51,0,0,0,-5.705,-50.68A1,1,0,0,1,-6.804,-51.514Z" fill="#f74c00" stroke="#8f2d00" stroke-width="1"></path></g></svg>