<svg width="400" height="280" xmlns="http://www.w3.org/2000/svg"><rect width="400" height="280" fill="#1a1b26" rx="10" ry="10"></rect><text x="200" y="30" fill="#7aa2f7" text-anchor="middle" style="font-family: sans-serif; font-size: 18px; font-weight: 600;">Total Bytes</text><g transform="translate(20, 80)"><g transform="translate(0, 0)"><rect width="15" height="15" fill="#3178c6" stroke="#1e4d7a" stroke-width="1" rx="1" ry="1"></rect><text x="25" y="13" fill="#00B4AB" style="font-family: sans-serif; font-size: 14px;">TypeScript</text></g><g transform="translate(0, 30)"><rect width="15" height="15" fill="#00B4AB" stroke="#006b66" stroke-width="1" rx="1" ry="1"></rect><text x="25" y="13" fill="#00B4AB" style="font-family: sans-serif; font-size: 14px;">Dart</text></g><g transform="translate(0, 60)"><rect width="15" height="15" fill="#FFD43B" stroke="#b39429" stroke-width="1" rx="1" ry="1"></rect><text x="25" y="13" fill="#00B4AB" style="font-family: sans-serif; font-size: 14px;">Python</text></g><g transform="translate(0, 90)"><rect width="15" height="15" fill="#9B4F96" stroke="#5a2e5a" stroke-width="1" rx="1" ry="1"></rect><text x="25" y="13" fill="#00B4AB" style="font-family: sans-serif; font-size: 14px;">C#</text></g><g transform="translate(0, 120)"><rect width="15" height="15" fill="#f74c00" stroke="#8f2d00" stroke-width="1" rx="1" ry="1"></rect><text x="25" y="13" fill="#00B4AB" style="font-family: sans-serif; font-size: 14px;">Rust</text></g></g><g transform="translate(280, 155)"><path d="M1.487,-83.963A1,1,0,0,1,2.516,-84.963A85,85,0,1,1,-22.792,81.887A1,1,0,0,1,-23.479,80.627L-13.983,50.045A1,1,0,0,1,-12.777,49.374A51,51,0,1,0,2.439,-50.942A1,1,0,0,1,1.487,-51.941Z" fill="#3178c6" stroke="#1e4d7a" stroke-width="1"></path><path d="M-26.319,79.746A1,1,0,0,1,-27.598,80.395A85,85,0,0,1,-79.159,-30.966A1,1,0,0,1,-77.836,-31.522L-48.372,-18.978A1,1,0,0,1,-47.826,-17.711A51,51,0,0,0,-17.436,47.927A1,1,0,0,1,-16.823,49.163Z" fill="#00B4AB" stroke="#006b66" stroke-width="1"></path><path d="M-76.671,-34.258A1,1,0,0,1,-77.187,-35.597A85,85,0,0,1,-31.706,-78.865A1,1,0,0,1,-30.395,-78.283L-19.335,-48.231A1,1,0,0,1,-19.883,-46.964A51,51,0,0,0,-45.915,-22.199A1,1,0,0,1,-47.207,-21.714Z" fill="#FFD43B" stroke="#b39429" stroke-width="1"></path><path d="M-27.604,-79.31A1,1,0,0,1,-26.983,-80.603A85,85,0,0,1,-15.44,-83.586A1,1,0,0,1,-14.27,-82.755L-9.388,-51.107A1,1,0,0,1,-10.177,-49.974A51,51,0,0,0,-15.306,-48.649A1,1,0,0,1,-16.544,-49.258Z" fill="#9B4F96" stroke="#5a2e5a" stroke-width="1"></path><path d="M-11.332,-83.208A1,1,0,0,1,-10.466,-84.353A85,85,0,0,1,-2.516,-84.963A1,1,0,0,1,-1.487,-83.963L-1.487,-51.941A1,1,0,0,1,-2.439,-50.942A51,51,0,0,0,-5.356,-50.718A1,1,0,0,1,-6.449,-51.56Z" fill="#f74c00" stroke="#8f2d00" stroke-width="1"></path></g></svg>