<svg width="400" height="280" xmlns="http://www.w3.org/2000/svg"><rect width="400" height="280" fill="#1a1b26" rx="10" ry="10"></rect><text x="200" y="30" fill="#7aa2f7" text-anchor="middle" style="font-family: sans-serif; font-size: 18px; font-weight: 600;">Total Bytes</text><g transform="translate(20, 80)"><g transform="translate(0, 0)"><rect width="15" height="15" fill="#3178c6" stroke="#1e4d7a" stroke-width="1" rx="1" ry="1"></rect><text x="25" y="13" fill="#00B4AB" style="font-family: sans-serif; font-size: 14px;">TypeScript</text></g><g transform="translate(0, 30)"><rect width="15" height="15" fill="#00B4AB" stroke="#006b66" stroke-width="1" rx="1" ry="1"></rect><text x="25" y="13" fill="#00B4AB" style="font-family: sans-serif; font-size: 14px;">Dart</text></g><g transform="translate(0, 60)"><rect width="15" height="15" fill="#FFD43B" stroke="#b39429" stroke-width="1" rx="1" ry="1"></rect><text x="25" y="13" fill="#00B4AB" style="font-family: sans-serif; font-size: 14px;">Python</text></g><g transform="translate(0, 90)"><rect width="15" height="15" fill="#9B4F96" stroke="#5a2e5a" stroke-width="1" rx="1" ry="1"></rect><text x="25" y="13" fill="#00B4AB" style="font-family: sans-serif; font-size: 14px;">C#</text></g><g transform="translate(0, 120)"><rect width="15" height="15" fill="#f74c00" stroke="#8f2d00" stroke-width="1" rx="1" ry="1"></rect><text x="25" y="13" fill="#00B4AB" style="font-family: sans-serif; font-size: 14px;">Rust</text></g></g><g transform="translate(280, 155)"><path d="M1.487,-83.963A1,1,0,0,1,2.516,-84.963A85,85,0,0,1,8.918,84.531A1,1,0,0,1,7.816,83.612L5.401,51.68A1,1,0,0,1,6.275,50.613A51,51,0,0,0,2.439,-50.942A1,1,0,0,1,1.487,-51.941Z" fill="#3178c6" stroke="#1e4d7a" stroke-width="1"></path><path d="M4.851,83.836A1,1,0,0,1,3.9,84.91A85,85,0,0,1,-82.082,-22.081A1,1,0,0,1,-80.828,-22.779L-50.164,-13.548A1,1,0,0,1,-49.482,-12.349A51,51,0,0,0,1.411,50.98A1,1,0,0,1,2.436,51.905Z" fill="#00B4AB" stroke="#006b66" stroke-width="1"></path><path d="M-79.971,-25.626A1,1,0,0,1,-80.631,-26.9A85,85,0,0,1,-35.414,-77.271A1,1,0,0,1,-34.077,-76.752L-21.602,-47.258A1,1,0,0,1,-22.09,-45.968A51,51,0,0,0,-48.076,-17.02A1,1,0,0,1,-49.307,-16.396Z" fill="#FFD43B" stroke="#b39429" stroke-width="1"></path><path d="M-31.338,-77.91A1,1,0,0,1,-30.779,-79.232A85,85,0,0,1,-17.106,-83.261A1,1,0,0,1,-15.92,-82.454L-10.407,-50.909A1,1,0,0,1,-11.173,-49.761A51,51,0,0,0,-17.598,-47.868A1,1,0,0,1,-18.864,-48.417Z" fill="#9B4F96" stroke="#5a2e5a" stroke-width="1"></path><path d="M-12.991,-82.965A1,1,0,0,1,-12.149,-84.127A85,85,0,0,1,-2.516,-84.963A1,1,0,0,1,-1.487,-83.963L-1.487,-51.941A1,1,0,0,1,-2.439,-50.942A51,51,0,0,0,-6.368,-50.601A1,1,0,0,1,-7.478,-51.421Z" fill="#f74c00" stroke="#8f2d00" stroke-width="1"></path></g></svg>